*
*
G04 PADS VX.2 Build Number: 5060570 generated Gerber (RS-274-X) file*
G04 PC Version=2.1*
*
%IN "board.pcb"*%
*
%MOIN*%
*
%FSLAX35Y35*%
*
*
*
*
G04 PC Standard Apertures*
*
*
G04 Thermal Relief Aperture macro.*
%AMTER*
1,1,$1,0,0*
1,0,$1-$2,0,0*
21,0,$3,$4,0,0,45*
21,0,$3,$4,0,0,135*
%
*
*
G04 Annular Aperture macro.*
%AMANN*
1,1,$1,0,0*
1,0,$2,0,0*
%
*
*
G04 Odd Aperture macro.*
%AMODD*
1,1,$1,0,0*
1,0,$1-0.005,0,0*
%
*
*
G04 PC Custom Aperture Macros*
*
*
*
*
*
*
G04 PC Aperture Table*
*
%ADD010C,0.001*%
%ADD013R,0.07874X0.00984*%
%ADD014R,0.06X0.06*%
%ADD015C,0.06*%
%ADD020C,0.04724*%
%ADD026C,0.01*%
%ADD048C,0.0015*%
*
*
*
*
G04 PC Circuitry*
G04 Layer Name board.pcb - circuitry*
%LPD*%
*
*
G04 PC Custom Flashes*
G04 Layer Name board.pcb - flashes*
%LPD*%
*
*
G04 PC Circuitry*
G04 Layer Name board.pcb - circuitry*
%LPD*%
*
G54D10*
G54D13*
G01X195374Y338878D03*
X179626D03*
X195374Y340846D03*
X179626D03*
X195374Y342815D03*
X179626D03*
X195374Y344783D03*
X179626D03*
X195374Y346752D03*
X179626D03*
X195374Y348720D03*
X179626D03*
X195374Y350689D03*
X179626D03*
X195374Y352657D03*
X179626D03*
X195374Y354626D03*
X179626D03*
X195374Y356594D03*
X179626D03*
X195374Y358563D03*
X179626D03*
X195374Y360531D03*
X179626D03*
X195374Y362500D03*
X179626D03*
X195374Y364469D03*
X179626D03*
X195374Y366437D03*
X179626D03*
X195374Y368406D03*
X179626D03*
X195374Y370374D03*
X179626D03*
X195374Y372343D03*
X179626D03*
X195374Y374311D03*
X179626D03*
X195374Y376280D03*
X179626D03*
X195374Y378248D03*
X179626D03*
X195374Y380217D03*
X179626D03*
X195374Y382185D03*
X179626D03*
X195374Y384154D03*
X179626D03*
X195374Y386122D03*
X179626D03*
G54D14*
X403152Y393865D03*
X275519Y347556D03*
X275517Y299790D03*
X275000Y395000D03*
X356243Y300729D03*
G54D15*
X393152Y393865D03*
X383152D03*
X373152D03*
X265519Y347556D03*
X255519D03*
X265517Y299790D03*
X255517D03*
X265000Y395000D03*
X255000D03*
X366243Y300729D03*
X376243D03*
X386243D03*
X396243D03*
X406243D03*
X416243D03*
X426243D03*
G54D20*
X468839Y372008D03*
Y340512D03*
G54D26*
X168453Y405000D02*
Y292500D01*
X482500*
Y405000*
X168453*
G54D48*
X187841Y361516D02*
Y362266D01*
X187807Y362406*
X187773Y362453*
X187705Y362500*
X187636*
X187568Y362453*
X187534Y362406*
X187500Y362266*
Y362172*
X188489Y361516D02*
X188148Y362172D01*
X188659*
X188489Y361516D02*
Y362500D01*
X0Y0D02*
M02*
