*
*
G04 PADS VX.2 Build Number: 5060570 generated Gerber (RS-274-X) file*
G04 PC Version=2.1*
*
%IN "board.pcb"*%
*
%MOIN*%
*
%FSLAX35Y35*%
*
*
*
*
G04 PC Standard Apertures*
*
*
G04 Thermal Relief Aperture macro.*
%AMTER*
1,1,$1,0,0*
1,0,$1-$2,0,0*
21,0,$3,$4,0,0,45*
21,0,$3,$4,0,0,135*
%
*
*
G04 Annular Aperture macro.*
%AMANN*
1,1,$1,0,0*
1,0,$2,0,0*
%
*
*
G04 Odd Aperture macro.*
%AMODD*
1,1,$1,0,0*
1,0,$1-0.005,0,0*
%
*
*
G04 PC Custom Aperture Macros*
*
*
*
*
*
*
G04 PC Aperture Table*
*
%ADD010C,0.001*%
%ADD011R,0.038X0.03*%
%ADD012R,0.00984X0.07874*%
%ADD013R,0.07874X0.00984*%
%ADD014R,0.06X0.06*%
%ADD015C,0.06*%
%ADD016O,0.024X0.074*%
%ADD017R,0.07087X0.02756*%
%ADD018R,0.05512X0.06299*%
%ADD019R,0.08661X0.04724*%
%ADD020C,0.04724*%
%ADD021R,0.03X0.038*%
%ADD022O,0.04331X0.02362*%
%ADD023R,0.04331X0.02362*%
%ADD024R,0.065X0.125*%
%ADD025C,0.03*%
%ADD026C,0.01*%
%ADD027C,0.006*%
%ADD028C,0.02*%
%ADD029C,0.02559*%
%ADD030C,0.015*%
*
*
*
*
G04 PC Circuitry*
G04 Layer Name board.pcb - circuitry*
%LPD*%
*
*
G04 PC Custom Flashes*
G04 Layer Name board.pcb - flashes*
%LPD*%
*
*
G04 PC Circuitry*
G04 Layer Name board.pcb - circuitry*
%LPD*%
*
G54D10*
G54D11*
G01X316900Y397500D03*
X323100D03*
X233100Y352500D03*
X226900D03*
X299400Y360000D03*
X305600D03*
X316900Y370000D03*
X323100D03*
X334400D03*
X340600D03*
X339400Y355000D03*
X345600D03*
X299400Y352500D03*
X305600D03*
X299400Y382500D03*
X305600D03*
X299400Y390000D03*
X305600D03*
X334400Y397500D03*
X340600D03*
X339400Y382500D03*
X345600D03*
X299400Y300000D03*
X305600D03*
X299400Y307500D03*
X305600D03*
X316900Y317500D03*
X323100D03*
X334400D03*
X340600D03*
X339400Y302500D03*
X345600D03*
X233100Y300000D03*
X226900D03*
X299400Y330000D03*
X305600D03*
X299400Y337500D03*
X305600D03*
X316900Y345000D03*
X323100D03*
X334400D03*
X340600D03*
X339400Y330000D03*
X345600D03*
X299400Y397500D03*
X305600D03*
X299400Y315000D03*
X305600D03*
X299400Y367500D03*
X305600D03*
X299400Y345000D03*
X305600D03*
G54D12*
X402264Y376713D03*
X400295D03*
X398327D03*
X396358D03*
X394390D03*
X392421D03*
X390453D03*
X388484D03*
X386516D03*
X384547D03*
X382579D03*
X380610D03*
X378642D03*
X376673D03*
X374705D03*
X372736D03*
Y328287D03*
X374705D03*
X376673D03*
X378642D03*
X380610D03*
X382579D03*
X384547D03*
X386516D03*
X388484D03*
X390453D03*
X392421D03*
X394390D03*
X396358D03*
X398327D03*
X400295D03*
X402264D03*
G54D13*
X363287Y367264D03*
Y365295D03*
Y363327D03*
Y361358D03*
Y359390D03*
Y357421D03*
Y355453D03*
Y353484D03*
Y351516D03*
Y349547D03*
Y347579D03*
Y345610D03*
Y343642D03*
Y341673D03*
Y339705D03*
Y337736D03*
X411713D03*
Y339705D03*
Y341673D03*
Y343642D03*
Y345610D03*
Y347579D03*
Y349547D03*
Y351516D03*
Y353484D03*
Y355453D03*
Y357421D03*
Y359390D03*
Y361358D03*
Y363327D03*
Y365295D03*
Y367264D03*
X195374Y338878D03*
X179626D03*
X195374Y340846D03*
X179626D03*
X195374Y342815D03*
X179626D03*
X195374Y344783D03*
X179626D03*
X195374Y346752D03*
X179626D03*
X195374Y348720D03*
X179626D03*
X195374Y350689D03*
X179626D03*
X195374Y352657D03*
X179626D03*
X195374Y354626D03*
X179626D03*
X195374Y356594D03*
X179626D03*
X195374Y358563D03*
X179626D03*
X195374Y360531D03*
X179626D03*
X195374Y362500D03*
X179626D03*
X195374Y364469D03*
X179626D03*
X195374Y366437D03*
X179626D03*
X195374Y368406D03*
X179626D03*
X195374Y370374D03*
X179626D03*
X195374Y372343D03*
X179626D03*
X195374Y374311D03*
X179626D03*
X195374Y376280D03*
X179626D03*
X195374Y378248D03*
X179626D03*
X195374Y380217D03*
X179626D03*
X195374Y382185D03*
X179626D03*
X195374Y384154D03*
X179626D03*
X195374Y386122D03*
X179626D03*
G54D14*
X403152Y393865D03*
X275519Y347556D03*
X275517Y299790D03*
X275000Y395000D03*
X356243Y300729D03*
G54D15*
X393152Y393865D03*
X383152D03*
X373152D03*
X265519Y347556D03*
X255519D03*
X265517Y299790D03*
X255517D03*
X265000Y395000D03*
X255000D03*
X366243Y300729D03*
X376243D03*
X386243D03*
X396243D03*
X406243D03*
X416243D03*
X426243D03*
G54D16*
X212503Y313698D03*
X217503D03*
X222503D03*
X227503D03*
Y336298D03*
X222503D03*
X217503D03*
X212503D03*
X212500Y363700D03*
X217500D03*
X222500D03*
X227500D03*
Y386300D03*
X222500D03*
X217500D03*
X212500D03*
G54D17*
X427500Y368661D03*
Y364331D03*
Y360000D03*
Y355669D03*
Y351339D03*
Y347008D03*
Y342677D03*
Y338346D03*
Y334016D03*
G54D18*
X429469Y327717D03*
Y386969D03*
G54D19*
X467264Y329882D03*
Y390118D03*
G54D20*
X468839Y372008D03*
Y340512D03*
G54D21*
X437500Y313100D03*
Y306900D03*
X447500Y313100D03*
Y306900D03*
X457500Y313100D03*
Y306900D03*
X467500Y313100D03*
Y306900D03*
X477500Y313100D03*
Y306900D03*
X242500Y359400D03*
Y365600D03*
Y389400D03*
Y395600D03*
Y374400D03*
Y380600D03*
Y309400D03*
Y315600D03*
Y339400D03*
Y345600D03*
Y324400D03*
Y330600D03*
G54D22*
X330000Y355000D03*
Y382500D03*
Y302500D03*
Y330000D03*
G54D23*
Y358937D03*
Y362874D03*
X318976D03*
Y358937D03*
Y355000D03*
X330000Y386437D03*
Y390374D03*
X318976D03*
Y386437D03*
Y382500D03*
X330000Y306437D03*
Y310374D03*
X318976D03*
Y306437D03*
Y302500D03*
X330000Y333937D03*
Y337874D03*
X318976D03*
Y333937D03*
Y330000D03*
G54D24*
X254750Y362500D03*
X280250D03*
X254750Y380000D03*
X280250D03*
X254750Y315000D03*
X280250D03*
X254750Y332500D03*
X280250D03*
G54D25*
X222503Y305655D02*
Y303997D01*
X226500Y300000*
X226900*
X222503Y305655D02*
X230891D01*
X234636Y309400*
X242500*
X222503Y305655D02*
Y313698D01*
X233100Y300000D02*
X243654D01*
X243864Y299790*
X255517*
X242500Y324400D02*
X249650D01*
X254750Y329500*
Y332500*
X227503Y336298D02*
X233301D01*
X236402Y339400*
X242500*
Y330600*
Y345600D02*
X249803Y352903D01*
X270172*
X275519Y347556*
X222500Y358973D02*
Y356500D01*
X226500Y352500*
X226900*
X222500Y358973D02*
X223573Y357900D01*
X233133*
X234633Y359400*
X242500*
X222500Y358973D02*
Y363700D01*
X233100Y352500D02*
X244309D01*
X249400Y357591*
X254750Y357827*
Y362500*
X227500Y386300D02*
X233300D01*
X236400Y389400*
X242500*
Y380600*
Y374400D02*
X246100D01*
X249400Y377700*
X254750*
Y380000*
X242500Y395600D02*
Y396000D01*
X247738Y401238*
X268762*
X275000Y395000*
G54D26*
X255517Y299790D02*
X260609Y294699D01*
X293699*
X299000Y300000*
X299400*
X318775Y303896D02*
Y303925D01*
X318976Y304126*
Y306437*
X318775Y303896D02*
X318976Y303695D01*
Y302500*
X330000D02*
X339400D01*
X345600D02*
Y307529D01*
X379354Y341283*
X339400Y302500D02*
Y309400D01*
X340600Y310600*
Y317500*
X280250Y315000D02*
X291500D01*
X299000Y307500*
X299400*
X314714Y307766D02*
X317311Y307118D01*
X317311D02*
X318976D01*
Y306437*
X305600Y315000D02*
X310000D01*
X312500Y317500*
X316900*
Y314816*
X316900D02*
X318976Y312740D01*
X318976D02*
Y310374D01*
X305600Y307500D02*
Y306728D01*
X311404*
X313054Y305078*
Y300510*
X315148Y298416*
X322254*
X324284Y300446*
Y308568*
X326091Y310374*
X330000*
X323100Y317500D02*
X334400D01*
X433367Y307893D02*
Y307511D01*
X437500*
Y306900*
X217385Y341339D02*
X217503Y341220D01*
Y336298*
X217385Y341339D02*
Y342027D01*
X217385D02*
X217497Y342139D01*
X217386Y342250D02*
X217497Y342139D01*
X212021Y342003D02*
X212503Y338798D01*
Y336298*
X254750Y332500D02*
Y329500D01*
X260500Y323750*
X292750*
X299000Y330000*
X299400*
X280250Y332500D02*
X288000D01*
X293000Y337500*
X299400*
X314968Y331878D02*
X318644Y330000D01*
X318976*
X314968Y331878D02*
X318468Y333937D01*
X318976*
X305600Y345000D02*
X316900D01*
Y342316*
X316900D02*
X318976Y340240D01*
X318976D02*
Y337874D01*
X305600Y337500D02*
X308700D01*
X308826Y337374*
X310769*
X312356Y335788*
Y328428*
X314450Y326334*
X322889*
X324538Y327984*
Y336550*
X325863Y337874*
X330000*
X323100Y345000D02*
X334400D01*
X330000Y330000D02*
X339400D01*
X345600D02*
X365808D01*
X376673Y340865*
Y376713*
X339400Y330000D02*
Y336900D01*
X340600Y338100*
Y345000*
X374705Y328287D02*
Y333401D01*
X392819Y351516*
X411713Y341673D02*
X417944D01*
X421773Y345502*
Y350255*
X422857Y351339*
X427500*
X420344Y340201D02*
X422764Y342620D01*
X427500*
Y342677*
Y338346D02*
X433174D01*
X437500Y334020*
Y313100*
X427500Y342677D02*
X436506D01*
X447500Y331684*
Y313100*
X254750Y362500D02*
Y358913D01*
X254750D02*
X270363D01*
X270363D02*
X275132Y354143D01*
X280113*
X281756Y352500*
X299400*
X280250Y362500D02*
X289250D01*
X291750Y360000*
X299400*
X313699Y362334D02*
Y360949D01*
X315711Y358937*
X315711D02*
X318976D01*
X305600Y360000D02*
X309196D01*
X309222Y360026*
X311404*
X313054Y358377*
Y353998*
X315528Y351524*
X323142*
X324538Y352920*
Y360978*
X326434Y362874*
X330000*
X318976Y355000D02*
Y358937D01*
X330000Y355000D02*
X339400D01*
X345600D02*
Y364993D01*
X365224Y384617*
X381020*
X382579Y383058*
Y376713*
X339400Y355000D02*
Y361900D01*
X340600Y363100*
Y370000*
X363287Y353484D02*
X369218D01*
Y353261*
X392819Y351516D02*
X411713D01*
Y363327D02*
X419301D01*
X420305Y364331*
X427500*
X411713Y353484D02*
X417667D01*
Y353380*
X411713Y347579D02*
X418030D01*
X420173Y349721*
Y358208*
X421531Y359567*
X427500*
Y360000*
X436700*
X457500Y339200*
Y313100*
X427500Y364331D02*
X441441D01*
X461036Y344736*
Y319964*
X467500Y313500*
Y313100*
X212500Y386300D02*
Y388800D01*
X223808Y400108*
X234818*
X254750Y380000D02*
Y377000D01*
X260332Y371418*
X287918*
X299000Y382500*
X299400*
X280250Y380000D02*
Y383000D01*
X287250Y390000*
X299400*
X305600Y367500D02*
X310000D01*
X312500Y370000*
X316900*
Y367316*
X316900D02*
X318976Y365240D01*
X318976D02*
Y362874D01*
Y382500D02*
Y386437D01*
X330000Y382500D02*
X339400D01*
X323100Y370000D02*
X334400D01*
X345600Y382500D02*
X359726D01*
X360408Y383182*
X339400Y382500D02*
Y389400D01*
X340600Y390600*
Y397500*
X364393Y379696D02*
X367281Y382585D01*
X380033*
X380630Y381987*
X386768Y382967D02*
X386869Y383907D01*
Y383489*
X388484Y381874*
Y376713*
X378642D02*
Y357636D01*
X379354Y356923*
Y341283*
X380610Y376713D02*
Y381858D01*
X380630Y381878*
Y381987*
X388484Y376713D02*
Y355851D01*
X392819Y351516*
X427500Y368661D02*
X448604D01*
X477500Y339766*
Y313100*
X313953Y390189D02*
X314146D01*
Y387331*
X315349Y386128*
X318976*
Y386437*
X305600Y397500D02*
X316900D01*
X305600Y390000D02*
X309666D01*
X312546Y387120*
Y379252*
X314957Y376841*
X321746*
X324729Y379823*
X316900Y397500D02*
Y394816D01*
X316900D02*
X318976Y392740D01*
X318976D02*
Y390374D01*
X324538Y389277D02*
X325635Y390374D01*
X330000*
X324538Y389277D02*
X324729Y389087D01*
Y379823*
X323100Y397500D02*
X334400D01*
X383152Y393865D02*
X386731Y390286D01*
X386768Y382967*
X251111Y397789D02*
Y374170D01*
X258994*
Y397789*
X251111*
X261707Y397702D02*
Y390755D01*
X277201Y375261*
X278387Y374075*
X283105*
Y386217*
X280384Y388938*
X271533*
X268527Y391943*
Y395290*
X266116Y397702*
X261707*
X251774Y349813D02*
Y327289D01*
X257793*
X259499Y328995*
Y347584*
X257269Y349813*
X251774*
X262814Y349266D02*
Y342224D01*
X277781Y327257*
X283134*
Y338574*
X280159Y341549*
X272513*
X268873Y345189*
Y347711*
X267318Y349266*
X262814*
X251962Y320419D02*
Y298918D01*
X254049Y296832*
X257029*
X259290Y299093*
Y320863*
X252152*
Y320419*
X251962*
X262812Y306852D02*
Y299109D01*
X264899Y297022*
X268069*
X269886Y298839*
Y304248*
X273566Y307928*
X281584*
X282866Y309209*
Y320927*
X276545*
X262812Y306852*
X175733Y384118D02*
X183973D01*
X184778Y384922*
X187440Y384896*
X188200Y384106*
X199201*
X200368Y385272*
Y393816*
X198567Y395617*
X177471*
X175194Y393341*
Y385260*
X175733*
Y384118*
X251760Y368178D02*
Y356700D01*
X257727*
X261568Y360542*
Y367250*
X260641Y368178*
X251760*
X278154Y368551D02*
X272281D01*
Y361488*
X276969Y356800*
X282936*
Y368352*
X278154*
Y368551*
X251111Y397569D02*
X258994D01*
X251111Y396669D02*
X258994D01*
X251111Y395769D02*
X258994D01*
X251111Y394869D02*
X258994D01*
X251111Y393969D02*
X258994D01*
X251111Y393069D02*
X258994D01*
X251111Y392169D02*
X258994D01*
X251111Y391269D02*
X258994D01*
X251111Y390369D02*
X258994D01*
X251111Y389469D02*
X258994D01*
X251111Y388569D02*
X258994D01*
X251111Y387669D02*
X258994D01*
X251111Y386769D02*
X258994D01*
X251111Y385869D02*
X258994D01*
X251111Y384969D02*
X258994D01*
X251111Y384069D02*
X258994D01*
X251111Y383169D02*
X258994D01*
X251111Y382269D02*
X258994D01*
X251111Y381369D02*
X258994D01*
X251111Y380469D02*
X258994D01*
X251111Y379569D02*
X258994D01*
X251111Y378669D02*
X258994D01*
X251111Y377769D02*
X258994D01*
X251111Y376869D02*
X258994D01*
X251111Y375969D02*
X258994D01*
X251111Y375069D02*
X258994D01*
X266689Y385774D02*
X283105D01*
X267589Y384874D02*
X283105D01*
X268489Y383974D02*
X283105D01*
X269389Y383074D02*
X283105D01*
X270289Y382174D02*
X283105D01*
X271189Y381274D02*
X283105D01*
X272089Y380374D02*
X283105D01*
X272989Y379474D02*
X283105D01*
X273889Y378574D02*
X283105D01*
X274789Y377674D02*
X283105D01*
X275689Y376774D02*
X283105D01*
X276589Y375874D02*
X283105D01*
X277489Y374974D02*
X283105D01*
X265789Y386674D02*
X282648D01*
X264889Y387574D02*
X281748D01*
X263989Y388474D02*
X280848D01*
X263089Y389374D02*
X271097D01*
X262189Y390274D02*
X270197D01*
X261707Y391174D02*
X269297D01*
X261707Y394774D02*
X268527D01*
X261707Y393874D02*
X268527D01*
X261707Y392974D02*
X268527D01*
X261707Y392074D02*
X268527D01*
X261707Y395674D02*
X268144D01*
X261707Y396574D02*
X267244D01*
X261707Y397474D02*
X266344D01*
X251774Y347087D02*
X259499D01*
X251774Y346187D02*
X259499D01*
X251774Y345287D02*
X259499D01*
X251774Y344387D02*
X259499D01*
X251774Y343487D02*
X259499D01*
X251774Y342587D02*
X259499D01*
X251774Y341687D02*
X259499D01*
X251774Y340787D02*
X259499D01*
X251774Y339887D02*
X259499D01*
X251774Y338987D02*
X259499D01*
X251774Y338087D02*
X259499D01*
X251774Y337187D02*
X259499D01*
X251774Y336287D02*
X259499D01*
X251774Y335387D02*
X259499D01*
X251774Y334487D02*
X259499D01*
X251774Y333587D02*
X259499D01*
X251774Y332687D02*
X259499D01*
X251774Y331787D02*
X259499D01*
X251774Y330887D02*
X259499D01*
X251774Y329987D02*
X259499D01*
X251774Y329087D02*
X259499D01*
X251774Y347987D02*
X259095D01*
X251774Y328187D02*
X258691D01*
X251774Y348887D02*
X258195D01*
X251774Y349787D02*
X257295D01*
X266983Y338056D02*
X283134D01*
X267883Y337156D02*
X283134D01*
X268783Y336256D02*
X283134D01*
X269683Y335356D02*
X283134D01*
X270583Y334456D02*
X283134D01*
X271483Y333556D02*
X283134D01*
X272383Y332656D02*
X283134D01*
X273283Y331756D02*
X283134D01*
X274183Y330856D02*
X283134D01*
X275083Y329956D02*
X283134D01*
X275983Y329056D02*
X283134D01*
X276883Y328156D02*
X283134D01*
X266083Y338956D02*
X282752D01*
X265183Y339856D02*
X281852D01*
X264283Y340756D02*
X280952D01*
X263383Y341656D02*
X272406D01*
X262814Y342556D02*
X271506D01*
X262814Y343456D02*
X270606D01*
X262814Y344356D02*
X269706D01*
X262814Y347056D02*
X268873D01*
X262814Y346156D02*
X268873D01*
X262814Y345256D02*
X268873D01*
X262814Y347956D02*
X268628D01*
X262814Y348856D02*
X267728D01*
X251962Y320231D02*
X259290D01*
X251962Y319331D02*
X259290D01*
X251962Y318431D02*
X259290D01*
X251962Y317531D02*
X259290D01*
X251962Y316631D02*
X259290D01*
X251962Y315731D02*
X259290D01*
X251962Y314831D02*
X259290D01*
X251962Y313931D02*
X259290D01*
X251962Y313031D02*
X259290D01*
X251962Y312131D02*
X259290D01*
X251962Y311231D02*
X259290D01*
X251962Y310331D02*
X259290D01*
X251962Y309431D02*
X259290D01*
X251962Y308531D02*
X259290D01*
X251962Y307631D02*
X259290D01*
X251962Y306731D02*
X259290D01*
X251962Y305831D02*
X259290D01*
X251962Y304931D02*
X259290D01*
X251962Y304031D02*
X259290D01*
X251962Y303131D02*
X259290D01*
X251962Y302231D02*
X259290D01*
X251962Y301331D02*
X259290D01*
X251962Y300431D02*
X259290D01*
X251962Y299531D02*
X259290D01*
X252250Y298631D02*
X258828D01*
X253150Y297731D02*
X257928D01*
X276052Y320421D02*
X282866D01*
X275174Y319521D02*
X282866D01*
X274296Y318621D02*
X282866D01*
X273418Y317721D02*
X282866D01*
X272539Y316821D02*
X282866D01*
X271661Y315921D02*
X282866D01*
X270783Y315021D02*
X282866D01*
X269905Y314121D02*
X282866D01*
X269027Y313221D02*
X282866D01*
X268149Y312321D02*
X282866D01*
X267271Y311421D02*
X282866D01*
X266392Y310521D02*
X282866D01*
X265514Y309621D02*
X282866D01*
X264636Y308721D02*
X282377D01*
X263758Y307821D02*
X273459D01*
X262880Y306921D02*
X272559D01*
X262812Y306021D02*
X271659D01*
X262812Y305121D02*
X270759D01*
X262812Y304221D02*
X269886D01*
X262812Y303321D02*
X269886D01*
X262812Y302421D02*
X269886D01*
X262812Y301521D02*
X269886D01*
X262812Y300621D02*
X269886D01*
X262812Y299721D02*
X269886D01*
X263100Y298821D02*
X269868D01*
X264000Y297921D02*
X268968D01*
X175194Y393105D02*
X200368D01*
X175194Y392205D02*
X200368D01*
X175194Y391305D02*
X200368D01*
X175194Y390405D02*
X200368D01*
X175194Y389505D02*
X200368D01*
X175194Y388605D02*
X200368D01*
X175194Y387705D02*
X200368D01*
X175194Y386805D02*
X200368D01*
X175194Y385905D02*
X200368D01*
X175858Y394005D02*
X200179D01*
X175733Y385005D02*
X200100D01*
X176758Y394905D02*
X199279D01*
X251760Y366599D02*
X261568D01*
X251760Y365699D02*
X261568D01*
X251760Y364799D02*
X261568D01*
X251760Y363899D02*
X261568D01*
X251760Y362999D02*
X261568D01*
X251760Y362099D02*
X261568D01*
X251760Y361199D02*
X261568D01*
X251760Y360299D02*
X261326D01*
X251760Y367499D02*
X261319D01*
X251760Y359399D02*
X260426D01*
X251760Y358499D02*
X259526D01*
X251760Y357599D02*
X258626D01*
X272281Y367599D02*
X282936D01*
X272281Y366699D02*
X282936D01*
X272281Y365799D02*
X282936D01*
X272281Y364899D02*
X282936D01*
X272281Y363999D02*
X282936D01*
X272281Y363099D02*
X282936D01*
X272281Y362199D02*
X282936D01*
X272470Y361299D02*
X282936D01*
X273370Y360399D02*
X282936D01*
X274270Y359499D02*
X282936D01*
X275170Y358599D02*
X282936D01*
X276070Y357699D02*
X282936D01*
X272281Y368499D02*
X278154D01*
X472451Y372008D02*
G75*
G03X472451I-3612J0D01*
G01X377252Y393865D02*
G03X377252I-4100J0D01*
G01X481400Y403400D02*
G03X480900Y403900I-500J-0D01*
G01X270984*
G03X270484Y403400I0J-500*
X270631Y403046I500J-0*
G01X274431Y399246*
G03X274784Y399100I353J354*
G01X278000*
X279100Y398000D02*
G03X278000Y399100I-1100J0D01*
G01X279100Y398000D02*
Y392000D01*
X278879Y391338D02*
G03X279100Y392000I-879J662D01*
G01X278879Y391338D02*
G03X278778Y391038I399J-300D01*
X279278Y390538I500J-0*
G01X280384*
X281516Y390069D02*
G03X280384Y390538I-1132J-1131D01*
G01X281516Y390069D02*
X282932Y388652D01*
G03X283639I354J354*
G01X286119Y391131*
X287250Y391600D02*
G03X286119Y391131I0J-1600D01*
G01X287250Y391600D02*
X296017D01*
G03X296480Y391913I-0J500*
G01X297500Y392600D02*
G03X296480Y391913I0J-1100D01*
G01X297500Y392600D02*
X301300D01*
X302125Y392228D02*
G03X301300Y392600I-825J-728D01*
G01X302125Y392228D02*
G03X302875I375J330D01*
G01X303700Y392600D02*
G03X302875Y392228I0J-1100D01*
G01X303700Y392600D02*
X307500D01*
X308520Y391913D02*
G03X307500Y392600I-1020J-413D01*
G01X308520Y391913D02*
G03X308983Y391600I463J187D01*
G01X309666*
X310797Y391131D02*
G03X309666Y391600I-1131J-1131D01*
G01X310797Y391131D02*
X310954Y390974D01*
G03X311767Y391130I354J354*
G01X315292Y392156D02*
G03X311767Y391130I-1339J-1967D01*
G01X315292Y392156D02*
G03X315960Y392252I281J413D01*
G01X316174Y392452D02*
G03X315960Y392252I636J-897D01*
G01X316174Y392452D02*
G03X316385Y392860I-289J408D01*
X316239Y393214I-500J0*
G01X315769Y393684*
X315330Y394505D02*
G03X315769Y393684I1570J311D01*
G01X315330Y394505D02*
G03X314890Y394905I-490J-97D01*
G01X313980Y395587D02*
G03X314890Y394906I1020J413D01*
G01X313980Y395587D02*
G03X313517Y395900I-463J-187D01*
G01X308983*
G03X308520Y395587I0J-500*
G01X307500Y394900D02*
G03X308520Y395587I0J1100D01*
G01X307500Y394900D02*
X303700D01*
X302875Y395272D02*
G03X303700Y394900I825J728D01*
G01X302875Y395272D02*
G03X302125I-375J-330D01*
G01X301300Y394900D02*
G03X302125Y395272I0J1100D01*
G01X301300Y394900D02*
X297500D01*
X296400Y396000D02*
G03X297500Y394900I1100J0D01*
G01X296400Y396000D02*
Y399000D01*
X297500Y400100D02*
G03X296400Y399000I0J-1100D01*
G01X297500Y400100D02*
X301300D01*
X302125Y399728D02*
G03X301300Y400100I-825J-728D01*
G01X302125Y399728D02*
G03X302875I375J330D01*
G01X303700Y400100D02*
G03X302875Y399728I0J-1100D01*
G01X303700Y400100D02*
X307500D01*
X308520Y399413D02*
G03X307500Y400100I-1020J-413D01*
G01X308520Y399413D02*
G03X308983Y399100I463J187D01*
G01X313517*
G03X313980Y399413I-0J500*
G01X315000Y400100D02*
G03X313980Y399413I0J-1100D01*
G01X315000Y400100D02*
X318800D01*
X319625Y399728D02*
G03X318800Y400100I-825J-728D01*
G01X319625Y399728D02*
G03X320375I375J330D01*
G01X321200Y400100D02*
G03X320375Y399728I0J-1100D01*
G01X321200Y400100D02*
X325000D01*
X326020Y399413D02*
G03X325000Y400100I-1020J-413D01*
G01X326020Y399413D02*
G03X326483Y399100I463J187D01*
G01X331017*
G03X331480Y399413I-0J500*
G01X332500Y400100D02*
G03X331480Y399413I0J-1100D01*
G01X332500Y400100D02*
X336300D01*
X337125Y399728D02*
G03X336300Y400100I-825J-728D01*
G01X337125Y399728D02*
G03X337875I375J330D01*
G01X338700Y400100D02*
G03X337875Y399728I0J-1100D01*
G01X338700Y400100D02*
X342500D01*
X343600Y399000D02*
G03X342500Y400100I-1100J0D01*
G01X343600Y399000D02*
Y396000D01*
X342638Y394909D02*
G03X343600Y396000I-138J1091D01*
G01X342638Y394909D02*
G03X342200Y394413I62J-496D01*
G01Y390600*
X341731Y389469D02*
G03X342200Y390600I-1131J1131D01*
G01X341731Y389469D02*
X341146Y388884D01*
G03X341000Y388530I354J-354*
G01Y385587*
G03X341438Y385091I500J0*
G01X342125Y384728D02*
G03X341438Y385091I-825J-728D01*
G01X342125Y384728D02*
G03X342875I375J330D01*
G01X343700Y385100D02*
G03X342875Y384728I0J-1100D01*
G01X343700Y385100D02*
X347500D01*
X348520Y384413D02*
G03X347500Y385100I-1020J-413D01*
G01X348520Y384413D02*
G03X348983Y384100I463J187D01*
G01X357902*
G03X358337Y384354I-0J500*
G01X362252Y384686D02*
G03X358337Y384354I-1844J-1504D01*
G01X362252Y384686D02*
G03X362993Y384649I387J316D01*
G01X364092Y385748*
X365224Y386217D02*
G03X364092Y385748I-0J-1600D01*
G01X365224Y386217D02*
X381020D01*
X382151Y385748D02*
G03X381020Y386217I-1131J-1131D01*
G01X382151Y385748D02*
X383710Y384189D01*
X383844Y384037D02*
G03X383710Y384189I-1265J-979D01*
G01X383844Y384037D02*
G03X384678Y384105I395J307D01*
G01X385024Y384586D02*
G03X384678Y384105I1744J-1619D01*
G01X385024Y384586D02*
G03X385158Y384926I-366J340D01*
G01Y384929*
X385135Y389414*
G03X384989Y389765I-500J-3*
G01X384914Y389839*
G03X384407Y389962I-353J-353*
G01X379052Y393865D02*
G03X384407Y389962I4100J-0D01*
G01X387252Y393865D02*
G03X379052I-4100J-0D01*
G01X387055Y392609D02*
G03X387252Y393865I-3903J1256D01*
G01X387055Y392609D02*
G03X387030Y392456I475J-153D01*
X387177Y392102I500J-0*
G01X387862Y391417*
X388331Y390294D02*
G03X387862Y391417I-1600J-8D01*
G01X388331Y390294D02*
X388358Y384945D01*
G03X388495Y384604I500J3*
G01X389045Y383660D02*
G03X388495Y384604I-2277J-693D01*
G01X389045Y383660D02*
G03X389169Y383452I478J145D01*
G01X389616Y383005*
X390058Y382160D02*
G03X389616Y383005I-1574J-286D01*
G01X390058Y382160D02*
G03X390550Y381750I492J90D01*
G01X390945*
X391283Y381696D02*
G03X390945Y381750I-338J-1046D01*
G01X391283Y381696D02*
G03X391591I154J476D01*
G01X391929Y381750D02*
G03X391591Y381696I0J-1100D01*
G01X391929Y381750D02*
X392913D01*
X393252Y381696D02*
G03X392913Y381750I-339J-1046D01*
G01X393252Y381696D02*
G03X393559I154J476D01*
G01X393898Y381750D02*
G03X393559Y381696I-0J-1100D01*
G01X393898Y381750D02*
X394882D01*
X395220Y381696D02*
G03X394882Y381750I-338J-1046D01*
G01X395220Y381696D02*
G03X395528I154J476D01*
G01X395866Y381750D02*
G03X395528Y381696I0J-1100D01*
G01X395866Y381750D02*
X396850D01*
X397189Y381696D02*
G03X396850Y381750I-339J-1046D01*
G01X397189Y381696D02*
G03X397496I154J476D01*
G01X397835Y381750D02*
G03X397496Y381696I-0J-1100D01*
G01X397835Y381750D02*
X398819D01*
X399157Y381696D02*
G03X398819Y381750I-338J-1046D01*
G01X399157Y381696D02*
G03X399465I154J476D01*
G01X399803Y381750D02*
G03X399465Y381696I0J-1100D01*
G01X399803Y381750D02*
X400787D01*
X401126Y381696D02*
G03X400787Y381750I-339J-1046D01*
G01X401126Y381696D02*
G03X401433I154J476D01*
G01X401772Y381750D02*
G03X401433Y381696I-0J-1100D01*
G01X401772Y381750D02*
X402756D01*
X403856Y380650D02*
G03X402756Y381750I-1100J-0D01*
G01X403856Y380650D02*
Y372776D01*
X402756Y371676D02*
G03X403856Y372776I-0J1100D01*
G01X402756Y371676D02*
X401772D01*
X401433Y371729D02*
G03X401772Y371676I339J1047D01*
G01X401433Y371729D02*
G03X401126I-153J-476D01*
G01X400787Y371676D02*
G03X401126Y371729I0J1100D01*
G01X400787Y371676D02*
X399803D01*
X399465Y371729D02*
G03X399803Y371676I338J1047D01*
G01X399465Y371729D02*
G03X399157I-154J-476D01*
G01X398819Y371676D02*
G03X399157Y371729I-0J1100D01*
G01X398819Y371676D02*
X397835D01*
X397496Y371729D02*
G03X397835Y371676I339J1047D01*
G01X397496Y371729D02*
G03X397189I-153J-476D01*
G01X396850Y371676D02*
G03X397189Y371729I0J1100D01*
G01X396850Y371676D02*
X395866D01*
X395528Y371729D02*
G03X395866Y371676I338J1047D01*
G01X395528Y371729D02*
G03X395220I-154J-476D01*
G01X394882Y371676D02*
G03X395220Y371729I-0J1100D01*
G01X394882Y371676D02*
X393898D01*
X393559Y371729D02*
G03X393898Y371676I339J1047D01*
G01X393559Y371729D02*
G03X393252I-153J-476D01*
G01X392913Y371676D02*
G03X393252Y371729I0J1100D01*
G01X392913Y371676D02*
X391929D01*
X391591Y371729D02*
G03X391929Y371676I338J1047D01*
G01X391591Y371729D02*
G03X391283I-154J-476D01*
G01X390945Y371676D02*
G03X391283Y371729I-0J1100D01*
G01X390945Y371676D02*
X390584D01*
G03X390084Y371176I0J-500*
G01Y356721*
G03X390231Y356367I500J-0*
G01X393336Y353262*
G03X393689Y353116I353J354*
G01X406176*
G03X406676Y353616I-0J500*
G01Y353976*
X406729Y354315D02*
G03X406676Y353976I1047J-339D01*
G01X406729Y354315D02*
G03X406753Y354469I-476J154D01*
G01X406753D02*
G03X406729Y354622I-500J-0D01*
G01X406676Y354961D02*
G03X406729Y354622I1100J-0D01*
G01X406676Y354961D02*
Y355945D01*
X406729Y356283D02*
G03X406676Y355945I1047J-338D01*
G01X406729Y356283D02*
G03X406753Y356437I-476J154D01*
X406729Y356591I-500J0*
G01X406676Y356929D02*
G03X406729Y356591I1100J0D01*
G01X406676Y356929D02*
Y357913D01*
X406729Y358252D02*
G03X406676Y357913I1047J-339D01*
G01X406729Y358252D02*
G03X406753Y358406I-476J154D01*
X406729Y358559I-500J-0*
G01X406676Y358898D02*
G03X406729Y358559I1100J-0D01*
G01X406676Y358898D02*
Y359882D01*
X406729Y360220D02*
G03X406676Y359882I1047J-338D01*
G01X406729Y360220D02*
G03X406753Y360374I-476J154D01*
X406729Y360528I-500J0*
G01X406676Y360866D02*
G03X406729Y360528I1100J0D01*
G01X406676Y360866D02*
Y361850D01*
X406729Y362189D02*
G03X406676Y361850I1047J-339D01*
G01X406729Y362189D02*
G03X406753Y362343I-476J154D01*
X406729Y362496I-500J-0*
G01X406676Y362835D02*
G03X406729Y362496I1100J-0D01*
G01X406676Y362835D02*
Y363819D01*
X406729Y364157D02*
G03X406676Y363819I1047J-338D01*
G01X406729Y364157D02*
G03X406753Y364311I-476J154D01*
X406729Y364465I-500J0*
G01X406676Y364803D02*
G03X406729Y364465I1100J0D01*
G01X406676Y364803D02*
Y365787D01*
X406729Y366126D02*
G03X406676Y365787I1047J-339D01*
G01X406729Y366126D02*
G03X406753Y366280I-476J154D01*
X406729Y366433I-500J-0*
G01X406676Y366772D02*
G03X406729Y366433I1100J-0D01*
G01X406676Y366772D02*
Y367756D01*
X407776Y368856D02*
G03X406676Y367756I-0J-1100D01*
G01X407776Y368856D02*
X415650D01*
X416750Y367756D02*
G03X415650Y368856I-1100J-0D01*
G01X416750Y367756D02*
Y366772D01*
X416696Y366433D02*
G03X416750Y366772I-1046J339D01*
G01X416696Y366433D02*
G03X416672Y366280I476J-153D01*
X416696Y366126I500J-0*
G01X416750Y365787D02*
G03X416696Y366126I-1100J0D01*
G01X416750Y365787D02*
Y365427D01*
G03X417250Y364927I500J-0*
G01X418431*
G03X418785Y365073I0J500*
G01X419174Y365462*
X420305Y365931D02*
G03X419174Y365462I0J-1600D01*
G01X420305Y365931D02*
X422529D01*
G03X422975Y366205I-0J500*
G01X422999Y366250D02*
G03X422975Y366205I958J-541D01*
G01X422999Y366250D02*
G03X423064Y366496I-435J246D01*
X422999Y366742I-500J0*
G01X422857Y367283D02*
G03X422999Y366742I1100J0D01*
G01X422857Y367283D02*
Y370039D01*
X423957Y371139D02*
G03X422857Y370039I-0J-1100D01*
G01X423957Y371139D02*
X431043D01*
X432025Y370536D02*
G03X431043Y371139I-982J-497D01*
G01X432025Y370536D02*
G03X432471Y370261I446J225D01*
G01X448604*
X449736Y369793D02*
G03X448604Y370261I-1132J-1132D01*
G01X449736Y369793D02*
X478631Y340897D01*
X479100Y339766D02*
G03X478631Y340897I-1600J-0D01*
G01X479100Y339766D02*
Y316483D01*
G03X479413Y316020I500J0*
G01X480100Y315000D02*
G03X479413Y316020I-1100J0D01*
G01X480100Y315000D02*
Y311200D01*
X479728Y310375D02*
G03X480100Y311200I-728J825D01*
G01X479728Y310375D02*
G03X479558Y310000I330J-375D01*
X479728Y309625I500J0*
G01X480100Y308800D02*
G03X479728Y309625I-1100J0D01*
G01X480100Y308800D02*
Y305000D01*
X479000Y303900D02*
G03X480100Y305000I0J1100D01*
G01X479000Y303900D02*
X476000D01*
X475011Y304519D02*
G03X476000Y303900I989J481D01*
G01X475011Y304519D02*
G03X474561Y304800I-450J-219D01*
G01X470439*
G03X469989Y304519I-0J-500*
G01X469000Y303900D02*
G03X469989Y304519I0J1100D01*
G01X469000Y303900D02*
X466000D01*
X465011Y304519D02*
G03X466000Y303900I989J481D01*
G01X465011Y304519D02*
G03X464561Y304800I-450J-219D01*
G01X460439*
G03X459989Y304519I-0J-500*
G01X459000Y303900D02*
G03X459989Y304519I0J1100D01*
G01X459000Y303900D02*
X456000D01*
X455011Y304519D02*
G03X456000Y303900I989J481D01*
G01X455011Y304519D02*
G03X454561Y304800I-450J-219D01*
G01X450439*
G03X449989Y304519I-0J-500*
G01X449000Y303900D02*
G03X449989Y304519I0J1100D01*
G01X449000Y303900D02*
X446000D01*
X445011Y304519D02*
G03X446000Y303900I989J481D01*
G01X445011Y304519D02*
G03X444561Y304800I-450J-219D01*
G01X440439*
G03X439989Y304519I-0J-500*
G01X439000Y303900D02*
G03X439989Y304519I0J1100D01*
G01X439000Y303900D02*
X436000D01*
X434900Y305000D02*
G03X436000Y303900I1100J0D01*
G01X434900Y305000D02*
Y305205D01*
G03X434221Y305672I-500J0*
G01X430987Y307893D02*
G03X434221Y305672I2380J0D01*
G01X434347Y310062D02*
G03X430987Y307893I-980J-2169D01*
G01X434347Y310062D02*
G03X435053Y310517I206J455D01*
X435005Y310731I-500J0*
G01X434900Y311200D02*
G03X435005Y310731I1100J0D01*
G01X434900Y311200D02*
Y315000D01*
X435587Y316020D02*
G03X434900Y315000I413J-1020D01*
G01X435587Y316020D02*
G03X435900Y316483I-187J463D01*
G01Y333150*
G03X435754Y333504I-500J0*
G01X432858Y336399*
G03X432004Y336046I-354J-353*
X432048Y335842I500J-0*
G01X432143Y335394D02*
G03X432048Y335842I-1100J-0D01*
G01X432143Y335394D02*
Y332638D01*
X432133Y332484D02*
G03X432143Y332638I-1090J154D01*
G01X432133Y332484D02*
G03X432128Y332415I495J-69D01*
X432502Y331931I500J-0*
G01X433324Y330866D02*
G03X432502Y331931I-1100J0D01*
G01X433324Y330866D02*
Y324567D01*
X432224Y323467D02*
G03X433324Y324567I0J1100D01*
G01X432224Y323467D02*
X426713D01*
X425613Y324567D02*
G03X426713Y323467I1100J-0D01*
G01X425613Y324567D02*
Y330866D01*
X425619Y330984D02*
G03X425613Y330866I1094J-118D01*
G01X425619Y330984D02*
G03X425622Y331038I-497J54D01*
X425122Y331538I-500J-0*
G01X423957*
X422857Y332638D02*
G03X423957Y331538I1100J-0D01*
G01X422857Y332638D02*
Y335394D01*
X422999Y335935D02*
G03X422857Y335394I958J-541D01*
G01X422999Y335935D02*
G03X423064Y336181I-435J246D01*
X422999Y336427I-500J0*
G01X422857Y336969D02*
G03X422999Y336427I1100J-0D01*
G01X422857Y336969D02*
Y338141D01*
G03X422007Y338499I-500J-0*
G01X418022Y339682D02*
G03X422007Y338499I2322J519D01*
G01X418022Y339682D02*
G03X417534Y340073I-488J-109D01*
G01X417250*
G03X416750Y339573I-0J-500*
G01Y339213*
X416696Y338874D02*
G03X416750Y339213I-1046J339D01*
G01X416696Y338874D02*
G03X416672Y338720I476J-154D01*
X416696Y338567I500J0*
G01X416750Y338228D02*
G03X416696Y338567I-1100J0D01*
G01X416750Y338228D02*
Y337244D01*
X415650Y336144D02*
G03X416750Y337244I-0J1100D01*
G01X415650Y336144D02*
X407776D01*
X407569Y336164D02*
G03X407776Y336144I207J1080D01*
G01X407569Y336164D02*
G03X406976Y335672I-93J-492D01*
X407122Y335319I500J0*
G01X408433Y334008*
X408843Y333018D02*
G03X408433Y334008I-1400J0D01*
G01X408843Y333018D02*
Y310316D01*
G03X408989Y309963I500J0*
G01X414270Y304682*
G03X414800Y304567I354J353*
G01X420343Y300729D02*
G03X414800Y304567I-4100J0D01*
G01X412143Y300729D02*
G03X420343I4100J0D01*
G01X412405Y302172D02*
G03X412143Y300729I3838J-1443D01*
G01X412405Y302172D02*
G03X412437Y302348I-468J176D01*
X412290Y302702I-500J0*
G01X408496Y306496*
G03X407643Y306142I-353J-354*
G01Y304919*
G03X407936Y304463I500J-0*
G01X410343Y300729D02*
G03X407936Y304463I-4100J0D01*
G01X402143Y300729D02*
G03X410343I4100J0D01*
G01X404549Y304463D02*
G03X402143Y300729I1694J-3734D01*
G01X404549Y304463D02*
G03X404843Y304919I-206J456D01*
G01Y324144*
G03X403847Y324208I-500J-0*
G01X402756Y323250D02*
G03X403847Y324208I-0J1100D01*
G01X402756Y323250D02*
X401772D01*
X401433Y323304D02*
G03X401772Y323250I339J1046D01*
G01X401433Y323304D02*
G03X401126I-153J-476D01*
G01X400787Y323250D02*
G03X401126Y323304I0J1100D01*
G01X400787Y323250D02*
X399803D01*
X399465Y323304D02*
G03X399803Y323250I338J1046D01*
G01X399465Y323304D02*
G03X399157I-154J-476D01*
G01X398819Y323250D02*
G03X399157Y323304I-0J1100D01*
G01X398819Y323250D02*
X397835D01*
X397496Y323304D02*
G03X397835Y323250I339J1046D01*
G01X397496Y323304D02*
G03X397189I-153J-476D01*
G01X396850Y323250D02*
G03X397189Y323304I0J1100D01*
G01X396850Y323250D02*
X395866D01*
X395528Y323304D02*
G03X395866Y323250I338J1046D01*
G01X395528Y323304D02*
G03X395220I-154J-476D01*
G01X394882Y323250D02*
G03X395220Y323304I-0J1100D01*
G01X394882Y323250D02*
X393898D01*
X393559Y323304D02*
G03X393898Y323250I339J1046D01*
G01X393559Y323304D02*
G03X393252I-153J-476D01*
G01X392913Y323250D02*
G03X393252Y323304I0J1100D01*
G01X392913Y323250D02*
X391929D01*
X391591Y323304D02*
G03X391929Y323250I338J1046D01*
G01X391591Y323304D02*
G03X391283I-154J-476D01*
G01X390945Y323250D02*
G03X391283Y323304I-0J1100D01*
G01X390945Y323250D02*
X389961D01*
X389622Y323304D02*
G03X389961Y323250I339J1046D01*
G01X389622Y323304D02*
G03X389315I-153J-476D01*
G01X388976Y323250D02*
G03X389315Y323304I0J1100D01*
G01X388976Y323250D02*
X387992D01*
X387654Y323304D02*
G03X387992Y323250I338J1046D01*
G01X387654Y323304D02*
G03X387346I-154J-476D01*
G01X387008Y323250D02*
G03X387346Y323304I-0J1100D01*
G01X387008Y323250D02*
X386447D01*
G03X385947Y322750I0J-500*
G01Y314196*
G03X386094Y313843I500J0*
G01X395039Y304897*
G03X395485Y304759I354J353*
G01X400343Y300729D02*
G03X395485Y304759I-4100J0D01*
G01X392143Y300729D02*
G03X400343I4100J0D01*
G01X392686Y302769D02*
G03X392143Y300729I3557J-2040D01*
G01X392686Y302769D02*
G03X392752Y303017I-434J248D01*
X392605Y303371I-500J0*
G01X388496Y307480*
G03X387643Y307127I-353J-353*
G01Y304919*
G03X387936Y304463I500J-0*
G01X390343Y300729D02*
G03X387936Y304463I-4100J0D01*
G01X382143Y300729D02*
G03X390343I4100J0D01*
G01X384549Y304463D02*
G03X382143Y300729I1694J-3734D01*
G01X384549Y304463D02*
G03X384843Y304919I-206J456D01*
G01Y307120*
G03X384696Y307473I-500J-0*
G01X382134Y310035*
G03X381427I-354J-353*
G01X377789Y306397*
G03X377643Y306044I354J-353*
G01Y304919*
G03X377936Y304463I500J-0*
G01X380343Y300729D02*
G03X377936Y304463I-4100J0D01*
G01X372143Y300729D02*
G03X380343I4100J0D01*
G01X374549Y304463D02*
G03X372143Y300729I1694J-3734D01*
G01X374549Y304463D02*
G03X374843Y304919I-206J456D01*
G01Y306142*
G03X373989Y306496I-500J0*
G01X370195Y302702*
G03X370048Y302348I353J-354*
X370080Y302172I500J0*
G01X370343Y300729D02*
G03X370080Y302172I-4100J0D01*
G01X362143Y300729D02*
G03X370343I4100J0D01*
G01X367685Y304567D02*
G03X362143Y300729I-1442J-3838D01*
G01X367685Y304567D02*
G03X368215Y304682I176J468D01*
G01X377095Y313562*
G03X377242Y313916I-353J354*
G01Y322750*
G03X376742Y323250I-500J0*
G01X376181*
X375843Y323304D02*
G03X376181Y323250I338J1046D01*
G01X375843Y323304D02*
G03X375535I-154J-476D01*
G01X375197Y323250D02*
G03X375535Y323304I-0J1100D01*
G01X375197Y323250D02*
X374213D01*
X373874Y323304D02*
G03X374213Y323250I339J1046D01*
G01X373874Y323304D02*
G03X373567I-154J-476D01*
G01X373228Y323250D02*
G03X373567Y323304I0J1100D01*
G01X373228Y323250D02*
X372244D01*
X371144Y324350D02*
G03X372244Y323250I1100J0D01*
G01X371144Y324350D02*
Y329603D01*
G03X370291Y329957I-500J0*
G01X347346Y307013*
G03X347200Y306659I354J-354*
G01Y305587*
G03X347638Y305091I500J0*
G01X348600Y304000D02*
G03X347638Y305091I-1100J0D01*
G01X348600Y304000D02*
Y301000D01*
X347500Y299900D02*
G03X348600Y301000I0J1100D01*
G01X347500Y299900D02*
X343700D01*
X342875Y300272D02*
G03X343700Y299900I825J728D01*
G01X342875Y300272D02*
G03X342125I-375J-330D01*
G01X341300Y299900D02*
G03X342125Y300272I0J1100D01*
G01X341300Y299900D02*
X337500D01*
X336480Y300587D02*
G03X337500Y299900I1020J413D01*
G01X336480Y300587D02*
G03X336017Y300900I-463J-187D01*
G01X332808*
G03X332480Y300778I-0J-500*
G01X330984Y300219D02*
G03X332480Y300778I0J2281D01*
G01X330984Y300219D02*
X329016D01*
X326857Y301761D02*
G03X329016Y300219I2159J739D01*
G01X326857Y301761D02*
G03X325884Y301599I-473J-162D01*
G01Y300446*
X325416Y299315D02*
G03X325884Y300446I-1132J1131D01*
G01X325416Y299315D02*
X323385Y297284D01*
X322254Y296816D02*
G03X323385Y297284I0J1600D01*
G01X322254Y296816D02*
X315148D01*
X314016Y297284D02*
G03X315148Y296816I1132J1132D01*
G01X314016Y297284D02*
X311922Y299378D01*
X311454Y300510D02*
G03X311922Y299378I1600J-0D01*
G01X311454Y300510D02*
Y304208D01*
G03X311307Y304562I-500J0*
G01X310888Y304981*
G03X310534Y305128I-354J-353*
G01X308323*
G03X308066Y305057I-0J-500*
G01X307500Y304900D02*
G03X308066Y305057I0J1100D01*
G01X307500Y304900D02*
X303700D01*
X302875Y305272D02*
G03X303700Y304900I825J728D01*
G01X302875Y305272D02*
G03X302125I-375J-330D01*
G01X301300Y304900D02*
G03X302125Y305272I0J1100D01*
G01X301300Y304900D02*
X297500D01*
X296400Y306000D02*
G03X297500Y304900I1100J0D01*
G01X296400Y306000D02*
Y307630D01*
G03X296254Y307984I-500J0*
G01X290984Y313254*
G03X290630Y313400I-354J-354*
G01X285100*
G03X284600Y312900I0J-500*
G01Y308750*
X283710Y307670D02*
G03X284600Y308750I-210J1080D01*
G01X283710Y307670D02*
G03X283452Y307533I96J-490D01*
G01X282716Y306796*
X281584Y306328D02*
G03X282716Y306796I0J1600D01*
G01X281584Y306328D02*
X274436D01*
G03X274082Y306181I-0J-500*
G01X272645Y304744*
G03X272498Y304390I353J-354*
X272998Y303890I500J0*
G01X278517*
X279617Y302790D02*
G03X278517Y303890I-1100J0D01*
G01X279617Y302790D02*
Y296799D01*
G03X280117Y296299I500J-0*
G01X292829*
G03X293182Y296445I-0J500*
G01X296254Y299516*
G03X296400Y299870I-354J354*
G01Y301500*
X297500Y302600D02*
G03X296400Y301500I0J-1100D01*
G01X297500Y302600D02*
X301300D01*
X302125Y302228D02*
G03X301300Y302600I-825J-728D01*
G01X302125Y302228D02*
G03X302875I375J330D01*
G01X303700Y302600D02*
G03X302875Y302228I0J-1100D01*
G01X303700Y302600D02*
X307500D01*
X308600Y301500D02*
G03X307500Y302600I-1100J0D01*
G01X308600Y301500D02*
Y298500D01*
X307500Y297400D02*
G03X308600Y298500I0J1100D01*
G01X307500Y297400D02*
X303700D01*
X302875Y297772D02*
G03X303700Y297400I825J728D01*
G01X302875Y297772D02*
G03X302125I-375J-330D01*
G01X301300Y297400D02*
G03X302125Y297772I0J1100D01*
G01X301300Y297400D02*
X298870D01*
G03X298516Y297254I-0J-500*
G01X295716Y294454*
G03X295570Y294100I354J-354*
X296070Y293600I500J0*
G01X480900*
G03X481400Y294100I-0J500*
G01Y403400*
X451597Y335787D02*
G03X451451Y336140I-500J-0D01*
G01X434168Y353423*
G03X433815Y353569I-353J-354*
G01X432604*
G03X432104Y353069I-0J-500*
X432116Y352959I500J0*
G01X432143Y352717D02*
G03X432116Y352959I-1100J-0D01*
G01X432143Y352717D02*
Y349961D01*
X432001Y349419D02*
G03X432143Y349961I-958J542D01*
G01X432001Y349419D02*
G03X431936Y349173I435J-246D01*
X432001Y348927I500J0*
G01X432143Y348386D02*
G03X432001Y348927I-1100J-0D01*
G01X432143Y348386D02*
Y345630D01*
X432001Y345089D02*
G03X432143Y345630I-958J541D01*
G01X432001Y345089D02*
G03X431936Y344843I435J-246D01*
X432001Y344596I500J-0*
G01X432025Y344552D02*
G03X432001Y344596I-982J-497D01*
G01X432025Y344552D02*
G03X432471Y344277I446J225D01*
G01X436506*
X437638Y343809D02*
G03X436506Y344277I-1132J-1132D01*
G01X437638Y343809D02*
X448631Y332815D01*
X449100Y331684D02*
G03X448631Y332815I-1600J-0D01*
G01X449100Y331684D02*
Y316483D01*
G03X449413Y316020I500J0*
G01X450100Y315000D02*
G03X449413Y316020I-1100J0D01*
G01X450100Y315000D02*
Y311200D01*
X449728Y310375D02*
G03X450100Y311200I-728J825D01*
G01X449728Y310375D02*
G03X449558Y310000I330J-375D01*
X449728Y309625I500J0*
G01X449989Y309281D02*
G03X449728Y309625I-989J-481D01*
G01X449989Y309281D02*
G03X450439Y309000I450J219D01*
G01X451097*
G03X451597Y309500I0J500*
G01Y335787*
X406753Y348563D02*
G03X406729Y348717I-500J-0D01*
G01X406676Y349055D02*
G03X406729Y348717I1100J0D01*
G01X406676Y349055D02*
Y349416D01*
G03X406176Y349916I-500J-0*
G01X393689*
G03X393336Y349769I0J-500*
G01X377744Y334177*
G03X377597Y333824I353J-353*
X378114Y333324I500J-0*
G01X378150D02*
G03X378114I-0J-1100D01*
G01X378150D02*
X379134D01*
X379472Y333271D02*
G03X379134Y333324I-338J-1047D01*
G01X379472Y333271D02*
G03X379780I154J476D01*
G01X380118Y333324D02*
G03X379780Y333271I0J-1100D01*
G01X380118Y333324D02*
X381102D01*
X381441Y333271D02*
G03X381102Y333324I-339J-1047D01*
G01X381441Y333271D02*
G03X381748I153J476D01*
G01X382087Y333324D02*
G03X381748Y333271I-0J-1100D01*
G01X382087Y333324D02*
X383071D01*
X383409Y333271D02*
G03X383071Y333324I-338J-1047D01*
G01X383409Y333271D02*
G03X383717I154J476D01*
G01X384055Y333324D02*
G03X383717Y333271I0J-1100D01*
G01X384055Y333324D02*
X385039D01*
X385378Y333271D02*
G03X385039Y333324I-339J-1047D01*
G01X385378Y333271D02*
G03X385685I153J476D01*
G01X386024Y333324D02*
G03X385685Y333271I-0J-1100D01*
G01X386024Y333324D02*
X387008D01*
X387346Y333271D02*
G03X387008Y333324I-338J-1047D01*
G01X387346Y333271D02*
G03X387654I154J476D01*
G01X387992Y333324D02*
G03X387654Y333271I0J-1100D01*
G01X387992Y333324D02*
X388976D01*
X389315Y333271D02*
G03X388976Y333324I-339J-1047D01*
G01X389315Y333271D02*
G03X389622I154J476D01*
G01X389961Y333324D02*
G03X389622Y333271I-0J-1100D01*
G01X389961Y333324D02*
X390945D01*
X391283Y333271D02*
G03X390945Y333324I-338J-1047D01*
G01X391283Y333271D02*
G03X391591I154J476D01*
G01X391929Y333324D02*
G03X391591Y333271I0J-1100D01*
G01X391929Y333324D02*
X392913D01*
X393252Y333271D02*
G03X392913Y333324I-339J-1047D01*
G01X393252Y333271D02*
G03X393559I154J476D01*
G01X393898Y333324D02*
G03X393559Y333271I-0J-1100D01*
G01X393898Y333324D02*
X394882D01*
X395220Y333271D02*
G03X394882Y333324I-338J-1047D01*
G01X395220Y333271D02*
G03X395528I154J476D01*
G01X395866Y333324D02*
G03X395528Y333271I0J-1100D01*
G01X395866Y333324D02*
X396850D01*
X397189Y333271D02*
G03X396850Y333324I-339J-1047D01*
G01X397189Y333271D02*
G03X397496I154J476D01*
G01X397835Y333324D02*
G03X397496Y333271I-0J-1100D01*
G01X397835Y333324D02*
X398819D01*
X399157Y333271D02*
G03X398819Y333324I-338J-1047D01*
G01X399157Y333271D02*
G03X399465I154J476D01*
G01X399803Y333324D02*
G03X399465Y333271I0J-1100D01*
G01X399803Y333324D02*
X400787D01*
X401126Y333271D02*
G03X400787Y333324I-339J-1047D01*
G01X401126Y333271D02*
G03X401433I154J476D01*
G01X401772Y333324D02*
G03X401433Y333271I-0J-1100D01*
G01X401772Y333324D02*
X402199D01*
G03X402699Y333824I0J500*
X402553Y334178I-500J0*
G01X402297Y334434*
X401887Y335423D02*
G03X402297Y334434I1400J0D01*
G01X401887Y335423D02*
Y342441D01*
X402298Y343432D02*
G03X401887Y342441I989J-991D01*
G01X402298Y343432D02*
X405611Y346744D01*
X406287Y347119D02*
G03X405611Y346744I314J-1364D01*
G01X406287Y347119D02*
G03X406676Y347606I-111J487D01*
G01Y348071*
X406729Y348409D02*
G03X406676Y348071I1047J-338D01*
G01X406729Y348409D02*
G03X406753Y348563I-476J154D01*
G01X390350Y351516D02*
G03X390203Y351869I-500J-0D01*
G01X387353Y354720*
X386884Y355851D02*
G03X387353Y354720I1600J-0D01*
G01X386884Y355851D02*
Y371176D01*
G03X386384Y371676I-500J-0*
G01X386024*
X385685Y371729D02*
G03X386024Y371676I339J1047D01*
G01X385685Y371729D02*
G03X385378I-154J-476D01*
G01X385039Y371676D02*
G03X385378Y371729I0J1100D01*
G01X385039Y371676D02*
X384055D01*
X383717Y371729D02*
G03X384055Y371676I338J1047D01*
G01X383717Y371729D02*
G03X383409I-154J-476D01*
G01X383071Y371676D02*
G03X383409Y371729I-0J1100D01*
G01X383071Y371676D02*
X382087D01*
X381748Y371729D02*
G03X382087Y371676I339J1047D01*
G01X381748Y371729D02*
G03X381441I-154J-476D01*
G01X381102Y371676D02*
G03X381441Y371729I0J1100D01*
G01X381102Y371676D02*
X380742D01*
G03X380242Y371176I-0J-500*
G01Y358505*
G03X380388Y358152I500J0*
G01X380486Y358055*
X380954Y356923D02*
G03X380486Y358055I-1600J0D01*
G01X380954Y356923D02*
Y343120D01*
G03X381808Y342767I500J0*
G01X390203Y351162*
G03X390350Y351516I-353J354*
G01X375073Y371176D02*
G03X374573Y371676I-500J-0D01*
G01X374213*
X373874Y371729D02*
G03X374213Y371676I339J1047D01*
G01X373874Y371729D02*
G03X373567I-154J-476D01*
G01X373228Y371676D02*
G03X373567Y371729I0J1100D01*
G01X373228Y371676D02*
X372244D01*
X371144Y372776D02*
G03X372244Y371676I1100J-0D01*
G01X371144Y372776D02*
Y380485D01*
G03X370644Y380985I-500J-0*
G01X368151*
G03X367798Y380838I0J-500*
G01X366917Y379957*
G03X366771Y379620I354J-353*
G01X362312Y378541D02*
G03X366771Y379620I2081J1155D01*
G01X362312Y378541D02*
G03X361521Y378652I-437J-243D01*
G01X347346Y364477*
G03X347200Y364123I354J-354*
G01Y358087*
G03X347638Y357591I500J0*
G01X348600Y356500D02*
G03X347638Y357591I-1100J0D01*
G01X348600Y356500D02*
Y353500D01*
X347500Y352400D02*
G03X348600Y353500I0J1100D01*
G01X347500Y352400D02*
X343700D01*
X342875Y352772D02*
G03X343700Y352400I825J728D01*
G01X342875Y352772D02*
G03X342125I-375J-330D01*
G01X341300Y352400D02*
G03X342125Y352772I0J1100D01*
G01X341300Y352400D02*
X337500D01*
X336480Y353087D02*
G03X337500Y352400I1020J413D01*
G01X336480Y353087D02*
G03X336017Y353400I-463J-187D01*
G01X332808*
G03X332480Y353278I-0J-500*
G01X330984Y352719D02*
G03X332480Y353278I0J2281D01*
G01X330984Y352719D02*
X329016D01*
X327066Y353816D02*
G03X329016Y352719I1950J1184D01*
G01X327066Y353816D02*
G03X326138Y353557I-428J-259D01*
G01Y352920*
X325670Y351788D02*
G03X326138Y352920I-1132J1132D01*
G01X325670Y351788D02*
X324274Y350392D01*
X323142Y349924D02*
G03X324274Y350392I0J1600D01*
G01X323142Y349924D02*
X315528D01*
X314397Y350392D02*
G03X315528Y349924I1131J1132D01*
G01X314397Y350392D02*
X311922Y352867D01*
X311454Y353998D02*
G03X311922Y352867I1600J0D01*
G01X311454Y353998D02*
Y357507D01*
G03X311307Y357860I-500J-0*
G01X310888Y358280*
G03X310534Y358426I-354J-354*
G01X309527*
G03X309448Y358420I-0J-500*
G01X309196Y358400D02*
G03X309448Y358420I-0J1600D01*
G01X309196Y358400D02*
X308983D01*
G03X308520Y358087I0J-500*
G01X307500Y357400D02*
G03X308520Y358087I0J1100D01*
G01X307500Y357400D02*
X303700D01*
X302875Y357772D02*
G03X303700Y357400I825J728D01*
G01X302875Y357772D02*
G03X302125I-375J-330D01*
G01X301300Y357400D02*
G03X302125Y357772I0J1100D01*
G01X301300Y357400D02*
X297500D01*
X296480Y358087D02*
G03X297500Y357400I1020J413D01*
G01X296480Y358087D02*
G03X296017Y358400I-463J-187D01*
G01X291750*
X290619Y358869D02*
G03X291750Y358400I1131J1131D01*
G01X290619Y358869D02*
X288734Y360754D01*
G03X288380Y360900I-354J-354*
G01X285100*
G03X284600Y360400I0J-500*
G01Y356250*
X283500Y355150D02*
G03X284600Y356250I0J1100D01*
G01X283500Y355150D02*
X282576D01*
G03X282076Y354650I0J-500*
X282223Y354296I500J-0*
G01X282273Y354246*
G03X282626Y354100I353J354*
G01X296017*
G03X296480Y354413I-0J500*
G01X297500Y355100D02*
G03X296480Y354413I0J-1100D01*
G01X297500Y355100D02*
X301300D01*
X302125Y354728D02*
G03X301300Y355100I-825J-728D01*
G01X302125Y354728D02*
G03X302875I375J330D01*
G01X303700Y355100D02*
G03X302875Y354728I0J-1100D01*
G01X303700Y355100D02*
X307500D01*
X308600Y354000D02*
G03X307500Y355100I-1100J0D01*
G01X308600Y354000D02*
Y351000D01*
X307500Y349900D02*
G03X308600Y351000I0J1100D01*
G01X307500Y349900D02*
X303700D01*
X302875Y350272D02*
G03X303700Y349900I825J728D01*
G01X302875Y350272D02*
G03X302125I-375J-330D01*
G01X301300Y349900D02*
G03X302125Y350272I0J1100D01*
G01X301300Y349900D02*
X297500D01*
X296480Y350587D02*
G03X297500Y349900I1020J413D01*
G01X296480Y350587D02*
G03X296017Y350900I-463J-187D01*
G01X281756*
X280625Y351369D02*
G03X281756Y350900I1131J1131D01*
G01X280625Y351369D02*
X280218Y351775D01*
G03X279885Y351921I-353J-353*
X279739Y352255I-500J-20*
G01X279597Y352397*
G03X279243Y352543I-354J-354*
G01X279108*
G03X278608Y352043I0J-500*
X278924Y351579I500J0*
G01X279115Y351481D02*
G03X278924Y351579I-596J-925D01*
G01X279115Y351481D02*
G03X279365Y351402I270J420D01*
X279444Y351151I500J20*
G01X279619Y350556D02*
G03X279444Y351151I-1100J-0D01*
G01X279619Y350556D02*
Y344556D01*
X279425Y343932D02*
G03X279619Y344556I-906J624D01*
G01X279425Y343932D02*
G03X279337Y343649I412J-283D01*
X279837Y343149I500J-0*
G01X280159*
X281290Y342680D02*
G03X280159Y343149I-1131J-1131D01*
G01X281290Y342680D02*
X284265Y339705D01*
X284734Y338574D02*
G03X284265Y339705I-1600J-0D01*
G01X284734Y338574D02*
Y334600D01*
G03X285234Y334100I500J0*
G01X287130*
G03X287484Y334246I0J500*
G01X291869Y338631*
X293000Y339100D02*
G03X291869Y338631I0J-1600D01*
G01X293000Y339100D02*
X296017D01*
G03X296480Y339413I-0J500*
G01X297500Y340100D02*
G03X296480Y339413I0J-1100D01*
G01X297500Y340100D02*
X301300D01*
X302125Y339728D02*
G03X301300Y340100I-825J-728D01*
G01X302125Y339728D02*
G03X302875I375J330D01*
G01X303700Y340100D02*
G03X302875Y339728I0J-1100D01*
G01X303700Y340100D02*
X307500D01*
X308525Y339399D02*
G03X307500Y340100I-1025J-399D01*
G01X308525Y339399D02*
G03X308922Y339085I466J181D01*
G01X309245Y339004D02*
G03X308922Y339085I-545J-1504D01*
G01X309245Y339004D02*
G03X309415Y338974I170J470D01*
G01X310769*
X311901Y338506D02*
G03X310769Y338974I-1132J-1132D01*
G01X311901Y338506D02*
X313487Y336919D01*
X313956Y335788D02*
G03X313487Y336919I-1600J0D01*
G01X313956Y335788D02*
Y334711D01*
G03X314545Y334219I500J0*
G01X315168Y334249D02*
G03X314545Y334219I-200J-2371D01*
G01X315168Y334249D02*
G03X315710Y334747I42J498D01*
G01Y335118*
X315853Y335659D02*
G03X315710Y335118I958J-541D01*
G01X315853Y335659D02*
G03X315918Y335905I-435J246D01*
G01Y335906*
X315918D02*
G03X315853Y336152I-500J-0D01*
G01X315710Y336693D02*
G03X315853Y336152I1101J0D01*
G01X315710Y336693D02*
Y339055D01*
X316174Y339952D02*
G03X315710Y339055I637J-897D01*
G01X316174Y339952D02*
G03X316385Y340360I-289J408D01*
X316239Y340714I-500J0*
G01X315769Y341184*
X315330Y342005D02*
G03X315769Y341184I1570J311D01*
G01X315330Y342005D02*
G03X314890Y342405I-490J-97D01*
G01X313980Y343087D02*
G03X314890Y342406I1020J413D01*
G01X313980Y343087D02*
G03X313517Y343400I-463J-187D01*
G01X308983*
G03X308520Y343087I0J-500*
G01X307500Y342400D02*
G03X308520Y343087I0J1100D01*
G01X307500Y342400D02*
X303700D01*
X302875Y342772D02*
G03X303700Y342400I825J728D01*
G01X302875Y342772D02*
G03X302125I-375J-330D01*
G01X301300Y342400D02*
G03X302125Y342772I0J1100D01*
G01X301300Y342400D02*
X297500D01*
X296400Y343500D02*
G03X297500Y342400I1100J0D01*
G01X296400Y343500D02*
Y346500D01*
X297500Y347600D02*
G03X296400Y346500I0J-1100D01*
G01X297500Y347600D02*
X301300D01*
X302125Y347228D02*
G03X301300Y347600I-825J-728D01*
G01X302125Y347228D02*
G03X302875I375J330D01*
G01X303700Y347600D02*
G03X302875Y347228I0J-1100D01*
G01X303700Y347600D02*
X307500D01*
X308520Y346913D02*
G03X307500Y347600I-1020J-413D01*
G01X308520Y346913D02*
G03X308983Y346600I463J187D01*
G01X313517*
G03X313980Y346913I-0J500*
G01X315000Y347600D02*
G03X313980Y346913I0J-1100D01*
G01X315000Y347600D02*
X318800D01*
X319625Y347228D02*
G03X318800Y347600I-825J-728D01*
G01X319625Y347228D02*
G03X320375I375J330D01*
G01X321200Y347600D02*
G03X320375Y347228I0J-1100D01*
G01X321200Y347600D02*
X325000D01*
X326020Y346913D02*
G03X325000Y347600I-1020J-413D01*
G01X326020Y346913D02*
G03X326483Y346600I463J187D01*
G01X331017*
G03X331480Y346913I-0J500*
G01X332500Y347600D02*
G03X331480Y346913I0J-1100D01*
G01X332500Y347600D02*
X336300D01*
X337125Y347228D02*
G03X336300Y347600I-825J-728D01*
G01X337125Y347228D02*
G03X337875I375J330D01*
G01X338700Y347600D02*
G03X337875Y347228I0J-1100D01*
G01X338700Y347600D02*
X342500D01*
X343600Y346500D02*
G03X342500Y347600I-1100J0D01*
G01X343600Y346500D02*
Y343500D01*
X342638Y342409D02*
G03X343600Y343500I-138J1091D01*
G01X342638Y342409D02*
G03X342200Y341913I62J-496D01*
G01Y338100*
X341731Y336969D02*
G03X342200Y338100I-1131J1131D01*
G01X341731Y336969D02*
X341146Y336384D01*
G03X341000Y336030I354J-354*
G01Y333087*
G03X341438Y332591I500J0*
G01X342125Y332228D02*
G03X341438Y332591I-825J-728D01*
G01X342125Y332228D02*
G03X342875I375J330D01*
G01X343700Y332600D02*
G03X342875Y332228I0J-1100D01*
G01X343700Y332600D02*
X347500D01*
X348520Y331913D02*
G03X347500Y332600I-1020J-413D01*
G01X348520Y331913D02*
G03X348983Y331600I463J187D01*
G01X364938*
G03X365292Y331746I0J500*
G01X369028Y335483*
G03X369175Y335836I-353J353*
X368675Y336336I-500J0*
G01X367985*
G03X367747Y336276I-0J-500*
G01X367224Y336144D02*
G03X367747Y336276I0J1100D01*
G01X367224Y336144D02*
X359350D01*
X358250Y337244D02*
G03X359350Y336144I1100J0D01*
G01X358250Y337244D02*
Y338228D01*
X358304Y338567D02*
G03X358250Y338228I1046J-339D01*
G01X358304Y338567D02*
G03X358328Y338720I-476J153D01*
X358304Y338874I-500J0*
G01X358250Y339213D02*
G03X358304Y338874I1100J-0D01*
G01X358250Y339213D02*
Y340197D01*
X358304Y340535D02*
G03X358250Y340197I1046J-338D01*
G01X358304Y340535D02*
G03X358328Y340689I-476J154D01*
X358304Y340843I-500J-0*
G01X358250Y341181D02*
G03X358304Y340843I1100J0D01*
G01X358250Y341181D02*
Y342165D01*
X358304Y342504D02*
G03X358250Y342165I1046J-339D01*
G01X358304Y342504D02*
G03X358328Y342657I-476J153D01*
X358304Y342811I-500J0*
G01X358250Y343150D02*
G03X358304Y342811I1100J-0D01*
G01X358250Y343150D02*
Y344134D01*
X358304Y344472D02*
G03X358250Y344134I1046J-338D01*
G01X358304Y344472D02*
G03X358328Y344626I-476J154D01*
X358304Y344780I-500J-0*
G01X358250Y345118D02*
G03X358304Y344780I1100J0D01*
G01X358250Y345118D02*
Y346102D01*
X358304Y346441D02*
G03X358250Y346102I1046J-339D01*
G01X358304Y346441D02*
G03X358328Y346594I-476J153D01*
X358304Y346748I-500J0*
G01X358250Y347087D02*
G03X358304Y346748I1100J-0D01*
G01X358250Y347087D02*
Y347181D01*
G03X357550Y347639I-500J-0*
G01X354218Y349820D02*
G03X357550Y347639I2380J-0D01*
G01X357598Y351979D02*
G03X354218Y349820I-1000J-2159D01*
G01X357598Y351979D02*
G03X358290Y352300I210J454D01*
G01X358304Y352346D02*
G03X358290Y352300I1046J-338D01*
G01X358304Y352346D02*
G03X358328Y352500I-476J154D01*
X358304Y352654I-500J-0*
G01X358250Y352992D02*
G03X358304Y352654I1100J0D01*
G01X358250Y352992D02*
Y353976D01*
X358304Y354315D02*
G03X358250Y353976I1046J-339D01*
G01X358304Y354315D02*
G03X358328Y354469I-476J154D01*
G01X358328D02*
G03X358304Y354622I-500J-0D01*
G01X358250Y354961D02*
G03X358304Y354622I1100J-0D01*
G01X358250Y354961D02*
Y355945D01*
X358304Y356283D02*
G03X358250Y355945I1046J-338D01*
G01X358304Y356283D02*
G03X358328Y356437I-476J154D01*
X358304Y356591I-500J0*
G01X358250Y356929D02*
G03X358304Y356591I1100J0D01*
G01X358250Y356929D02*
Y357065D01*
G03X357479Y357485I-500J-0*
G01X353810Y359484D02*
G03X357479Y357485I2379J0D01*
G01X354383Y361033D02*
G03X353810Y359484I1806J-1549D01*
G01X354383Y361033D02*
G03X354504Y361359I-379J326D01*
X354356Y361714I-500J-0*
G01X353652Y363403D02*
G03X354356Y361714I2380J-0D01*
G01X354269Y365000D02*
G03X353652Y363403I1763J-1597D01*
G01X354269Y365001D02*
G03X354398Y365336I-371J335D01*
X354296Y365638I-500J0*
G01X353813Y367076D02*
G03X354296Y365638I2380J-0D01*
G01X357831Y368801D02*
G03X353813Y367076I-1638J-1725D01*
G01X357831Y368801D02*
G03X358176Y368664I345J363D01*
G01X358590*
G03X358828Y368724I0J500*
G01X359350Y368856D02*
G03X358828Y368724I0J-1100D01*
G01X359350Y368856D02*
X367224D01*
X368324Y367756D02*
G03X367224Y368856I-1100J-0D01*
G01X368324Y367756D02*
Y366772D01*
X368271Y366433D02*
G03X368324Y366772I-1047J339D01*
G01X368271Y366433D02*
G03X368247Y366280I476J-153D01*
X368271Y366126I500J-0*
G01X368324Y365787D02*
G03X368271Y366126I-1100J0D01*
G01X368324Y365787D02*
Y364803D01*
X368271Y364465D02*
G03X368324Y364803I-1047J338D01*
G01X368271Y364465D02*
G03X368247Y364311I476J-154D01*
X368271Y364157I500J0*
G01X368324Y363819D02*
G03X368271Y364157I-1100J-0D01*
G01X368324Y363819D02*
Y362835D01*
X368271Y362496D02*
G03X368324Y362835I-1047J339D01*
G01X368271Y362496D02*
G03X368247Y362343I476J-153D01*
X368271Y362189I500J-0*
G01X368324Y361850D02*
G03X368271Y362189I-1100J0D01*
G01X368324Y361850D02*
Y360866D01*
X368271Y360528D02*
G03X368324Y360866I-1047J338D01*
G01X368271Y360528D02*
G03X368247Y360374I476J-154D01*
X368271Y360220I500J0*
G01X368324Y359882D02*
G03X368271Y360220I-1100J-0D01*
G01X368324Y359882D02*
Y358898D01*
X368271Y358559D02*
G03X368324Y358898I-1047J339D01*
G01X368271Y358559D02*
G03X368247Y358406I476J-153D01*
X368271Y358252I500J-0*
G01X368324Y357913D02*
G03X368271Y358252I-1100J0D01*
G01X368324Y357913D02*
Y356929D01*
X368271Y356591D02*
G03X368324Y356929I-1047J338D01*
G01X368271Y356591D02*
G03X368247Y356437I476J-154D01*
X368271Y356283I500J0*
G01X368318Y356060D02*
G03X368271Y356283I-1094J-115D01*
G01X368318Y356060D02*
G03X368886Y355617I498J52D01*
G01X371598Y353261D02*
G03X368886Y355617I-2380J-0D01*
G01X370714Y351410D02*
G03X371598Y353261I-1496J1851D01*
G01X370714Y351410D02*
G03X370528Y351021I314J-389D01*
X371114Y350528I500J-0*
G01X373899Y348184D02*
G03X371114Y350528I-2379J-0D01*
G01X373893Y348012D02*
G03X373899Y348184I-2373J172D01*
G01X373893Y348012D02*
G03X373892Y347975I499J-37D01*
X373995Y347671I500J0*
G01X374129Y347460D02*
G03X373995Y347671I-1245J-641D01*
G01X374129Y347460D02*
G03X375073Y347689I444J229D01*
G01Y371176*
X363501Y327900D02*
G03X363001Y328400I-500J-0D01*
G01X348983*
G03X348520Y328087I0J-500*
G01X347500Y327400D02*
G03X348520Y328087I0J1100D01*
G01X347500Y327400D02*
X343700D01*
X342875Y327772D02*
G03X343700Y327400I825J728D01*
G01X342875Y327772D02*
G03X342125I-375J-330D01*
G01X341300Y327400D02*
G03X342125Y327772I0J1100D01*
G01X341300Y327400D02*
X337500D01*
X336480Y328087D02*
G03X337500Y327400I1020J413D01*
G01X336480Y328087D02*
G03X336017Y328400I-463J-187D01*
G01X332808*
G03X332480Y328278I-0J-500*
G01X330984Y327719D02*
G03X332480Y328278I0J2281D01*
G01X330984Y327719D02*
X329016D01*
X327066Y328816D02*
G03X329016Y327719I1950J1184D01*
G01X327066Y328816D02*
G03X326138Y328557I-428J-259D01*
G01Y327984*
X325670Y326852D02*
G03X326138Y327984I-1132J1132D01*
G01X325670Y326852D02*
X324020Y325203D01*
X322889Y324734D02*
G03X324020Y325203I-0J1600D01*
G01X322889Y324734D02*
X314450D01*
X313318Y325203D02*
G03X314450Y324734I1132J1131D01*
G01X313318Y325203D02*
X311224Y327296D01*
X310756Y328428D02*
G03X311224Y327296I1600J-0D01*
G01X310756Y328428D02*
Y334918D01*
G03X310609Y335272I-500J0*
G01X310253Y335628*
G03X309900Y335774I-353J-354*
G01X308926*
G03X308480Y335501I0J-500*
G01X307500Y334900D02*
G03X308480Y335501I0J1100D01*
G01X307500Y334900D02*
X303700D01*
X302875Y335272D02*
G03X303700Y334900I825J728D01*
G01X302875Y335272D02*
G03X302125I-375J-330D01*
G01X301300Y334900D02*
G03X302125Y335272I0J1100D01*
G01X301300Y334900D02*
X297500D01*
X296480Y335587D02*
G03X297500Y334900I1020J413D01*
G01X296480Y335587D02*
G03X296017Y335900I-463J-187D01*
G01X293870*
G03X293516Y335754I-0J-500*
G01X289131Y331369*
X288000Y330900D02*
G03X289131Y331369I0J1600D01*
G01X288000Y330900D02*
X285234D01*
G03X284734Y330400I-0J-500*
G01Y327257*
X284632Y326695D02*
G03X284734Y327257I-1498J562D01*
G01X284632Y326695D02*
G03X284600Y326519I468J-176D01*
G01Y326250*
X284565Y325975D02*
G03X284600Y326250I-1065J275D01*
G01X284565Y325975D02*
G03X284549Y325850I484J-125D01*
X285049Y325350I500J-0*
G01X291880*
G03X292233Y325496I-0J500*
G01X296254Y329516*
G03X296400Y329870I-354J354*
G01Y331500*
X297500Y332600D02*
G03X296400Y331500I0J-1100D01*
G01X297500Y332600D02*
X301300D01*
X302125Y332228D02*
G03X301300Y332600I-825J-728D01*
G01X302125Y332228D02*
G03X302875I375J330D01*
G01X303700Y332600D02*
G03X302875Y332228I0J-1100D01*
G01X303700Y332600D02*
X307500D01*
X308600Y331500D02*
G03X307500Y332600I-1100J0D01*
G01X308600Y331500D02*
Y328500D01*
X307500Y327400D02*
G03X308600Y328500I0J1100D01*
G01X307500Y327400D02*
X303700D01*
X302875Y327772D02*
G03X303700Y327400I825J728D01*
G01X302875Y327772D02*
G03X302125I-375J-330D01*
G01X301300Y327400D02*
G03X302125Y327772I0J1100D01*
G01X301300Y327400D02*
X298870D01*
G03X298516Y327254I-0J-500*
G01X293881Y322618*
X292750Y322150D02*
G03X293881Y322618I-0J1600D01*
G01X292750Y322150D02*
X285049D01*
G03X284549Y321650I0J-500*
X284565Y321525I500J-0*
G01X284600Y321250D02*
G03X284565Y321525I-1100J-0D01*
G01X284600Y321250D02*
Y317100D01*
G03X285100Y316600I500J0*
G01X291500*
X292631Y316131D02*
G03X291500Y316600I-1131J-1131D01*
G01X292631Y316131D02*
X295546Y313216D01*
G03X296400Y313570I354J354*
G01Y316500*
X297500Y317600D02*
G03X296400Y316500I0J-1100D01*
G01X297500Y317600D02*
X301300D01*
X302125Y317228D02*
G03X301300Y317600I-825J-728D01*
G01X302125Y317228D02*
G03X302875I375J330D01*
G01X303700Y317600D02*
G03X302875Y317228I0J-1100D01*
G01X303700Y317600D02*
X307500D01*
X308520Y316913D02*
G03X307500Y317600I-1020J-413D01*
G01X308520Y316913D02*
G03X308983Y316600I463J187D01*
G01X309130*
G03X309484Y316746I0J500*
G01X311369Y318631*
X312500Y319100D02*
G03X311369Y318631I0J-1600D01*
G01X312500Y319100D02*
X313517D01*
G03X313980Y319413I-0J500*
G01X315000Y320100D02*
G03X313980Y319413I0J-1100D01*
G01X315000Y320100D02*
X318800D01*
X319625Y319728D02*
G03X318800Y320100I-825J-728D01*
G01X319625Y319728D02*
G03X320375I375J330D01*
G01X321200Y320100D02*
G03X320375Y319728I0J-1100D01*
G01X321200Y320100D02*
X325000D01*
X326020Y319413D02*
G03X325000Y320100I-1020J-413D01*
G01X326020Y319413D02*
G03X326483Y319100I463J187D01*
G01X331017*
G03X331480Y319413I-0J500*
G01X332500Y320100D02*
G03X331480Y319413I0J-1100D01*
G01X332500Y320100D02*
X336300D01*
X337125Y319728D02*
G03X336300Y320100I-825J-728D01*
G01X337125Y319728D02*
G03X337875I375J330D01*
G01X338700Y320100D02*
G03X337875Y319728I0J-1100D01*
G01X338700Y320100D02*
X342500D01*
X343600Y319000D02*
G03X342500Y320100I-1100J0D01*
G01X343600Y319000D02*
Y316000D01*
X342638Y314909D02*
G03X343600Y316000I-138J1091D01*
G01X342638Y314909D02*
G03X342200Y314413I62J-496D01*
G01Y310600*
X341731Y309469D02*
G03X342200Y310600I-1131J1131D01*
G01X341731Y309469D02*
X341146Y308884D01*
G03X341000Y308530I354J-354*
G01Y305587*
G03X341438Y305091I500J0*
G01X342125Y304728D02*
G03X341438Y305091I-825J-728D01*
G01X342125Y304728D02*
G03X342875I375J330D01*
G01X343562Y305091D02*
G03X342875Y304728I138J-1091D01*
G01X343562Y305091D02*
G03X344000Y305587I-62J496D01*
G01Y307529*
X344469Y308660D02*
G03X344000Y307529I1131J-1131D01*
G01X344469Y308660D02*
X363355Y327546D01*
G03X363501Y327900I-354J354*
G01X339000Y314413D02*
G03X338562Y314909I-500J-0D01*
G01X337875Y315272D02*
G03X338562Y314909I825J728D01*
G01X337875Y315272D02*
G03X337125I-375J-330D01*
G01X336300Y314900D02*
G03X337125Y315272I0J1100D01*
G01X336300Y314900D02*
X332500D01*
X331480Y315587D02*
G03X332500Y314900I1020J413D01*
G01X331480Y315587D02*
G03X331017Y315900I-463J-187D01*
G01X326483*
G03X326020Y315587I0J-500*
G01X325000Y314900D02*
G03X326020Y315587I0J1100D01*
G01X325000Y314900D02*
X321200D01*
X320375Y315272D02*
G03X321200Y314900I825J728D01*
G01X320375Y315272D02*
G03X319625I-375J-330D01*
G01X319537Y315184D02*
G03X319625Y315272I-737J816D01*
G01X319537Y315184D02*
G03X319373Y314813I336J-371D01*
X319519Y314459I500J-0*
G01X320107Y313871*
X320544Y313056D02*
G03X320107Y313871I-1568J-316D01*
G01X320544Y313056D02*
G03X321035Y312655I491J99D01*
G01X321035D02*
X321142D01*
X322242Y311555D02*
G03X321142Y312655I-1100J0D01*
G01X322242Y311555D02*
Y309992D01*
G03X323109Y309653I500J0*
G01X323153Y309699D02*
G03X323109Y309653I1131J-1131D01*
G01X323153Y309699D02*
X324959Y311505D01*
X326091Y311974D02*
G03X324959Y311505I-0J-1600D01*
G01X326091Y311974D02*
X326525D01*
G03X326934Y312187I-0J500*
G01X327835Y312655D02*
G03X326934Y312187I-0J-1100D01*
G01X327835Y312655D02*
X332166D01*
X333266Y311555D02*
G03X332166Y312655I-1100J0D01*
G01X333266Y311555D02*
Y309193D01*
X333123Y308652D02*
G03X333266Y309193I-957J541D01*
G01X333123Y308652D02*
G03X333058Y308406I435J-246D01*
G01X333058D02*
Y308405D01*
G03X333123Y308159I500J0*
G01X333266Y307618D02*
G03X333123Y308159I-1100J-0D01*
G01X333266Y307618D02*
Y305256D01*
X333169Y304805D02*
G03X333266Y305256I-1003J451D01*
G01X333169Y304805D02*
G03X333125Y304600I456J-205D01*
X333625Y304100I500J0*
G01X336017*
G03X336480Y304413I-0J500*
G01X337362Y305091D02*
G03X336480Y304413I138J-1091D01*
G01X337362Y305091D02*
G03X337800Y305587I-62J496D01*
G01Y309400*
X338269Y310531D02*
G03X337800Y309400I1131J-1131D01*
G01X338269Y310531D02*
X338854Y311116D01*
G03X339000Y311470I-354J354*
G01Y314413*
X327236Y304093D02*
G03X327079Y304456I-500J-0D01*
G01X326838Y304791D02*
G03X327079Y304456I997J465D01*
G01X326838Y304791D02*
G03X325884Y304580I-454J-211D01*
G01Y303401*
G03X326857Y303239I500J-0*
G01X327146Y303806D02*
G03X326857Y303239I1870J-1306D01*
G01X327146Y303806D02*
G03X327236Y304093I-410J287D01*
G01X316385Y312860D02*
G03X316239Y313214I-500J0D01*
G01X315769Y313684*
X315330Y314505D02*
G03X315769Y313684I1570J311D01*
G01X315330Y314505D02*
G03X314890Y314905I-490J-97D01*
G01X313980Y315587D02*
G03X314890Y314906I1020J413D01*
G01X313980Y315587D02*
G03X313517Y315900I-463J-187D01*
G01X313370*
G03X313016Y315754I-0J-500*
G01X311131Y313869*
X310000Y313400D02*
G03X311131Y313869I0J1600D01*
G01X310000Y313400D02*
X308983D01*
G03X308520Y313087I0J-500*
G01X307500Y312400D02*
G03X308520Y313087I0J1100D01*
G01X307500Y312400D02*
X303700D01*
X302875Y312772D02*
G03X303700Y312400I825J728D01*
G01X302875Y312772D02*
G03X302125I-375J-330D01*
G01X301300Y312400D02*
G03X302125Y312772I0J1100D01*
G01X301300Y312400D02*
X297570D01*
G03X297070Y311900I-0J-500*
X297216Y311546I500J-0*
G01X298516Y310246*
G03X298870Y310100I354J354*
G01X301300*
X302125Y309728D02*
G03X301300Y310100I-825J-728D01*
G01X302125Y309728D02*
G03X302875I375J330D01*
G01X303700Y310100D02*
G03X302875Y309728I0J-1100D01*
G01X303700Y310100D02*
X307500D01*
X308600Y309000D02*
G03X307500Y310100I-1100J0D01*
G01X308600Y309000D02*
Y308828D01*
G03X309100Y308328I500J-0*
G01X311404*
X311861Y308261D02*
G03X311404Y308328I-457J-1533D01*
G01X311861Y308261D02*
G03X312475Y308571I143J479D01*
G01X315124Y310110D02*
G03X312475Y308571I-410J-2344D01*
G01X315124Y310110D02*
G03X315710Y310603I86J493D01*
G01Y311555*
X316174Y312452D02*
G03X315710Y311555I637J-897D01*
G01X316174Y312452D02*
G03X316385Y312860I-289J408D01*
G01X370210Y350423D02*
G03X369624Y350916I-500J0D01*
G01X368856Y350909D02*
G03X369624Y350916I362J2352D01*
G01X368856Y350909D02*
G03X368280Y350415I-76J-494D01*
G01X368280*
G03X368294Y350297I500J-0*
G01X368324Y350039D02*
G03X368294Y350297I-1100J0D01*
G01X368324Y350039D02*
Y349198D01*
G03X369292Y349022I500J-0*
G01X370024Y350034D02*
G03X369292Y349022I1496J-1850D01*
G01X370024Y350034D02*
G03X370210Y350423I-314J389D01*
G01X339000Y341913D02*
G03X338562Y342409I-500J-0D01*
G01X337875Y342772D02*
G03X338562Y342409I825J728D01*
G01X337875Y342772D02*
G03X337125I-375J-330D01*
G01X336300Y342400D02*
G03X337125Y342772I0J1100D01*
G01X336300Y342400D02*
X332500D01*
X331480Y343087D02*
G03X332500Y342400I1020J413D01*
G01X331480Y343087D02*
G03X331017Y343400I-463J-187D01*
G01X326483*
G03X326020Y343087I0J-500*
G01X325000Y342400D02*
G03X326020Y343087I0J1100D01*
G01X325000Y342400D02*
X321200D01*
X320375Y342772D02*
G03X321200Y342400I825J728D01*
G01X320375Y342772D02*
G03X319625I-375J-330D01*
G01X319537Y342684D02*
G03X319625Y342772I-737J816D01*
G01X319537Y342684D02*
G03X319373Y342313I336J-371D01*
X319519Y341959I500J-0*
G01X320107Y341371*
X320544Y340556D02*
G03X320107Y341371I-1568J-316D01*
G01X320544Y340556D02*
G03X321035Y340155I491J99D01*
G01X321035D02*
X321142D01*
X322242Y339055D02*
G03X321142Y340155I-1100J0D01*
G01X322242Y339055D02*
Y337637D01*
G03X323169Y337378I500J-0*
G01X323407Y337681D02*
G03X323169Y337378I1131J-1131D01*
G01X323407Y337681D02*
X324731Y339005D01*
X325863Y339474D02*
G03X324731Y339005I-0J-1600D01*
G01X325863Y339474D02*
X326525D01*
G03X326934Y339687I-0J500*
G01X327835Y340155D02*
G03X326934Y339687I-0J-1100D01*
G01X327835Y340155D02*
X332166D01*
X333266Y339055D02*
G03X332166Y340155I-1100J0D01*
G01X333266Y339055D02*
Y336693D01*
X333123Y336152D02*
G03X333266Y336693I-957J541D01*
G01X333123Y336152D02*
G03X333058Y335906I435J-246D01*
G01X333058D02*
Y335905D01*
G03X333123Y335659I500J0*
G01X333266Y335118D02*
G03X333123Y335659I-1100J-0D01*
G01X333266Y335118D02*
Y332756D01*
X333169Y332305D02*
G03X333266Y332756I-1003J451D01*
G01X333169Y332305D02*
G03X333125Y332100I456J-205D01*
X333625Y331600I500J0*
G01X336017*
G03X336480Y331913I-0J500*
G01X337362Y332591D02*
G03X336480Y331913I138J-1091D01*
G01X337362Y332591D02*
G03X337800Y333087I-62J496D01*
G01Y336900*
X338269Y338031D02*
G03X337800Y336900I1131J-1131D01*
G01X338269Y338031D02*
X338854Y338616D01*
G03X339000Y338970I-354J354*
G01Y341913*
X327236Y331593D02*
G03X327079Y331956I-500J-0D01*
G01X327012Y332025D02*
G03X327079Y331956I823J731D01*
G01X327012Y332025D02*
G03X326138Y331693I-374J-332D01*
G01Y331443*
G03X327066Y331184I500J0*
G01X327146Y331306D02*
G03X327066Y331184I1870J-1306D01*
G01X327146Y331306D02*
G03X327236Y331593I-410J287D01*
G01X358537Y380400D02*
G03X358037Y380900I-500J-0D01*
G01X348983*
G03X348520Y380587I0J-500*
G01X347500Y379900D02*
G03X348520Y380587I0J1100D01*
G01X347500Y379900D02*
X343700D01*
X342875Y380272D02*
G03X343700Y379900I825J728D01*
G01X342875Y380272D02*
G03X342125I-375J-330D01*
G01X341300Y379900D02*
G03X342125Y380272I0J1100D01*
G01X341300Y379900D02*
X337500D01*
X336480Y380587D02*
G03X337500Y379900I1020J413D01*
G01X336480Y380587D02*
G03X336017Y380900I-463J-187D01*
G01X332808*
G03X332480Y380778I-0J-500*
G01X330984Y380219D02*
G03X332480Y380778I0J2281D01*
G01X330984Y380219D02*
X329016D01*
X327222Y381091D02*
G03X329016Y380219I1794J1409D01*
G01X327222Y381091D02*
G03X326329Y380782I-393J-309D01*
G01Y379823*
X325860Y378691D02*
G03X326329Y379823I-1131J1132D01*
G01X325860Y378691D02*
X322878Y375709D01*
X321746Y375241D02*
G03X322878Y375709I0J1600D01*
G01X321746Y375241D02*
X314957D01*
X313826Y375709D02*
G03X314957Y375241I1131J1132D01*
G01X313826Y375709D02*
X311415Y378120D01*
X310946Y379252D02*
G03X311415Y378120I1600J-0D01*
G01X310946Y379252D02*
Y386250D01*
G03X310800Y386603I-500J-0*
G01X309278Y388125*
G03X308479Y387999I-354J-354*
G01X307500Y387400D02*
G03X308479Y387999I0J1100D01*
G01X307500Y387400D02*
X303700D01*
X302875Y387772D02*
G03X303700Y387400I825J728D01*
G01X302875Y387772D02*
G03X302125I-375J-330D01*
G01X301300Y387400D02*
G03X302125Y387772I0J1100D01*
G01X301300Y387400D02*
X297500D01*
X296480Y388087D02*
G03X297500Y387400I1020J413D01*
G01X296480Y388087D02*
G03X296017Y388400I-463J-187D01*
G01X288120*
G03X287766Y388254I-0J-500*
G01X284852Y385339*
G03X284705Y384985I353J-354*
G01Y374075*
X284648Y373651D02*
G03X284705Y374075I-1543J424D01*
G01X284648Y373651D02*
G03X284630Y373518I482J-133D01*
X285130Y373018I500J0*
G01X287049*
G03X287402Y373165I-0J500*
G01X296254Y382016*
G03X296400Y382370I-354J354*
G01Y384000*
X297500Y385100D02*
G03X296400Y384000I0J-1100D01*
G01X297500Y385100D02*
X301300D01*
X302125Y384728D02*
G03X301300Y385100I-825J-728D01*
G01X302125Y384728D02*
G03X302875I375J330D01*
G01X303700Y385100D02*
G03X302875Y384728I0J-1100D01*
G01X303700Y385100D02*
X307500D01*
X308600Y384000D02*
G03X307500Y385100I-1100J0D01*
G01X308600Y384000D02*
Y381000D01*
X307500Y379900D02*
G03X308600Y381000I0J1100D01*
G01X307500Y379900D02*
X303700D01*
X302875Y380272D02*
G03X303700Y379900I825J728D01*
G01X302875Y380272D02*
G03X302125I-375J-330D01*
G01X301300Y379900D02*
G03X302125Y380272I0J1100D01*
G01X301300Y379900D02*
X298870D01*
G03X298516Y379754I-0J-500*
G01X289050Y370287*
X287918Y369818D02*
G03X289050Y370287I0J1600D01*
G01X287918Y369818D02*
X284996D01*
G03X284496Y369318I-0J-500*
X284528Y369141I500J0*
G01X284600Y368750D02*
G03X284528Y369141I-1100J0D01*
G01X284600Y368750D02*
Y364600D01*
G03X285100Y364100I500J0*
G01X289250*
X290381Y363631D02*
G03X289250Y364100I-1131J-1131D01*
G01X290381Y363631D02*
X292266Y361746D01*
G03X292620Y361600I354J354*
G01X296017*
G03X296480Y361913I-0J500*
G01X297500Y362600D02*
G03X296480Y361913I0J-1100D01*
G01X297500Y362600D02*
X301300D01*
X302125Y362228D02*
G03X301300Y362600I-825J-728D01*
G01X302125Y362228D02*
G03X302875I375J330D01*
G01X303700Y362600D02*
G03X302875Y362228I0J-1100D01*
G01X303700Y362600D02*
X307500D01*
X308516Y361921D02*
G03X307500Y362600I-1016J-421D01*
G01X308516Y361921D02*
G03X309036Y361615I462J191D01*
G01X309222Y361626D02*
G03X309036Y361615I-0J-1600D01*
G01X309222Y361626D02*
X310827D01*
G03X311327Y362126I-0J500*
G01X311327*
G03X311326Y362162I-500J0*
G01X311319Y362334D02*
G03X311326Y362162I2380J-0D01*
G01X315059Y364287D02*
G03X311319Y362334I-1360J-1953D01*
G01X315059Y364287D02*
G03X315803Y364496I286J410D01*
G01X316174Y364952D02*
G03X315803Y364496I637J-897D01*
G01X316174Y364952D02*
G03X316385Y365360I-289J408D01*
X316239Y365714I-500J0*
G01X315769Y366184*
X315330Y367005D02*
G03X315769Y366184I1570J311D01*
G01X315330Y367005D02*
G03X314890Y367405I-490J-97D01*
G01X313980Y368087D02*
G03X314890Y367406I1020J413D01*
G01X313980Y368087D02*
G03X313517Y368400I-463J-187D01*
G01X313370*
G03X313016Y368254I-0J-500*
G01X311131Y366369*
X310000Y365900D02*
G03X311131Y366369I0J1600D01*
G01X310000Y365900D02*
X308983D01*
G03X308520Y365587I0J-500*
G01X307500Y364900D02*
G03X308520Y365587I0J1100D01*
G01X307500Y364900D02*
X303700D01*
X302875Y365272D02*
G03X303700Y364900I825J728D01*
G01X302875Y365272D02*
G03X302125I-375J-330D01*
G01X301300Y364900D02*
G03X302125Y365272I0J1100D01*
G01X301300Y364900D02*
X297500D01*
X296400Y366000D02*
G03X297500Y364900I1100J0D01*
G01X296400Y366000D02*
Y369000D01*
X297500Y370100D02*
G03X296400Y369000I0J-1100D01*
G01X297500Y370100D02*
X301300D01*
X302125Y369728D02*
G03X301300Y370100I-825J-728D01*
G01X302125Y369728D02*
G03X302875I375J330D01*
G01X303700Y370100D02*
G03X302875Y369728I0J-1100D01*
G01X303700Y370100D02*
X307500D01*
X308520Y369413D02*
G03X307500Y370100I-1020J-413D01*
G01X308520Y369413D02*
G03X308983Y369100I463J187D01*
G01X309130*
G03X309484Y369246I0J500*
G01X311369Y371131*
X312500Y371600D02*
G03X311369Y371131I0J-1600D01*
G01X312500Y371600D02*
X313517D01*
G03X313980Y371913I-0J500*
G01X315000Y372600D02*
G03X313980Y371913I0J-1100D01*
G01X315000Y372600D02*
X318800D01*
X319625Y372228D02*
G03X318800Y372600I-825J-728D01*
G01X319625Y372228D02*
G03X320375I375J330D01*
G01X321200Y372600D02*
G03X320375Y372228I0J-1100D01*
G01X321200Y372600D02*
X325000D01*
X326020Y371913D02*
G03X325000Y372600I-1020J-413D01*
G01X326020Y371913D02*
G03X326483Y371600I463J187D01*
G01X331017*
G03X331480Y371913I-0J500*
G01X332500Y372600D02*
G03X331480Y371913I0J-1100D01*
G01X332500Y372600D02*
X336300D01*
X337125Y372228D02*
G03X336300Y372600I-825J-728D01*
G01X337125Y372228D02*
G03X337875I375J330D01*
G01X338700Y372600D02*
G03X337875Y372228I0J-1100D01*
G01X338700Y372600D02*
X342500D01*
X343600Y371500D02*
G03X342500Y372600I-1100J0D01*
G01X343600Y371500D02*
Y368500D01*
X342638Y367409D02*
G03X343600Y368500I-138J1091D01*
G01X342638Y367409D02*
G03X342200Y366913I62J-496D01*
G01Y363100*
X341731Y361969D02*
G03X342200Y363100I-1131J1131D01*
G01X341731Y361969D02*
X341146Y361384D01*
G03X341000Y361030I354J-354*
G01Y358087*
G03X341438Y357591I500J0*
G01X342125Y357228D02*
G03X341438Y357591I-825J-728D01*
G01X342125Y357228D02*
G03X342875I375J330D01*
G01X343562Y357591D02*
G03X342875Y357228I138J-1091D01*
G01X343562Y357591D02*
G03X344000Y358087I-62J496D01*
G01Y364993*
X344469Y366124D02*
G03X344000Y364993I1131J-1131D01*
G01X344469Y366124D02*
X358391Y380046D01*
G03X358537Y380400I-354J354*
G01X339000Y366913D02*
G03X338562Y367409I-500J-0D01*
G01X337875Y367772D02*
G03X338562Y367409I825J728D01*
G01X337875Y367772D02*
G03X337125I-375J-330D01*
G01X336300Y367400D02*
G03X337125Y367772I0J1100D01*
G01X336300Y367400D02*
X332500D01*
X331480Y368087D02*
G03X332500Y367400I1020J413D01*
G01X331480Y368087D02*
G03X331017Y368400I-463J-187D01*
G01X326483*
G03X326020Y368087I0J-500*
G01X325000Y367400D02*
G03X326020Y368087I0J1100D01*
G01X325000Y367400D02*
X321200D01*
X320375Y367772D02*
G03X321200Y367400I825J728D01*
G01X320375Y367772D02*
G03X319625I-375J-330D01*
G01X319537Y367684D02*
G03X319625Y367772I-737J816D01*
G01X319537Y367684D02*
G03X319373Y367313I336J-371D01*
X319519Y366959I500J-0*
G01X320107Y366371*
X320544Y365556D02*
G03X320107Y366371I-1568J-316D01*
G01X320544Y365556D02*
G03X321035Y365155I491J99D01*
G01X321035D02*
X321142D01*
X322242Y364055D02*
G03X321142Y365155I-1100J0D01*
G01X322242Y364055D02*
Y362065D01*
G03X323169Y361806I500J0*
G01X323407Y362109D02*
G03X323169Y361806I1131J-1131D01*
G01X323407Y362109D02*
X325303Y364005D01*
X326434Y364474D02*
G03X325303Y364005I0J-1600D01*
G01X326434Y364474D02*
X326525D01*
G03X326934Y364687I-0J500*
G01X327835Y365155D02*
G03X326934Y364687I-0J-1100D01*
G01X327835Y365155D02*
X332166D01*
X333266Y364055D02*
G03X332166Y365155I-1100J0D01*
G01X333266Y364055D02*
Y361693D01*
X333123Y361152D02*
G03X333266Y361693I-957J541D01*
G01X333123Y361152D02*
G03X333058Y360906I435J-246D01*
G01X333058D02*
Y360905D01*
G03X333123Y360659I500J0*
G01X333266Y360118D02*
G03X333123Y360659I-1100J-0D01*
G01X333266Y360118D02*
Y357756D01*
X333169Y357305D02*
G03X333266Y357756I-1003J451D01*
G01X333169Y357305D02*
G03X333125Y357100I456J-205D01*
X333625Y356600I500J0*
G01X336017*
G03X336480Y356913I-0J500*
G01X337362Y357591D02*
G03X336480Y356913I138J-1091D01*
G01X337362Y357591D02*
G03X337800Y358087I-62J496D01*
G01Y361900*
X338269Y363031D02*
G03X337800Y361900I1131J-1131D01*
G01X338269Y363031D02*
X338854Y363616D01*
G03X339000Y363970I-354J354*
G01Y366913*
X327236Y356593D02*
G03X327079Y356956I-500J-0D01*
G01X327012Y357025D02*
G03X327079Y356956I823J731D01*
G01X327012Y357025D02*
G03X326138Y356693I-374J-332D01*
G01Y356443*
G03X327066Y356184I500J0*
G01X327146Y356306D02*
G03X327066Y356184I1870J-1306D01*
G01X327146Y356306D02*
G03X327236Y356593I-410J287D01*
G01X339000Y394413D02*
G03X338562Y394909I-500J-0D01*
G01X337875Y395272D02*
G03X338562Y394909I825J728D01*
G01X337875Y395272D02*
G03X337125I-375J-330D01*
G01X336300Y394900D02*
G03X337125Y395272I0J1100D01*
G01X336300Y394900D02*
X332500D01*
X331480Y395587D02*
G03X332500Y394900I1020J413D01*
G01X331480Y395587D02*
G03X331017Y395900I-463J-187D01*
G01X326483*
G03X326020Y395587I0J-500*
G01X325000Y394900D02*
G03X326020Y395587I0J1100D01*
G01X325000Y394900D02*
X321200D01*
X320375Y395272D02*
G03X321200Y394900I825J728D01*
G01X320375Y395272D02*
G03X319625I-375J-330D01*
G01X319537Y395184D02*
G03X319625Y395272I-737J816D01*
G01X319537Y395184D02*
G03X319373Y394813I336J-371D01*
X319519Y394459I500J-0*
G01X320107Y393871*
X320544Y393056D02*
G03X320107Y393871I-1568J-316D01*
G01X320544Y393056D02*
G03X321035Y392655I491J99D01*
G01X321035D02*
X321142D01*
X322242Y391555D02*
G03X321142Y392655I-1100J0D01*
G01X322242Y391555D02*
Y390364D01*
G03X323169Y390105I500J0*
G01X323407Y390408D02*
G03X323169Y390105I1131J-1131D01*
G01X323407Y390408D02*
X324504Y391505D01*
X325635Y391974D02*
G03X324504Y391505I0J-1600D01*
G01X325635Y391974D02*
X326525D01*
G03X326934Y392187I-0J500*
G01X327835Y392655D02*
G03X326934Y392187I-0J-1100D01*
G01X327835Y392655D02*
X332166D01*
X333266Y391555D02*
G03X332166Y392655I-1100J0D01*
G01X333266Y391555D02*
Y389193D01*
X333123Y388652D02*
G03X333266Y389193I-957J541D01*
G01X333123Y388652D02*
G03X333058Y388406I435J-246D01*
G01X333058D02*
Y388405D01*
G03X333123Y388159I500J0*
G01X333266Y387618D02*
G03X333123Y388159I-1100J-0D01*
G01X333266Y387618D02*
Y385256D01*
X333169Y384805D02*
G03X333266Y385256I-1003J451D01*
G01X333169Y384805D02*
G03X333125Y384600I456J-205D01*
X333625Y384100I500J0*
G01X336017*
G03X336480Y384413I-0J500*
G01X337362Y385091D02*
G03X336480Y384413I138J-1091D01*
G01X337362Y385091D02*
G03X337800Y385587I-62J496D01*
G01Y389400*
X338269Y390531D02*
G03X337800Y389400I1131J-1131D01*
G01X338269Y390531D02*
X338854Y391116D01*
G03X339000Y391470I-354J354*
G01Y394413*
X323129Y388403D02*
G03X323083Y388611I-500J0D01*
G01X323051Y388688D02*
G03X323083Y388611I1487J589D01*
G01X323051Y388688D02*
G03X322134Y388719I-465J-184D01*
G01X322099Y388652D02*
G03X322134Y388719I-958J541D01*
G01X322099Y388652D02*
G03X322034Y388405I435J-247D01*
G01X322034D02*
G03X322099Y388159I500J0D01*
G01X322164Y388024D02*
G03X322099Y388159I-1022J-406D01*
G01X322164Y388024D02*
G03X323129Y388209I465J185D01*
G01Y388403*
X250401Y321310D02*
G03X249861Y321809I-500J0D01*
G01X249650Y321800D02*
G03X249861Y321809I0J2600D01*
G01X249650Y321800D02*
X245058D01*
G03X244728Y321675I0J-500*
G01X244000Y321400D02*
G03X244728Y321675I0J1100D01*
G01X244000Y321400D02*
X241000D01*
X239900Y322500D02*
G03X241000Y321400I1100J0D01*
G01X239900Y322500D02*
Y326300D01*
X240272Y327125D02*
G03X239900Y326300I728J-825D01*
G01X240272Y327125D02*
G03X240442Y327500I-330J375D01*
X240272Y327875I-500J0*
G01X239900Y328700D02*
G03X240272Y327875I1100J0D01*
G01X239900Y328700D02*
Y336300D01*
G03X239400Y336800I-500J-0*
G01X237686*
G03X237333Y336654I0J-500*
G01X235139Y334460*
X233301Y333698D02*
G03X235139Y334460I-0J2600D01*
G01X233301Y333698D02*
X230238D01*
G03X229749Y333305I-0J-500*
G01X225449Y332763D02*
G03X229749Y333305I2054J1035D01*
G01X225449Y332763D02*
G03X224556I-446J-226D01*
G01X220449D02*
G03X224556I2054J1035D01*
G01X220449D02*
G03X219556I-446J-226D01*
G01X216965Y331562D02*
G03X219556Y332763I538J2236D01*
G01X216965Y331562D02*
G03X216348Y331076I-117J-486D01*
G01Y330259*
G03X216495Y329906I500J0*
G01X218493Y327908*
X218903Y326918D02*
G03X218493Y327908I-1400J-0D01*
G01X218903Y326918D02*
Y318255D01*
G03X219063Y317888I500J0*
G01X219556Y317234D02*
G03X219063Y317888I-2053J-1036D01*
G01X219556Y317234D02*
G03X220449I447J225D01*
G01X224556D02*
G03X220449I-2053J-1036D01*
G01X224556D02*
G03X225449I447J225D01*
G01X229803Y316198D02*
G03X225449Y317234I-2300J0D01*
G01X229803Y316198D02*
Y311198D01*
X228627Y309192D02*
G03X229803Y311198I-1124J2006D01*
G01X228627Y309192D02*
G03X228371Y308755I244J-437D01*
X228871Y308255I500J0*
G01X229607*
G03X229960Y308402I-0J500*
G01X232797Y311238*
X234636Y312000D02*
G03X232797Y311238I-0J-2600D01*
G01X234636Y312000D02*
X239942D01*
G03X240442Y312500I-0J500*
X240272Y312875I-500J0*
G01X240019Y313201D02*
G03X240272Y312875I981J499D01*
G01X240019Y313201D02*
G03X239435Y313455I-445J-226D01*
G01X236395Y315741D02*
G03X239435Y313455I2380J0D01*
G01X239556Y317989D02*
G03X236395Y315741I-781J-2248D01*
G01X239556Y317989D02*
G03X240120Y318161I165J472D01*
G01X241000Y318600D02*
G03X240120Y318161I0J-1100D01*
G01X241000Y318600D02*
X244000D01*
X245100Y317500D02*
G03X244000Y318600I-1100J0D01*
G01X245100Y317500D02*
Y313700D01*
X244728Y312875D02*
G03X245100Y313700I-728J825D01*
G01X244728Y312875D02*
G03X244558Y312500I330J-375D01*
X244728Y312125I500J0*
G01X245100Y311300D02*
G03X244728Y312125I-1100J0D01*
G01X245100Y311300D02*
Y307500D01*
X244000Y306400D02*
G03X245100Y307500I0J1100D01*
G01X244000Y306400D02*
X241000D01*
X240272Y306675D02*
G03X241000Y306400I728J825D01*
G01X240272Y306675D02*
G03X239942Y306800I-330J-375D01*
G01X235920*
G03X235566Y306654I-0J-500*
G01X232729Y303817*
X232363Y303512D02*
G03X232729Y303817I-1472J2143D01*
G01X232363Y303512D02*
G03X232146Y303100I283J-412D01*
X232646Y302600I500J0*
G01X243654*
X244594Y302424D02*
G03X243654Y302600I-940J-2424D01*
G01X244594Y302424D02*
G03X244775Y302390I181J466D01*
G01X249862*
G03X250362Y302890I0J500*
G01Y320419*
X250391Y320722D02*
G03X250362Y320419I1571J-303D01*
G01X250391Y320722D02*
G03X250400Y320816I-491J94D01*
G01Y321250*
X250401Y321291D02*
G03X250400Y321250I1099J-41D01*
G01X250401Y321291D02*
G03Y321310I-500J19D01*
G01X259003Y370278D02*
G03X258856Y370631I-500J-0D01*
G01X257064Y372424*
G03X256710Y372570I-354J-354*
G01X251111*
X249701Y373413D02*
G03X251111Y372570I1410J757D01*
G01X249701Y373413D02*
G03X248907Y373530I-440J-236D01*
G01X247938Y372562*
X246100Y371800D02*
G03X247938Y372562I-0J2600D01*
G01X246100Y371800D02*
X245058D01*
G03X244728Y371675I0J-500*
G01X244000Y371400D02*
G03X244728Y371675I0J1100D01*
G01X244000Y371400D02*
X241000D01*
X239900Y372500D02*
G03X241000Y371400I1100J0D01*
G01X239900Y372500D02*
Y376300D01*
X240272Y377125D02*
G03X239900Y376300I728J-825D01*
G01X240272Y377125D02*
G03X240442Y377500I-330J375D01*
X240272Y377875I-500J0*
G01X239900Y378700D02*
G03X240272Y377875I1100J0D01*
G01X239900Y378700D02*
Y386300D01*
G03X239400Y386800I-500J-0*
G01X237684*
G03X237331Y386654I0J-500*
G01X235138Y384462*
X233300Y383700D02*
G03X235138Y384462I-0J2600D01*
G01X233300Y383700D02*
X230235D01*
G03X229747Y383307I-0J-500*
G01X225446Y382764D02*
G03X229747Y383307I2054J1036D01*
G01X225446Y382764D02*
G03X224554I-446J-225D01*
G01X220446D02*
G03X224554I2054J1036D01*
G01X220446D02*
G03X219554I-446J-225D01*
G01X219061Y382111D02*
G03X219554Y382764I-1561J1689D01*
G01X219061Y382111D02*
G03X218900Y381743I339J-368D01*
G01Y380981*
X218490Y379991D02*
G03X218900Y380981I-990J990D01*
G01X218490Y379991D02*
X215544Y377046D01*
G03X215398Y376692I354J-354*
G01Y372002*
G03X215544Y371648I500J-0*
G01X216088Y371104*
G03X216442Y370958I354J354*
G01X218746*
X219736Y370548D02*
G03X218746Y370958I-990J-990D01*
G01X219736Y370548D02*
X220590Y369694D01*
X220998Y368785D02*
G03X220590Y369694I-1398J-81D01*
G01X220998Y368785D02*
G03X221676Y368347I499J29D01*
G01X224554Y367236D02*
G03X221676Y368347I-2054J-1036D01*
G01X224554Y367236D02*
G03X225446I446J225D01*
G01X229800Y366200D02*
G03X225446Y367236I-2300J0D01*
G01X229800Y366200D02*
Y361200D01*
X229794Y361036D02*
G03X229800Y361200I-2294J164D01*
G01X229794Y361036D02*
G03X229793Y361000I499J-36D01*
G01X229793*
G03X230293Y360500I500J0*
G01X231849*
G03X232203Y360646I0J500*
G01X232795Y361238*
X234633Y362000D02*
G03X232795Y361238I0J-2600D01*
G01X234633Y362000D02*
X239942D01*
G03X240442Y362500I-0J500*
X240272Y362875I-500J0*
G01X239900Y363700D02*
G03X240272Y362875I1100J0D01*
G01X239900Y363700D02*
Y367500D01*
X241000Y368600D02*
G03X239900Y367500I0J-1100D01*
G01X241000Y368600D02*
X244000D01*
X245100Y367500D02*
G03X244000Y368600I-1100J0D01*
G01X245100Y367500D02*
Y364787D01*
G03X245246Y364433I500J0*
G01X245889Y363791*
X246300Y362800D02*
G03X245889Y363791I-1400J0D01*
G01X246300Y362800D02*
Y359375D01*
G03X247154Y359022I500J0*
G01X247562Y359430*
X249285Y360189D02*
G03X247562Y359430I115J-2598D01*
G01X249285Y360189D02*
X249682Y360206D01*
G03X250160Y360706I-22J500*
G01Y368178*
X250431Y369069D02*
G03X250160Y368178I1329J-891D01*
G01X250431Y369069D02*
G03X250480Y369161I-415J279D01*
G01X251500Y369850D02*
G03X250480Y369161I0J-1100D01*
G01X251500Y369850D02*
X258000D01*
X258327Y369800D02*
G03X258000Y369850I-327J-1050D01*
G01X258327Y369800D02*
G03X258476Y369778I149J478D01*
G01X258503*
G03X259003Y370278I-0J500*
G01X226635Y308755D02*
G03X226379Y309192I-500J0D01*
G01X225942Y309509D02*
G03X226379Y309192I1561J1689D01*
G01X225942Y309509D02*
G03X225103Y309142I-339J-367D01*
G01Y308755*
G03X225603Y308255I500J0*
G01X226135*
G03X226635Y308755I-0J500*
G01X472451Y372008D02*
G03X472451I-3612J0D01*
G01X472695Y392480D02*
Y387756D01*
X471594Y386656D02*
G03X472695Y387756I0J1100D01*
G01X471594Y386656D02*
X462933D01*
X461833Y387756D02*
G03X462933Y386656I1100J-0D01*
G01X461833Y387756D02*
Y392480D01*
X462933Y393580D02*
G03X461833Y392480I0J-1100D01*
G01X462933Y393580D02*
X471594D01*
X472695Y392480D02*
G03X471594Y393580I-1101J0D01*
G01X433324Y390118D02*
Y383819D01*
X432224Y382719D02*
G03X433324Y383819I0J1100D01*
G01X432224Y382719D02*
X426713D01*
X425613Y383819D02*
G03X426713Y382719I1100J-0D01*
G01X425613Y383819D02*
Y390118D01*
X426713Y391218D02*
G03X425613Y390118I-0J-1100D01*
G01X426713Y391218D02*
X432224D01*
X433324Y390118D02*
G03X432224Y391218I-1100J0D01*
G01X407252Y396865D02*
Y390865D01*
X406152Y389765D02*
G03X407252Y390865I-0J1100D01*
G01X406152Y389765D02*
X400152D01*
X399052Y390865D02*
G03X400152Y389765I1100J-0D01*
G01X399052Y390865D02*
Y396865D01*
X400152Y397965D02*
G03X399052Y396865I-0J-1100D01*
G01X400152Y397965D02*
X406152D01*
X407252Y396865D02*
G03X406152Y397965I-1100J-0D01*
G01X377252Y393865D02*
G03X377252I-4100J0D01*
G01X360343Y303729D02*
Y297729D01*
X359243Y296629D02*
G03X360343Y297729I-0J1100D01*
G01X359243Y296629D02*
X353243D01*
X352143Y297729D02*
G03X353243Y296629I1100J0D01*
G01X352143Y297729D02*
Y303729D01*
X353243Y304829D02*
G03X352143Y303729I-0J-1100D01*
G01X353243Y304829D02*
X359243D01*
X360343Y303729D02*
G03X359243Y304829I-1100J0D01*
G01X270484Y403399D02*
X481400D01*
X271178Y402499D02*
X481400D01*
X272078Y401599D02*
X481400D01*
X272978Y400699D02*
X481400D01*
X343256Y399799D02*
X481400D01*
X343600Y398899D02*
X481400D01*
X343600Y397999D02*
X481400D01*
X407226Y397099D02*
X481400D01*
X407252Y396199D02*
X481400D01*
X407252Y395299D02*
X481400D01*
X407252Y394399D02*
X481400D01*
X472010Y393499D02*
X481400D01*
X472688Y392599D02*
X481400D01*
X472695Y391699D02*
X481400D01*
X472695Y390799D02*
X481400D01*
X472695Y389899D02*
X481400D01*
X472695Y388999D02*
X481400D01*
X472695Y388099D02*
X481400D01*
X472543Y387199D02*
X481400D01*
X433324Y386299D02*
X481400D01*
X433324Y385399D02*
X481400D01*
X433324Y384499D02*
X481400D01*
X433302Y383599D02*
X481400D01*
X389855Y382699D02*
X481400D01*
X390334Y381799D02*
X481400D01*
X403827Y380899D02*
X481400D01*
X403856Y379999D02*
X481400D01*
X403856Y379099D02*
X481400D01*
X403856Y378199D02*
X481400D01*
X403856Y377299D02*
X481400D01*
X403856Y376399D02*
X481400D01*
X469767Y375499D02*
X481400D01*
X471356Y374599D02*
X481400D01*
X472031Y373699D02*
X481400D01*
X472363Y372799D02*
X481400D01*
X472449Y371899D02*
X481400D01*
X472307Y370999D02*
X481400D01*
X471905Y370099D02*
X481400D01*
X471109Y369199D02*
X481400D01*
X451230Y368299D02*
X481400D01*
X452130Y367399D02*
X481400D01*
X453030Y366499D02*
X481400D01*
X453930Y365599D02*
X481400D01*
X454830Y364699D02*
X481400D01*
X455730Y363799D02*
X481400D01*
X456630Y362899D02*
X481400D01*
X457530Y361999D02*
X481400D01*
X458430Y361099D02*
X481400D01*
X459330Y360199D02*
X481400D01*
X460230Y359299D02*
X481400D01*
X461130Y358399D02*
X481400D01*
X462030Y357499D02*
X481400D01*
X462930Y356599D02*
X481400D01*
X463830Y355699D02*
X481400D01*
X464730Y354799D02*
X481400D01*
X465630Y353899D02*
X481400D01*
X466530Y352999D02*
X481400D01*
X467430Y352099D02*
X481400D01*
X468330Y351199D02*
X481400D01*
X469230Y350299D02*
X481400D01*
X470130Y349399D02*
X481400D01*
X471030Y348499D02*
X481400D01*
X471930Y347599D02*
X481400D01*
X472830Y346699D02*
X481400D01*
X473730Y345799D02*
X481400D01*
X474630Y344899D02*
X481400D01*
X475530Y343999D02*
X481400D01*
X476430Y343099D02*
X481400D01*
X477330Y342199D02*
X481400D01*
X478230Y341299D02*
X481400D01*
X478969Y340399D02*
X481400D01*
X479100Y339499D02*
X481400D01*
X479100Y338599D02*
X481400D01*
X479100Y337699D02*
X481400D01*
X479100Y336799D02*
X481400D01*
X479100Y335899D02*
X481400D01*
X479100Y334999D02*
X481400D01*
X479100Y334099D02*
X481400D01*
X479100Y333199D02*
X481400D01*
X479100Y332299D02*
X481400D01*
X479100Y331399D02*
X481400D01*
X479100Y330499D02*
X481400D01*
X479100Y329599D02*
X481400D01*
X479100Y328699D02*
X481400D01*
X479100Y327799D02*
X481400D01*
X479100Y326899D02*
X481400D01*
X479100Y325999D02*
X481400D01*
X479100Y325099D02*
X481400D01*
X479100Y324199D02*
X481400D01*
X479100Y323299D02*
X481400D01*
X479100Y322399D02*
X481400D01*
X479100Y321499D02*
X481400D01*
X479100Y320599D02*
X481400D01*
X479100Y319699D02*
X481400D01*
X479100Y318799D02*
X481400D01*
X479100Y317899D02*
X481400D01*
X479100Y316999D02*
X481400D01*
X479280Y316099D02*
X481400D01*
X480082Y315199D02*
X481400D01*
X480100Y314299D02*
X481400D01*
X480100Y313399D02*
X481400D01*
X480100Y312499D02*
X481400D01*
X480100Y311599D02*
X481400D01*
X479979Y310699D02*
X481400D01*
X479601Y309799D02*
X481400D01*
X480096Y308899D02*
X481400D01*
X480100Y307999D02*
X481400D01*
X480100Y307099D02*
X481400D01*
X480100Y306199D02*
X481400D01*
X480100Y305299D02*
X481400D01*
X479921Y304399D02*
X481400D01*
X419266Y303499D02*
X481400D01*
X419892Y302599D02*
X481400D01*
X420226Y301699D02*
X481400D01*
X420342Y300799D02*
X481400D01*
X420258Y299899D02*
X481400D01*
X419959Y298999D02*
X481400D01*
X419387Y298099D02*
X481400D01*
X418327Y297199D02*
X481400D01*
X297561Y296299D02*
X481400D01*
X296661Y295399D02*
X481400D01*
X295761Y294499D02*
X481400D01*
X469921Y304399D02*
X475079D01*
X403856Y375499D02*
X467910D01*
X450330Y369199D02*
X466568D01*
X403856Y374599D02*
X466321D01*
X449307Y370099D02*
X465772D01*
X403856Y373699D02*
X465647D01*
X431582Y370999D02*
X465370D01*
X403856Y372799D02*
X465314D01*
X403420Y371899D02*
X465228D01*
X459921Y304399D02*
X465079D01*
X407252Y393499D02*
X462517D01*
X433324Y387199D02*
X461985D01*
X407252Y392599D02*
X461839D01*
X407252Y391699D02*
X461833D01*
X433089Y390799D02*
X461833D01*
X433324Y389899D02*
X461833D01*
X433324Y388999D02*
X461833D01*
X433324Y388099D02*
X461833D01*
X449921Y304399D02*
X455079D01*
X439921D02*
X445079D01*
X432141Y332299D02*
X435900D01*
X433187Y331399D02*
X435900D01*
X433324Y330499D02*
X435900D01*
X433324Y329599D02*
X435900D01*
X433324Y328699D02*
X435900D01*
X433324Y327799D02*
X435900D01*
X433324Y326899D02*
X435900D01*
X433324Y325999D02*
X435900D01*
X433324Y325099D02*
X435900D01*
X433261Y324199D02*
X435900D01*
X408843Y323299D02*
X435900D01*
X408843Y322399D02*
X435900D01*
X408843Y321499D02*
X435900D01*
X408843Y320599D02*
X435900D01*
X408843Y319699D02*
X435900D01*
X408843Y318799D02*
X435900D01*
X408843Y317899D02*
X435900D01*
X408843Y316999D02*
X435900D01*
X432143Y333199D02*
X435898D01*
X408843Y316099D02*
X435720D01*
X432143Y334099D02*
X435159D01*
X418072Y304399D02*
X435079D01*
X408843Y310699D02*
X435019D01*
X408843Y315199D02*
X434918D01*
X408843Y314299D02*
X434900D01*
X408843Y313399D02*
X434900D01*
X408843Y312499D02*
X434900D01*
X408843Y311599D02*
X434900D01*
X413653Y305299D02*
X434891D01*
X432143Y334999D02*
X434259D01*
X432027Y335899D02*
X433359D01*
X409153Y309799D02*
X431942D01*
X412753Y306199D02*
X431696D01*
X410053Y308899D02*
X431210D01*
X411853Y307099D02*
X431124D01*
X410953Y307999D02*
X430990D01*
X407250Y390799D02*
X425848D01*
X408843Y324199D02*
X425676D01*
X389068Y383599D02*
X425635D01*
X406678Y389899D02*
X425613D01*
X388337Y388999D02*
X425613D01*
X388342Y388099D02*
X425613D01*
X388347Y387199D02*
X425613D01*
X388351Y386299D02*
X425613D01*
X388356Y385399D02*
X425613D01*
X388589Y384499D02*
X425613D01*
X408843Y330499D02*
X425613D01*
X408843Y329599D02*
X425613D01*
X408843Y328699D02*
X425613D01*
X408843Y327799D02*
X425613D01*
X408843Y326899D02*
X425613D01*
X408843Y325999D02*
X425613D01*
X408843Y325099D02*
X425613D01*
X408843Y331399D02*
X425468D01*
X390084Y370999D02*
X423418D01*
X416715Y366499D02*
X423064D01*
X407030Y335899D02*
X422979D01*
X408843Y332299D02*
X422910D01*
X416655Y336799D02*
X422870D01*
X390084Y370099D02*
X422858D01*
X390084Y369199D02*
X422857D01*
X416606Y368299D02*
X422857D01*
X416750Y367399D02*
X422857D01*
X416750Y337699D02*
X422857D01*
X407442Y334999D02*
X422857D01*
X408342Y334099D02*
X422857D01*
X408831Y333199D02*
X422857D01*
X422156Y338599D02*
X422558D01*
X416750Y365599D02*
X419329D01*
X416687Y338599D02*
X418585D01*
X416750Y339499D02*
X418071D01*
X408327Y297199D02*
X414158D01*
X409387Y298099D02*
X413098D01*
X409959Y298999D02*
X412526D01*
X409892Y302599D02*
X412370D01*
X410226Y301699D02*
X412259D01*
X410258Y299899D02*
X412228D01*
X410342Y300799D02*
X412143D01*
X409266Y303499D02*
X411493D01*
X408072Y304399D02*
X410593D01*
X407643Y305299D02*
X409693D01*
X407646Y306199D02*
X408793D01*
X390084Y368299D02*
X406819D01*
X390084Y358399D02*
X406753D01*
X390099Y356599D02*
X406726D01*
X390084Y360199D02*
X406722D01*
X390084Y366499D02*
X406710D01*
X391799Y354799D02*
X406688D01*
X390084Y361999D02*
X406686D01*
X390084Y364699D02*
X406681D01*
X390084Y367399D02*
X406676D01*
X390084Y365599D02*
X406676D01*
X390084Y363799D02*
X406676D01*
X390084Y362899D02*
X406676D01*
X390084Y361099D02*
X406676D01*
X390084Y359299D02*
X406676D01*
X390084Y357499D02*
X406676D01*
X390899Y355699D02*
X406676D01*
X392699Y353899D02*
X406676D01*
X403078Y323299D02*
X404843D01*
X385947Y322399D02*
X404843D01*
X385947Y321499D02*
X404843D01*
X385947Y320599D02*
X404843D01*
X385947Y319699D02*
X404843D01*
X385947Y318799D02*
X404843D01*
X385947Y317899D02*
X404843D01*
X385947Y316999D02*
X404843D01*
X385947Y316099D02*
X404843D01*
X385947Y315199D02*
X404843D01*
X385947Y314299D02*
X404843D01*
X386538Y313399D02*
X404843D01*
X387438Y312499D02*
X404843D01*
X388338Y311599D02*
X404843D01*
X389238Y310699D02*
X404843D01*
X390138Y309799D02*
X404843D01*
X391038Y308899D02*
X404843D01*
X391938Y307999D02*
X404843D01*
X392838Y307099D02*
X404843D01*
X393738Y306199D02*
X404843D01*
X394638Y305299D02*
X404843D01*
X403845Y324199D02*
X404840D01*
X398072Y304399D02*
X404413D01*
X398327Y297199D02*
X404158D01*
X399266Y303499D02*
X403219D01*
X399387Y298099D02*
X403098D01*
X399892Y302599D02*
X402593D01*
X399959Y298999D02*
X402526D01*
X400226Y301699D02*
X402259D01*
X400258Y299899D02*
X402228D01*
X400342Y300799D02*
X402143D01*
X401110Y323299D02*
X401449D01*
X388333Y389899D02*
X399625D01*
X399141Y323299D02*
X399481D01*
X385672Y397099D02*
X399077D01*
X388246Y390799D02*
X399054D01*
X386522Y396199D02*
X399052D01*
X386993Y395299D02*
X399052D01*
X387217Y394399D02*
X399052D01*
X387235Y393499D02*
X399052D01*
X387051Y392599D02*
X399052D01*
X387580Y391699D02*
X399052D01*
X397173Y323299D02*
X397512D01*
X395204D02*
X395544D01*
X388327Y297199D02*
X394158D01*
X393236Y323299D02*
X393575D01*
X389387Y298099D02*
X393098D01*
X389892Y302599D02*
X392593D01*
X389959Y298999D02*
X392526D01*
X389266Y303499D02*
X392478D01*
X390226Y301699D02*
X392259D01*
X390258Y299899D02*
X392228D01*
X390342Y300799D02*
X392143D01*
X391267Y323299D02*
X391607D01*
X388072Y304399D02*
X391578D01*
X387643Y305299D02*
X390678D01*
X387643Y306199D02*
X389778D01*
X389299Y323299D02*
X389638D01*
X387643Y307099D02*
X388878D01*
X387330Y323299D02*
X387670D01*
X382501Y385399D02*
X385156D01*
X341000Y386299D02*
X385151D01*
X341000Y387199D02*
X385146D01*
X341000Y388099D02*
X385142D01*
X341261Y388999D02*
X385137D01*
X383401Y384499D02*
X384947D01*
X384191Y389899D02*
X384843D01*
X378490Y307099D02*
X384843D01*
X377667Y306199D02*
X384843D01*
X377643Y305299D02*
X384843D01*
X378072Y304399D02*
X384413D01*
X379390Y307999D02*
X384171D01*
X378327Y297199D02*
X384158D01*
X380290Y308899D02*
X383271D01*
X379266Y303499D02*
X383219D01*
X379387Y298099D02*
X383098D01*
X379892Y302599D02*
X382593D01*
X379959Y298999D02*
X382526D01*
X381190Y309799D02*
X382371D01*
X380226Y301699D02*
X382259D01*
X380258Y299899D02*
X382228D01*
X380342Y300799D02*
X382143D01*
X374191Y389899D02*
X382112D01*
X375672Y397099D02*
X380631D01*
X375874Y390799D02*
X380430D01*
X376522Y396199D02*
X379781D01*
X376633Y391699D02*
X379670D01*
X376993Y395299D02*
X379310D01*
X377051Y392599D02*
X379252D01*
X377217Y394399D02*
X379086D01*
X377235Y393499D02*
X379068D01*
X362733Y322399D02*
X377242D01*
X361833Y321499D02*
X377242D01*
X360933Y320599D02*
X377242D01*
X360033Y319699D02*
X377242D01*
X359133Y318799D02*
X377242D01*
X358233Y317899D02*
X377242D01*
X357333Y316999D02*
X377242D01*
X356433Y316099D02*
X377242D01*
X355533Y315199D02*
X377242D01*
X354633Y314299D02*
X377242D01*
X353733Y313399D02*
X376932D01*
X352833Y312499D02*
X376032D01*
X375519Y323299D02*
X375859D01*
X351933Y311599D02*
X375132D01*
X372792Y305299D02*
X374843D01*
X373692Y306199D02*
X374839D01*
X371892Y304399D02*
X374413D01*
X351033Y310699D02*
X374232D01*
X368327Y297199D02*
X374158D01*
X373551Y323299D02*
X373890D01*
X350133Y309799D02*
X373332D01*
X370992Y303499D02*
X373219D01*
X369387Y298099D02*
X373098D01*
X370116Y302599D02*
X372593D01*
X369959Y298999D02*
X372526D01*
X349233Y308899D02*
X372432D01*
X370226Y301699D02*
X372259D01*
X370258Y299899D02*
X372228D01*
X370342Y300799D02*
X372143D01*
X342038Y389899D02*
X372112D01*
X363633Y323299D02*
X371922D01*
X348333Y307999D02*
X371532D01*
X364533Y324199D02*
X371155D01*
X369933Y329599D02*
X371144D01*
X369033Y328699D02*
X371144D01*
X368133Y327799D02*
X371144D01*
X367233Y326899D02*
X371144D01*
X366333Y325999D02*
X371144D01*
X365433Y325099D02*
X371144D01*
X347433Y307099D02*
X370632D01*
X343600Y397099D02*
X370631D01*
X342200Y390799D02*
X370430D01*
X343600Y396199D02*
X369781D01*
X347200Y306199D02*
X369732D01*
X342200Y391699D02*
X369670D01*
X343347Y395299D02*
X369310D01*
X342200Y392599D02*
X369252D01*
X342200Y394399D02*
X369086D01*
X342200Y393499D02*
X369068D01*
X347292Y305299D02*
X368832D01*
X360116Y304399D02*
X364413D01*
X360206Y297199D02*
X364158D01*
X361274Y385399D02*
X363743D01*
X360343Y303499D02*
X363219D01*
X360343Y298099D02*
X363098D01*
X360343Y302599D02*
X362593D01*
X360343Y298999D02*
X362526D01*
X360343Y301699D02*
X362259D01*
X360343Y299899D02*
X362228D01*
X360343Y300799D02*
X362143D01*
X341037Y385399D02*
X359542D01*
X348480Y384499D02*
X358426D01*
X348525Y304399D02*
X352370D01*
X323293Y297199D02*
X352279D01*
X348600Y303499D02*
X352143D01*
X348600Y302599D02*
X352143D01*
X348600Y301699D02*
X352143D01*
X348581Y300799D02*
X352143D01*
X325788Y299899D02*
X352143D01*
X325100Y298999D02*
X352143D01*
X324200Y298099D02*
X352143D01*
X337056Y399799D02*
X337944D01*
X332506Y300799D02*
X336318D01*
X325756Y399799D02*
X331744D01*
X325884Y300799D02*
X327496D01*
X325894Y301699D02*
X326880D01*
X319556Y399799D02*
X320444D01*
X307554Y392599D02*
X316311D01*
X279100Y393499D02*
X315954D01*
X279100Y394399D02*
X315355D01*
X308256Y399799D02*
X314244D01*
X308347Y395299D02*
X314153D01*
X298461Y297199D02*
X314109D01*
X308524Y298099D02*
X313202D01*
X308600Y298999D02*
X312302D01*
X308685Y391699D02*
X312114D01*
X308600Y299899D02*
X311575D01*
X279359Y303499D02*
X311454D01*
X307554Y302599D02*
X311454D01*
X308582Y301699D02*
X311454D01*
X308600Y300799D02*
X311454D01*
X272498Y304399D02*
X311416D01*
X301354Y392599D02*
X303646D01*
X301354Y302599D02*
X303646D01*
X302056Y399799D02*
X302944D01*
X302150Y395299D02*
X302850D01*
X302150Y305299D02*
X302850D01*
X279100Y392599D02*
X297446D01*
X279617Y302599D02*
X297446D01*
X273878Y399799D02*
X296744D01*
X279100Y395299D02*
X296653D01*
X273199Y305299D02*
X296653D01*
X279617Y301699D02*
X296418D01*
X278634Y398899D02*
X296400D01*
X279100Y397999D02*
X296400D01*
X279100Y397099D02*
X296400D01*
X279100Y396199D02*
X296400D01*
X283018Y307099D02*
X296400D01*
X274100Y306199D02*
X296400D01*
X279617Y300799D02*
X296400D01*
X279617Y299899D02*
X296400D01*
X279058Y391699D02*
X296315D01*
X284303Y307999D02*
X296239D01*
X279617Y298999D02*
X295736D01*
X284600Y308899D02*
X295339D01*
X279617Y298099D02*
X294836D01*
X284600Y309799D02*
X294439D01*
X279617Y297199D02*
X293936D01*
X284600Y310699D02*
X293539D01*
X280111Y296299D02*
X292835D01*
X284600Y311599D02*
X292639D01*
X284600Y312499D02*
X291739D01*
X285064Y313399D02*
X290666D01*
X278839Y390799D02*
X285786D01*
X281686Y389899D02*
X284886D01*
X282586Y388999D02*
X283986D01*
X446448Y334999D02*
X451597D01*
X447348Y334099D02*
X451597D01*
X448248Y333199D02*
X451597D01*
X448977Y332299D02*
X451597D01*
X449100Y331399D02*
X451597D01*
X449100Y330499D02*
X451597D01*
X449100Y329599D02*
X451597D01*
X449100Y328699D02*
X451597D01*
X449100Y327799D02*
X451597D01*
X449100Y326899D02*
X451597D01*
X449100Y325999D02*
X451597D01*
X449100Y325099D02*
X451597D01*
X449100Y324199D02*
X451597D01*
X449100Y323299D02*
X451597D01*
X449100Y322399D02*
X451597D01*
X449100Y321499D02*
X451597D01*
X449100Y320599D02*
X451597D01*
X449100Y319699D02*
X451597D01*
X449100Y318799D02*
X451597D01*
X449100Y317899D02*
X451597D01*
X449100Y316999D02*
X451597D01*
X449280Y316099D02*
X451597D01*
X450082Y315199D02*
X451597D01*
X450100Y314299D02*
X451597D01*
X450100Y313399D02*
X451597D01*
X450100Y312499D02*
X451597D01*
X450100Y311599D02*
X451597D01*
X449979Y310699D02*
X451597D01*
X449601Y309799D02*
X451597D01*
X445548Y335899D02*
X451584D01*
X444648Y336799D02*
X450792D01*
X443748Y337699D02*
X449892D01*
X442848Y338599D02*
X448992D01*
X441948Y339499D02*
X448092D01*
X441048Y340399D02*
X447192D01*
X440148Y341299D02*
X446292D01*
X439248Y342199D02*
X445392D01*
X438348Y343099D02*
X444492D01*
X437408Y343999D02*
X443592D01*
X431939Y344899D02*
X442692D01*
X432143Y345799D02*
X441792D01*
X432143Y346699D02*
X440892D01*
X432143Y347599D02*
X439992D01*
X432138Y348499D02*
X439092D01*
X431990Y349399D02*
X438192D01*
X432143Y350299D02*
X437292D01*
X432143Y351199D02*
X436392D01*
X432143Y352099D02*
X435492D01*
X432109Y352999D02*
X434592D01*
X392065Y348499D02*
X406749D01*
X392965Y349399D02*
X406676D01*
X391165Y347599D02*
X406676D01*
X390265Y346699D02*
X405565D01*
X389365Y345799D02*
X404665D01*
X388465Y344899D02*
X403765D01*
X387565Y343999D02*
X402865D01*
X377680Y334099D02*
X402617D01*
X386665Y343099D02*
X402051D01*
X378565Y334999D02*
X401953D01*
X385765Y342199D02*
X401887D01*
X384865Y341299D02*
X401887D01*
X383965Y340399D02*
X401887D01*
X383065Y339499D02*
X401887D01*
X382165Y338599D02*
X401887D01*
X381265Y337699D02*
X401887D01*
X380365Y336799D02*
X401887D01*
X379465Y335899D02*
X401887D01*
X380954Y351199D02*
X390236D01*
X380954Y352099D02*
X389974D01*
X380954Y350299D02*
X389340D01*
X380954Y352999D02*
X389074D01*
X380954Y349399D02*
X388440D01*
X380954Y353899D02*
X388174D01*
X380954Y348499D02*
X387540D01*
X380954Y354799D02*
X387279D01*
X380954Y355699D02*
X386891D01*
X380242Y370999D02*
X386884D01*
X380242Y370099D02*
X386884D01*
X380242Y369199D02*
X386884D01*
X380242Y368299D02*
X386884D01*
X380242Y367399D02*
X386884D01*
X380242Y366499D02*
X386884D01*
X380242Y365599D02*
X386884D01*
X380242Y364699D02*
X386884D01*
X380242Y363799D02*
X386884D01*
X380242Y362899D02*
X386884D01*
X380242Y361999D02*
X386884D01*
X380242Y361099D02*
X386884D01*
X380242Y360199D02*
X386884D01*
X380242Y359299D02*
X386884D01*
X380253Y358399D02*
X386884D01*
X380847Y357499D02*
X386884D01*
X380954Y356599D02*
X386884D01*
X380954Y347599D02*
X386640D01*
X380954Y346699D02*
X385740D01*
X380954Y345799D02*
X384840D01*
X380954Y344899D02*
X383940D01*
X380954Y343999D02*
X383040D01*
X380955Y343099D02*
X382140D01*
X353868Y370999D02*
X375073D01*
X352968Y370099D02*
X375073D01*
X357268Y369199D02*
X375073D01*
X368181Y368299D02*
X375073D01*
X368324Y367399D02*
X375073D01*
X368290Y366499D02*
X375073D01*
X368324Y365599D02*
X375073D01*
X368319Y364699D02*
X375073D01*
X368324Y363799D02*
X375073D01*
X368324Y362899D02*
X375073D01*
X368314Y361999D02*
X375073D01*
X368324Y361099D02*
X375073D01*
X368278Y360199D02*
X375073D01*
X368324Y359299D02*
X375073D01*
X368247Y358399D02*
X375073D01*
X368324Y357499D02*
X375073D01*
X368274Y356599D02*
X375073D01*
X368534Y355699D02*
X375073D01*
X371034Y354799D02*
X375073D01*
X371511Y353899D02*
X375073D01*
X371583Y352999D02*
X375073D01*
X371295Y352099D02*
X375073D01*
X370561Y351199D02*
X375073D01*
X372610Y350299D02*
X375073D01*
X373565Y349399D02*
X375073D01*
X373878Y348499D02*
X375073D01*
X374047Y347599D02*
X375065D01*
X354768Y371899D02*
X371580D01*
X366958Y379999D02*
X371144D01*
X366696Y379099D02*
X371144D01*
X366242Y378199D02*
X371144D01*
X360168Y377299D02*
X371144D01*
X359268Y376399D02*
X371144D01*
X358368Y375499D02*
X371144D01*
X357468Y374599D02*
X371144D01*
X356568Y373699D02*
X371144D01*
X355668Y372799D02*
X371144D01*
X367871Y380899D02*
X370924D01*
X341000Y335899D02*
X369171D01*
X341000Y334999D02*
X368544D01*
X341000Y334099D02*
X367644D01*
X341000Y333199D02*
X366744D01*
X348256Y332299D02*
X365844D01*
X361068Y378199D02*
X362543D01*
X341561Y336799D02*
X358345D01*
X343582Y346699D02*
X358317D01*
X342200Y338599D02*
X358313D01*
X348596Y356599D02*
X358301D01*
X343600Y344899D02*
X358272D01*
X342200Y340399D02*
X358269D01*
X348600Y354799D02*
X358262D01*
X343524Y343099D02*
X358252D01*
X342290Y342199D02*
X358251D01*
X348600Y355699D02*
X358250D01*
X348600Y353899D02*
X358250D01*
X348479Y352999D02*
X358250D01*
X343600Y345799D02*
X358250D01*
X343600Y343999D02*
X358250D01*
X342200Y341299D02*
X358250D01*
X342200Y339499D02*
X358250D01*
X342149Y337699D02*
X358250D01*
X357282Y352099D02*
X358180D01*
X357452Y347599D02*
X358025D01*
X357502Y357499D02*
X357998D01*
X325912Y352099D02*
X355914D01*
X342554Y347599D02*
X355743D01*
X352068Y369199D02*
X355117D01*
X347961Y357499D02*
X354878D01*
X325080Y351199D02*
X354659D01*
X279619Y348499D02*
X354619D01*
X347200Y361099D02*
X354431D01*
X348468Y365599D02*
X354324D01*
X324171Y350299D02*
X354267D01*
X279619Y349399D02*
X354256D01*
X351168Y368299D02*
X354151D01*
X347200Y361999D02*
X354111D01*
X347200Y358399D02*
X354072D01*
X347568Y364699D02*
X354036D01*
X347200Y360199D02*
X353920D01*
X349368Y366499D02*
X353884D01*
X350268Y367399D02*
X353835D01*
X347200Y359299D02*
X353817D01*
X347200Y362899D02*
X353706D01*
X347200Y363799D02*
X353686D01*
X342056Y332299D02*
X342944D01*
X336354Y347599D02*
X338646D01*
X332079Y352999D02*
X336521D01*
X325054Y347599D02*
X332446D01*
X326185Y346699D02*
X331315D01*
X326138Y352999D02*
X327921D01*
X326273Y353899D02*
X327003D01*
X318854Y347599D02*
X321146D01*
X283572Y340399D02*
X316384D01*
X313952Y335899D02*
X315918D01*
X308480Y339499D02*
X315804D01*
X311800Y338599D02*
X315710D01*
X312708Y337699D02*
X315710D01*
X313596Y336799D02*
X315710D01*
X313956Y334999D02*
X315710D01*
X282672Y341299D02*
X315665D01*
X281772Y342199D02*
X315247D01*
X307554Y347599D02*
X314946D01*
X308347Y350299D02*
X314499D01*
X308524Y343099D02*
X313976D01*
X308685Y346699D02*
X313815D01*
X308600Y351199D02*
X313591D01*
X308600Y352099D02*
X312691D01*
X308600Y352999D02*
X311804D01*
X308600Y353899D02*
X311457D01*
X307955Y357499D02*
X311454D01*
X284600Y356599D02*
X311454D01*
X284452Y355699D02*
X311454D01*
X308256Y354799D02*
X311454D01*
X308948Y358399D02*
X310698D01*
X301354Y347599D02*
X303646D01*
X301755Y357499D02*
X303245D01*
X302056Y354799D02*
X302944D01*
X302150Y350299D02*
X302850D01*
X279619Y347599D02*
X297446D01*
X284600Y357499D02*
X297045D01*
X282099Y354799D02*
X296744D01*
X279619Y350299D02*
X296653D01*
X284440Y339499D02*
X296520D01*
X280556Y343099D02*
X296476D01*
X279619Y346699D02*
X296418D01*
X279619Y345799D02*
X296400D01*
X279619Y344899D02*
X296400D01*
X279468Y343999D02*
X296400D01*
X284600Y358399D02*
X296052D01*
X284734Y338599D02*
X291836D01*
X284734Y337699D02*
X290936D01*
X284600Y359299D02*
X290189D01*
X284734Y336799D02*
X290036D01*
X284600Y360199D02*
X289289D01*
X284734Y335899D02*
X289136D01*
X284734Y334999D02*
X288236D01*
X279417Y351199D02*
X280825D01*
X278611Y352099D02*
X279844D01*
X348347Y327799D02*
X363491D01*
X325714Y326899D02*
X362707D01*
X324816Y325999D02*
X361807D01*
X323905Y325099D02*
X360907D01*
X295461Y324199D02*
X360007D01*
X294561Y323299D02*
X359107D01*
X293607Y322399D02*
X358207D01*
X284572Y321499D02*
X357307D01*
X284600Y320599D02*
X356407D01*
X343350Y319699D02*
X355507D01*
X343600Y318799D02*
X354607D01*
X343600Y317899D02*
X353707D01*
X343600Y316999D02*
X352807D01*
X343600Y316099D02*
X351907D01*
X343254Y315199D02*
X351007D01*
X342200Y314299D02*
X350107D01*
X342200Y313399D02*
X349207D01*
X342200Y312499D02*
X348307D01*
X342200Y311599D02*
X347407D01*
X342200Y310699D02*
X346507D01*
X341985Y309799D02*
X345607D01*
X341161Y308899D02*
X344707D01*
X341000Y307999D02*
X344070D01*
X341000Y307099D02*
X344000D01*
X341000Y306199D02*
X344000D01*
X341092Y305299D02*
X343908D01*
X342150Y327799D02*
X342850D01*
X337153Y319699D02*
X337847D01*
X331582Y327799D02*
X336653D01*
X325850Y319699D02*
X331650D01*
X326128Y327799D02*
X328418D01*
X326159Y328699D02*
X327142D01*
X319653Y319699D02*
X320347D01*
X284600D02*
X314150D01*
X296361Y325099D02*
X313433D01*
X297261Y325999D02*
X312522D01*
X298161Y326899D02*
X311622D01*
X284600Y318799D02*
X311565D01*
X308347Y327799D02*
X310885D01*
X291861Y334099D02*
X310756D01*
X290961Y333199D02*
X310756D01*
X308256Y332299D02*
X310756D01*
X308600Y331399D02*
X310756D01*
X308600Y330499D02*
X310756D01*
X308600Y329599D02*
X310756D01*
X308600Y328699D02*
X310756D01*
X307955Y334999D02*
X310749D01*
X284600Y317899D02*
X310636D01*
X308480Y316999D02*
X309736D01*
X301755Y334999D02*
X303245D01*
X302056Y332299D02*
X302944D01*
X302150Y327799D02*
X302850D01*
X292761Y334999D02*
X297045D01*
X290061Y332299D02*
X296744D01*
X284610Y316999D02*
X296520D01*
X289161Y331399D02*
X296400D01*
X284744Y330499D02*
X296400D01*
X292664Y316099D02*
X296400D01*
X293564Y315199D02*
X296400D01*
X294464Y314299D02*
X296400D01*
X295364Y313399D02*
X296370D01*
X284734Y329599D02*
X296320D01*
X293834Y335899D02*
X296052D01*
X284734Y328699D02*
X295436D01*
X284734Y327799D02*
X294536D01*
X284693Y326899D02*
X293636D01*
X284571Y325999D02*
X292736D01*
X319680Y314299D02*
X339000D01*
X320434Y313399D02*
X339000D01*
X332731Y312499D02*
X339000D01*
X333265Y311599D02*
X339000D01*
X333266Y310699D02*
X338436D01*
X337054Y315199D02*
X337946D01*
X333266Y309799D02*
X337850D01*
X333225Y308899D02*
X337800D01*
X333198Y307999D02*
X337800D01*
X333266Y307099D02*
X337800D01*
X333266Y306199D02*
X337800D01*
X333266Y305299D02*
X337708D01*
X333167Y304399D02*
X336474D01*
X325754Y315199D02*
X331746D01*
X321707Y312499D02*
X327269D01*
X322241Y311599D02*
X325061D01*
X322242Y310699D02*
X324153D01*
X322281Y309799D02*
X323253D01*
X319554Y315199D02*
X320446D01*
X325884Y304399D02*
X327131D01*
X325884Y303499D02*
X326965D01*
X307955Y312499D02*
X316231D01*
X308948Y313399D02*
X316054D01*
X297171Y311599D02*
X315711D01*
X298064Y310699D02*
X315710D01*
X311561Y314299D02*
X315386D01*
X312461Y315199D02*
X314246D01*
X308256Y309799D02*
X313476D01*
X308600Y308899D02*
X312621D01*
X301755Y312499D02*
X303245D01*
X302056Y309799D02*
X302944D01*
X368293Y350299D02*
X370194D01*
X368324Y349399D02*
X369474D01*
X320175Y341299D02*
X339000D01*
X320605Y340399D02*
X339000D01*
X333172Y339499D02*
X339000D01*
X319386Y342199D02*
X338910D01*
X333266Y338599D02*
X338836D01*
X333266Y337699D02*
X338014D01*
X333266Y336799D02*
X337800D01*
X333058Y335899D02*
X337800D01*
X333266Y334999D02*
X337800D01*
X333266Y334099D02*
X337800D01*
X333266Y333199D02*
X337800D01*
X333166Y332299D02*
X336744D01*
X326024Y343099D02*
X331476D01*
X322148Y339499D02*
X326680D01*
X322242Y338599D02*
X324325D01*
X322242Y337699D02*
X323425D01*
X326140Y331399D02*
X327197D01*
X347955Y379999D02*
X358343D01*
X348948Y380899D02*
X358073D01*
X326155Y379099D02*
X357443D01*
X325367Y378199D02*
X356543D01*
X324467Y377299D02*
X355643D01*
X323567Y376399D02*
X354743D01*
X322618Y375499D02*
X353843D01*
X293361Y374599D02*
X352943D01*
X292461Y373699D02*
X352043D01*
X291561Y372799D02*
X351143D01*
X343525Y371899D02*
X350243D01*
X343600Y370999D02*
X349343D01*
X343600Y370099D02*
X348443D01*
X343600Y369199D02*
X347543D01*
X343581Y368299D02*
X346643D01*
X342583Y367399D02*
X345743D01*
X342200Y366499D02*
X344843D01*
X342200Y365599D02*
X344119D01*
X342200Y364699D02*
X344000D01*
X342200Y363799D02*
X344000D01*
X342187Y362899D02*
X344000D01*
X341761Y361999D02*
X344000D01*
X341005Y361099D02*
X344000D01*
X341000Y360199D02*
X344000D01*
X341000Y359299D02*
X344000D01*
X341000Y358399D02*
X344000D01*
X341755Y379999D02*
X343245D01*
X341761Y357499D02*
X343239D01*
X326329Y379999D02*
X337045D01*
X332772Y380899D02*
X336052D01*
X326026Y371899D02*
X331474D01*
X326342Y380899D02*
X327391D01*
X308524Y365599D02*
X316325D01*
X313964Y364699D02*
X315918D01*
X311261Y366499D02*
X315524D01*
X312161Y367399D02*
X314936D01*
X294261Y375499D02*
X314086D01*
X290661Y371899D02*
X313974D01*
X313068Y368299D02*
X313818D01*
X284600Y364699D02*
X313434D01*
X295161Y376399D02*
X313136D01*
X296061Y377299D02*
X312236D01*
X290185Y363799D02*
X311824D01*
X291114Y362899D02*
X311387D01*
X296961Y378199D02*
X311341D01*
X308480Y361999D02*
X311310D01*
X289761Y370999D02*
X311236D01*
X297861Y379099D02*
X310953D01*
X284911Y385399D02*
X310946D01*
X308480Y384499D02*
X310946D01*
X308600Y383599D02*
X310946D01*
X308600Y382699D02*
X310946D01*
X308600Y381799D02*
X310946D01*
X308595Y380899D02*
X310946D01*
X307955Y379999D02*
X310946D01*
X285811Y386299D02*
X310944D01*
X307554Y370099D02*
X310336D01*
X286711Y387199D02*
X310204D01*
X308685Y369199D02*
X309428D01*
X308547Y388099D02*
X309304D01*
X301354Y370099D02*
X303646D01*
X301755Y379999D02*
X303245D01*
X288823Y370099D02*
X297446D01*
X284705Y384499D02*
X296520D01*
X292014Y361999D02*
X296520D01*
X284600Y365599D02*
X296476D01*
X287611Y388099D02*
X296476D01*
X284510Y369199D02*
X296418D01*
X284705Y383599D02*
X296400D01*
X284705Y382699D02*
X296400D01*
X284600Y368299D02*
X296400D01*
X284600Y367399D02*
X296400D01*
X284600Y366499D02*
X296400D01*
X284705Y381799D02*
X296036D01*
X284705Y380899D02*
X295136D01*
X284705Y379999D02*
X294236D01*
X284705Y379099D02*
X293336D01*
X284705Y378199D02*
X292436D01*
X284705Y377299D02*
X291536D01*
X284705Y376399D02*
X290636D01*
X284705Y375499D02*
X289736D01*
X284705Y374599D02*
X288836D01*
X284660Y373699D02*
X287936D01*
X319980Y366499D02*
X339000D01*
X320535Y365599D02*
X339000D01*
X333058Y364699D02*
X339000D01*
X333266Y363799D02*
X338970D01*
X319380Y367399D02*
X338617D01*
X333266Y362899D02*
X338150D01*
X333266Y361999D02*
X337803D01*
X333097Y361099D02*
X337800D01*
X333263Y360199D02*
X337800D01*
X333266Y359299D02*
X337800D01*
X333266Y358399D02*
X337800D01*
X333235Y357499D02*
X337039D01*
X326182Y368299D02*
X331318D01*
X322034Y364699D02*
X326942D01*
X322242Y363799D02*
X325096D01*
X322242Y362899D02*
X324196D01*
X322246Y361999D02*
X323306D01*
X326138Y356599D02*
X327236D01*
X319580Y394399D02*
X339000D01*
X320384Y393499D02*
X339000D01*
X332513Y392599D02*
X339000D01*
X333256Y391699D02*
X339000D01*
X333266Y390799D02*
X338536D01*
X333266Y389899D02*
X337880D01*
X337150Y395299D02*
X337850D01*
X333248Y388999D02*
X337800D01*
X333155Y388099D02*
X337800D01*
X333266Y387199D02*
X337800D01*
X333266Y386299D02*
X337800D01*
X333266Y385399D02*
X337763D01*
X333135Y384499D02*
X336520D01*
X325847Y395299D02*
X331653D01*
X321489Y392599D02*
X327487D01*
X322232Y391699D02*
X324738D01*
X322242Y390799D02*
X323797D01*
X322559Y389899D02*
X322924D01*
X319650Y395299D02*
X320350D01*
X322131Y388099D02*
X323116D01*
X322512Y388999D02*
X322659D01*
X218903Y320599D02*
X250372D01*
X244455Y321499D02*
X250364D01*
X218903Y319699D02*
X250362D01*
X218903Y318799D02*
X250362D01*
X245025Y317899D02*
X250362D01*
X245100Y316999D02*
X250362D01*
X245100Y316099D02*
X250362D01*
X245100Y315199D02*
X250362D01*
X245100Y314299D02*
X250362D01*
X245058Y313399D02*
X250362D01*
X244558Y312499D02*
X250362D01*
X245059Y311599D02*
X250362D01*
X245100Y310699D02*
X250362D01*
X245100Y309799D02*
X250362D01*
X245100Y308899D02*
X250362D01*
X245100Y307999D02*
X250362D01*
X245024Y307099D02*
X250362D01*
X235111Y306199D02*
X250362D01*
X234211Y305299D02*
X250362D01*
X233311Y304399D02*
X250362D01*
X232344Y303499D02*
X250362D01*
X243736Y302599D02*
X250268D01*
X218903Y321499D02*
X240545D01*
X229803Y312499D02*
X240442D01*
X218591Y327799D02*
X240343D01*
X218903Y326899D02*
X240077D01*
X218903Y322399D02*
X239905D01*
X236578Y335899D02*
X239900D01*
X235678Y334999D02*
X239900D01*
X234687Y334099D02*
X239900D01*
X229723Y333199D02*
X239900D01*
X229247Y332299D02*
X239900D01*
X216466Y331399D02*
X239900D01*
X216348Y330499D02*
X239900D01*
X216802Y329599D02*
X239900D01*
X217702Y328699D02*
X239900D01*
X218903Y325999D02*
X239900D01*
X218903Y325099D02*
X239900D01*
X218903Y324199D02*
X239900D01*
X218903Y323299D02*
X239900D01*
X239193Y313399D02*
X239839D01*
X237651Y336799D02*
X239436D01*
X229803Y313399D02*
X238356D01*
X229052Y317899D02*
X237771D01*
X229803Y314299D02*
X236882D01*
X229659Y316999D02*
X236755D01*
X229803Y315199D02*
X236458D01*
X229803Y316099D02*
X236422D01*
X229803Y311599D02*
X233248D01*
X229748Y310699D02*
X232257D01*
X229328Y309799D02*
X231357D01*
X228392Y308899D02*
X230457D01*
X224052Y317899D02*
X225954D01*
X224247Y332299D02*
X225759D01*
X224808Y316999D02*
X225197D01*
X219052Y317899D02*
X220954D01*
X219247Y332299D02*
X220759D01*
X219808Y316999D02*
X220197D01*
X220185Y370099D02*
X258969D01*
X216244Y370999D02*
X258489D01*
X246810Y371899D02*
X257589D01*
X220910Y369199D02*
X250496D01*
X248176Y372799D02*
X250286D01*
X244756Y368299D02*
X250164D01*
X245100Y367399D02*
X250160D01*
X245100Y366499D02*
X250160D01*
X245100Y365599D02*
X250160D01*
X245108Y364699D02*
X250160D01*
X245881Y363799D02*
X250160D01*
X246297Y362899D02*
X250160D01*
X246300Y361999D02*
X250160D01*
X246300Y361099D02*
X250160D01*
X246300Y360199D02*
X249513D01*
X246306Y359299D02*
X247431D01*
X215797Y377299D02*
X240399D01*
X229800Y362899D02*
X240246D01*
X228441Y368299D02*
X240244D01*
X215408Y371899D02*
X240079D01*
X216697Y378199D02*
X240021D01*
X215398Y376399D02*
X239904D01*
X236976Y386299D02*
X239900D01*
X236076Y385399D02*
X239900D01*
X235176Y384499D02*
X239900D01*
X229933Y383599D02*
X239900D01*
X229519Y382699D02*
X239900D01*
X228634Y381799D02*
X239900D01*
X218898Y380899D02*
X239900D01*
X218497Y379999D02*
X239900D01*
X217597Y379099D02*
X239900D01*
X215398Y375499D02*
X239900D01*
X215398Y374599D02*
X239900D01*
X215398Y373699D02*
X239900D01*
X215398Y372799D02*
X239900D01*
X229463Y367399D02*
X239900D01*
X229781Y366499D02*
X239900D01*
X229800Y365599D02*
X239900D01*
X229800Y364699D02*
X239900D01*
X229800Y363799D02*
X239900D01*
X229800Y361999D02*
X234551D01*
X229798Y361099D02*
X232655D01*
X223441Y368299D02*
X226559D01*
X223634Y381799D02*
X226366D01*
X224463Y367399D02*
X225537D01*
X224519Y382699D02*
X225481D01*
X218903Y381799D02*
X221366D01*
X219519Y382699D02*
X220481D01*
X225103Y308899D02*
X226614D01*
X302078Y347278D02*
X300861Y346061D01*
X302078Y342722D02*
X300861Y343939D01*
X296722Y342722D02*
X297939Y343939D01*
X296722Y347278D02*
X297939Y346061D01*
X302078Y369778D02*
X300861Y368561D01*
X302078Y365222D02*
X300861Y366439D01*
X296722Y365222D02*
X297939Y366439D01*
X296722Y369778D02*
X297939Y368561D01*
X302078Y317278D02*
X300861Y316061D01*
X296722Y317278D02*
X297939Y316061D01*
X302078Y312722D02*
X300861Y313939D01*
X302078Y399778D02*
X300861Y398561D01*
X302078Y395222D02*
X300861Y396439D01*
X296722Y395222D02*
X297939Y396439D01*
X296722Y399778D02*
X297939Y398561D01*
X308278Y332278D02*
X307061Y331061D01*
X308278Y327722D02*
X307061Y328939D01*
X302922Y327722D02*
X304139Y328939D01*
X302922Y332278D02*
X304139Y331061D01*
X327057Y331978D02*
X328180Y333102D01*
X332943Y335896D02*
X331820Y334772D01*
X332943Y331978D02*
X331820Y333102D01*
X308278Y302278D02*
X307061Y301061D01*
X308278Y297722D02*
X307061Y298939D01*
X302922Y297722D02*
X304139Y298939D01*
X302922Y302278D02*
X304139Y301061D01*
X327057Y304478D02*
X328180Y305602D01*
X332943Y308396D02*
X331820Y307272D01*
X332943Y304478D02*
X331820Y305602D01*
X308278Y384778D02*
X307061Y383561D01*
X308278Y380222D02*
X307061Y381439D01*
X302922Y380222D02*
X304139Y381439D01*
X302922Y384778D02*
X304139Y383561D01*
X332943Y388396D02*
X331820Y387272D01*
X332943Y384478D02*
X331820Y385602D01*
X308278Y354778D02*
X307061Y353561D01*
X308278Y350222D02*
X307061Y351439D01*
X302922Y350222D02*
X304139Y351439D01*
X302922Y354778D02*
X304139Y353561D01*
X225874Y367826D02*
X226651Y367049D01*
X229126Y367826D02*
X228349Y367049D01*
X327057Y356978D02*
X328180Y358102D01*
X332943Y360896D02*
X331820Y359772D01*
X332943Y356978D02*
X331820Y358102D01*
X431821Y349164D02*
X430640Y347982D01*
X431821Y344852D02*
X430640Y346034D01*
X225876Y317825D02*
X226654Y317047D01*
X229129Y317825D02*
X228351Y317047D01*
X229129Y309572D02*
X228351Y310350D01*
X225876Y309572D02*
X226654Y310350D01*
X168453Y405000D02*
Y292500D01*
X482500*
Y405000*
X168453*
G54D27*
X376243Y300729D02*
Y306831D01*
X380610Y311199*
Y328287*
X366243Y300729D02*
X378642Y313129D01*
Y328287*
X212503Y313698D02*
X217503D01*
X173203Y344803D02*
Y344783D01*
X179626*
X173229Y340855D02*
Y340846D01*
X179626*
X188994Y344807D02*
Y344783D01*
X195374*
X188931Y340848D02*
Y340846D01*
X195374*
X179626Y346752D02*
X185790D01*
Y346760*
X195374Y346752D02*
X201884D01*
Y346739*
X179626Y342815D02*
X185891D01*
Y342806*
X195374Y342815D02*
X201947D01*
Y342812*
X179626Y338878D02*
X185911D01*
Y338893*
X195374Y338878D02*
X202074D01*
X205280*
X214043Y347642*
X226714*
X230000Y350927*
Y354073*
X231127Y355200*
X242973*
X244900Y357127*
Y362800*
X202074Y338878D02*
Y338885D01*
X214948Y329472D02*
Y344573D01*
X215265Y344891*
X214948Y329472D02*
X217503Y326918D01*
Y313698*
Y336298D02*
X222503D01*
X363287Y337736D02*
X371060D01*
X372884Y339560*
Y346819*
X363287Y339705D02*
X369090D01*
X370516Y341130*
Y344760*
X384547Y328287D02*
Y313409D01*
X396243Y301714*
Y300729*
X382579Y328287D02*
Y311571D01*
X386243Y307907*
Y300729*
X404487Y341641D02*
X406488Y343642D01*
X411713*
X404487Y341641D02*
Y335974D01*
X407443Y333018*
Y309529*
X416243Y300729*
X403287Y342441D02*
X406601Y345755D01*
X411713*
Y345610*
X403287Y342441D02*
Y335423D01*
X406243Y332468*
Y300729*
X173465Y364491D02*
Y364469D01*
X179626*
X173445Y360538D02*
Y360531D01*
X179626*
X173384Y356624D02*
Y356594D01*
X179626*
X173344Y352670D02*
Y352657D01*
X179626*
X173263Y348757D02*
Y348720D01*
X179626*
X189247Y364474D02*
Y364469D01*
X195374*
X189216Y360547D02*
Y360531D01*
X195374*
X189121Y356588D02*
Y356594D01*
X195374*
X188962Y352661D02*
Y352657D01*
X195374*
X188962Y348734D02*
Y348720D01*
X195374*
X179626Y366437D02*
X185810D01*
Y366428*
X195374Y366437D02*
X201662D01*
Y366438*
X179626Y362500D02*
X185830D01*
Y362454*
X195374Y362500D02*
X201757D01*
Y362511*
X179626Y358563D02*
X185810D01*
Y358561*
X195374Y358563D02*
X201757D01*
Y358552*
X179626Y354626D02*
X185790D01*
Y354647*
X195374Y354626D02*
X201789D01*
Y354625*
X179626Y350689D02*
X185790D01*
Y350694*
X195374Y350689D02*
X201852D01*
Y350698*
X213196Y351938D02*
X216677Y352452D01*
X219600Y355375*
X217500Y363700D02*
X212500D01*
X212560*
Y359100*
X213561Y358099*
Y355919*
X213621*
X242500Y365600D02*
Y365200D01*
X244900Y362800*
X356598Y349820D02*
X359650Y349739D01*
X363287*
Y349547*
X356189Y359484D02*
X358090Y361385D01*
Y361863*
X359698Y363471*
X363287*
Y363327*
X356032Y363403D02*
X357924Y365295D01*
X363287*
X356193Y367076D02*
Y367264D01*
X363287*
X371520Y348184D02*
X372884Y346819D01*
X173364Y380246D02*
Y380217D01*
X179626*
X173465Y376292D02*
Y376280D01*
X179626*
X173606Y372338D02*
Y372343D01*
X179626*
X173505Y368405D02*
Y368406D01*
X179626*
X189247Y380215D02*
Y380217D01*
X195374*
X189279Y376287D02*
Y376280D01*
X195374*
X189247Y372329D02*
Y372343D01*
X195374*
X189247Y368433D02*
Y368406D01*
X195374*
X179626Y382185D02*
X185810D01*
Y382162*
X195374Y382185D02*
X201725D01*
Y382178*
X179626Y378248D02*
X185830D01*
Y378249*
X195374Y378248D02*
X201789D01*
Y378251*
X179626Y374311D02*
X185810D01*
Y374315*
X195374Y374311D02*
X201757D01*
Y374324*
X179626Y370374D02*
X185790D01*
Y370382*
X195374Y370374D02*
X201725D01*
Y370365*
X213998Y371215D02*
Y377479D01*
X217500Y380981*
Y386300*
X213998Y371215D02*
X215655Y369558D01*
X218746*
X219600Y368704*
Y355375*
X217500Y386300D02*
X222500D01*
G54D28*
X437500Y306900D02*
X447500D01*
X453697D02*
X459015D01*
X457500*
X447500D02*
X453697D01*
X459015D02*
X467500D01*
X477500*
X238775Y315741D02*
X242500D01*
Y315600*
X427500Y355669D02*
X434892D01*
X453697Y336864*
Y306900*
G54D29*
X310025Y297307D03*
X335151Y306634D03*
X227539Y320086D03*
X238775Y315741D03*
X314714Y307766D03*
X306107Y325506D03*
X299301Y319832D03*
X329133Y325308D03*
X365607Y319007D03*
X397587Y318500D03*
X433367Y307893D03*
X173203Y344803D03*
X173229Y340855D03*
X185790Y346760D03*
X188994Y344807D03*
X185891Y342806D03*
X188931Y340848D03*
X185911Y338893D03*
X217386Y342250D03*
X215265Y344891D03*
X201884Y346739D03*
X201947Y342812D03*
X202074Y338885D03*
X212021Y342003D03*
X294566Y345395D03*
X314968Y331878D03*
X351458Y345022D03*
X370516Y344760D03*
X389719Y337662D03*
X420344Y340201D03*
X434134Y346799D03*
X173465Y364491D03*
X173445Y360538D03*
X173384Y356624D03*
X173344Y352670D03*
X173263Y348757D03*
X185810Y366428D03*
X189247Y364474D03*
X185830Y362454D03*
X189216Y360547D03*
X185810Y358561D03*
X189121Y356588D03*
X185790Y354647D03*
X188962Y352661D03*
X185790Y350694D03*
X188962Y348734D03*
X213196Y351938D03*
X213621Y355919D03*
X201662Y366438D03*
X201757Y362511D03*
Y358552D03*
X201789Y354625D03*
X201852Y350698D03*
X273374Y361497D03*
X275072Y364245D03*
X273536Y367196D03*
X260280Y362023D03*
X260199Y366428D03*
X313699Y362334D03*
X310527Y352025D03*
X334834Y359362D03*
X356598Y349820D03*
X356189Y359484D03*
X356032Y363403D03*
X356193Y367076D03*
X355646Y354095D03*
X371520Y348184D03*
X369218Y353261D03*
X383881Y349400D03*
X417667Y353380D03*
X400696Y364311D03*
X404566Y348448D03*
X173364Y380246D03*
X173465Y376292D03*
X173606Y372338D03*
X173505Y368405D03*
X185810Y382162D03*
X189247Y380215D03*
X185830Y378249D03*
X189279Y376287D03*
X185810Y374315D03*
X189247Y372329D03*
X185790Y370382D03*
X189247Y368433D03*
X201725Y382178D03*
X201789Y378251D03*
X201757Y374324D03*
X201725Y370365D03*
X216786Y372710D03*
X299492Y371798D03*
X305900Y378016D03*
X335151Y386582D03*
X364393Y379696D03*
X360408Y383182D03*
X362308Y373384D03*
X386768Y382967D03*
X383818Y369577D03*
X177218Y393257D03*
X197102Y393379D03*
X189948Y393217D03*
X182674Y393419D03*
X234818Y400108D03*
X293718Y396290D03*
X313953Y390189D03*
G54D30*
X360020Y304507D02*
X358364Y302851D01*
X360020Y296952D02*
X358364Y298608D01*
X352465Y296952D02*
X354121Y298608D01*
X352465Y304507D02*
X354121Y302851D01*
G74*
X0Y0D02*
M02*
