*
*
G04 PADS VX.2 Build Number: 5060570 generated Gerber (RS-274-X) file*
G04 PC Version=2.1*
*
%IN "board.pcb"*%
*
%MOIN*%
*
%FSLAX35Y35*%
*
*
*
*
G04 PC Standard Apertures*
*
*
G04 Thermal Relief Aperture macro.*
%AMTER*
1,1,$1,0,0*
1,0,$1-$2,0,0*
21,0,$3,$4,0,0,45*
21,0,$3,$4,0,0,135*
%
*
*
G04 Annular Aperture macro.*
%AMANN*
1,1,$1,0,0*
1,0,$2,0,0*
%
*
*
G04 Odd Aperture macro.*
%AMODD*
1,1,$1,0,0*
1,0,$1-0.005,0,0*
%
*
*
G04 PC Custom Aperture Macros*
*
*
*
*
*
*
G04 PC Aperture Table*
*
%ADD010C,0.001*%
%ADD026C,0.01*%
*
*
*
*
G04 PC Circuitry*
G04 Layer Name board.pcb - circuitry*
%LPD*%
*
*
G04 PC Custom Flashes*
G04 Layer Name board.pcb - flashes*
%LPD*%
*
*
G04 PC Circuitry*
G04 Layer Name board.pcb - circuitry*
%LPD*%
*
G54D10*
G54D26*
G01X399152Y393865D02*
X407152D01*
X403152Y389865D02*
Y397865D01*
X389152Y393865D02*
X397152D01*
X393152Y389865D02*
Y397865D01*
X379152Y393865D02*
X387152D01*
X383152Y389865D02*
Y397865D01*
X369152Y393865D02*
X377152D01*
X373152Y389865D02*
Y397865D01*
X271519Y347556D02*
X279519D01*
X275519Y343556D02*
Y351556D01*
X261519Y347556D02*
X269519D01*
X265519Y343556D02*
Y351556D01*
X251519Y347556D02*
X259519D01*
X255519Y343556D02*
Y351556D01*
X271517Y299790D02*
X279517D01*
X275517Y295790D02*
Y303790D01*
X261517Y299790D02*
X269517D01*
X265517Y295790D02*
Y303790D01*
X251517Y299790D02*
X259517D01*
X255517Y295790D02*
Y303790D01*
X464839Y368008D02*
X472839Y376008D01*
X464839D02*
X472839Y368008D01*
X464839Y336512D02*
X472839Y344512D01*
X464839D02*
X472839Y336512D01*
X271000Y395000D02*
X279000D01*
X275000Y391000D02*
Y399000D01*
X261000Y395000D02*
X269000D01*
X265000Y391000D02*
Y399000D01*
X251000Y395000D02*
X259000D01*
X255000Y391000D02*
Y399000D01*
X352243Y300729D02*
X360243D01*
X356243Y296729D02*
Y304729D01*
X362243Y300729D02*
X370243D01*
X366243Y296729D02*
Y304729D01*
X372243Y300729D02*
X380243D01*
X376243Y296729D02*
Y304729D01*
X382243Y300729D02*
X390243D01*
X386243Y296729D02*
Y304729D01*
X392243Y300729D02*
X400243D01*
X396243Y296729D02*
Y304729D01*
X402243Y300729D02*
X410243D01*
X406243Y296729D02*
Y304729D01*
X412243Y300729D02*
X420243D01*
X416243Y296729D02*
Y304729D01*
X422243Y300729D02*
X430243D01*
X426243Y296729D02*
Y304729D01*
X306025Y293307D02*
X314025D01*
Y301307*
X306025*
Y293307*
X310025Y297307D02*
Y301307D01*
X331151Y302634D02*
X339151D01*
Y310634*
X331151*
Y302634*
X335151Y306634D02*
Y310634D01*
X223539Y316086D02*
X231539D01*
Y324086*
X223539*
Y316086*
X227539Y320086D02*
Y324086D01*
X234775Y311741D02*
X242775D01*
Y319741*
X234775*
Y311741*
X238775Y315741D02*
Y319741D01*
X310714Y303766D02*
X318714D01*
Y311766*
X310714*
Y303766*
X314714Y307766D02*
Y311766D01*
X302107Y321506D02*
X310107D01*
Y329506*
X302107*
Y321506*
X306107Y325506D02*
Y329506D01*
X295301Y315832D02*
X303301D01*
Y323832*
X295301*
Y315832*
X299301Y319832D02*
Y323832D01*
X325133Y321308D02*
X333133D01*
Y329308*
X325133*
Y321308*
X329133Y325308D02*
Y329308D01*
X361607Y315007D02*
X369607D01*
Y323007*
X361607*
Y315007*
X365607Y319007D02*
Y323007D01*
X393587Y314500D02*
X401587D01*
Y322500*
X393587*
Y314500*
X397587Y318500D02*
Y322500D01*
X429367Y303893D02*
X437367D01*
Y311893*
X429367*
Y303893*
X433367Y307893D02*
Y311893D01*
X169203Y340803D02*
X177203D01*
Y348803*
X169203*
Y340803*
X173203Y344803D02*
Y348803D01*
X169229Y336855D02*
X177229D01*
Y344855*
X169229*
Y336855*
X173229Y340855D02*
Y344855D01*
X181790Y342760D02*
X189790D01*
Y350760*
X181790*
Y342760*
X185790Y346760D02*
Y350760D01*
X184994Y340807D02*
X192994D01*
Y348807*
X184994*
Y340807*
X188994Y344807D02*
Y348807D01*
X181891Y338806D02*
X189891D01*
Y346806*
X181891*
Y338806*
X185891Y342806D02*
Y346806D01*
X184931Y336848D02*
X192931D01*
Y344848*
X184931*
Y336848*
X188931Y340848D02*
Y344848D01*
X181911Y334893D02*
X189911D01*
Y342893*
X181911*
Y334893*
X185911Y338893D02*
Y342893D01*
X213386Y338250D02*
X221386D01*
Y346250*
X213386*
Y338250*
X217386Y342250D02*
Y346250D01*
X211265Y340891D02*
X219265D01*
Y348891*
X211265*
Y340891*
X215265Y344891D02*
Y348891D01*
X197884Y342739D02*
X205884D01*
Y350739*
X197884*
Y342739*
X201884Y346739D02*
Y350739D01*
X197947Y338812D02*
X205947D01*
Y346812*
X197947*
Y338812*
X201947Y342812D02*
Y346812D01*
X198074Y334885D02*
X206074D01*
Y342885*
X198074*
Y334885*
X202074Y338885D02*
Y342885D01*
X208021Y338003D02*
X216021D01*
Y346003*
X208021*
Y338003*
X212021Y342003D02*
Y346003D01*
X290566Y341395D02*
X298566D01*
Y349395*
X290566*
Y341395*
X294566Y345395D02*
Y349395D01*
X310968Y327878D02*
X318968D01*
Y335878*
X310968*
Y327878*
X314968Y331878D02*
Y335878D01*
X347458Y341022D02*
X355458D01*
Y349022*
X347458*
Y341022*
X351458Y345022D02*
Y349022D01*
X366516Y340760D02*
X374516D01*
Y348760*
X366516*
Y340760*
X370516Y344760D02*
Y348760D01*
X385719Y333662D02*
X393719D01*
Y341662*
X385719*
Y333662*
X389719Y337662D02*
Y341662D01*
X416344Y336201D02*
X424344D01*
Y344201*
X416344*
Y336201*
X420344Y340201D02*
Y344201D01*
X430134Y342799D02*
X438134D01*
Y350799*
X430134*
Y342799*
X434134Y346799D02*
Y350799D01*
X169465Y360491D02*
X177465D01*
Y368491*
X169465*
Y360491*
X173465Y364491D02*
Y368491D01*
X169445Y356538D02*
X177445D01*
Y364538*
X169445*
Y356538*
X173445Y360538D02*
Y364538D01*
X169384Y352624D02*
X177384D01*
Y360624*
X169384*
Y352624*
X173384Y356624D02*
Y360624D01*
X169344Y348670D02*
X177344D01*
Y356670*
X169344*
Y348670*
X173344Y352670D02*
Y356670D01*
X169263Y344757D02*
X177263D01*
Y352757*
X169263*
Y344757*
X173263Y348757D02*
Y352757D01*
X181810Y362428D02*
X189810D01*
Y370428*
X181810*
Y362428*
X185810Y366428D02*
Y370428D01*
X185247Y360474D02*
X193247D01*
Y368474*
X185247*
Y360474*
X189247Y364474D02*
Y368474D01*
X181830Y358454D02*
X189830D01*
Y366454*
X181830*
Y358454*
X185830Y362454D02*
Y366454D01*
X185216Y356547D02*
X193216D01*
Y364547*
X185216*
Y356547*
X189216Y360547D02*
Y364547D01*
X181810Y354561D02*
X189810D01*
Y362561*
X181810*
Y354561*
X185810Y358561D02*
Y362561D01*
X185121Y352588D02*
X193121D01*
Y360588*
X185121*
Y352588*
X189121Y356588D02*
Y360588D01*
X181790Y350647D02*
X189790D01*
Y358647*
X181790*
Y350647*
X185790Y354647D02*
Y358647D01*
X184962Y348661D02*
X192962D01*
Y356661*
X184962*
Y348661*
X188962Y352661D02*
Y356661D01*
X181790Y346694D02*
X189790D01*
Y354694*
X181790*
Y346694*
X185790Y350694D02*
Y354694D01*
X184962Y344734D02*
X192962D01*
Y352734*
X184962*
Y344734*
X188962Y348734D02*
Y352734D01*
X209196Y347938D02*
X217196D01*
Y355938*
X209196*
Y347938*
X213196Y351938D02*
Y355938D01*
X209621Y351919D02*
X217621D01*
Y359919*
X209621*
Y351919*
X213621Y355919D02*
Y359919D01*
X197662Y362438D02*
X205662D01*
Y370438*
X197662*
Y362438*
X201662Y366438D02*
Y370438D01*
X197757Y358511D02*
X205757D01*
Y366511*
X197757*
Y358511*
X201757Y362511D02*
Y366511D01*
X197757Y354552D02*
X205757D01*
Y362552*
X197757*
Y354552*
X201757Y358552D02*
Y362552D01*
X197789Y350625D02*
X205789D01*
Y358625*
X197789*
Y350625*
X201789Y354625D02*
Y358625D01*
X197852Y346698D02*
X205852D01*
Y354698*
X197852*
Y346698*
X201852Y350698D02*
Y354698D01*
X269374Y357497D02*
X277374D01*
Y365497*
X269374*
Y357497*
X273374Y361497D02*
Y365497D01*
X271072Y360245D02*
X279072D01*
Y368245*
X271072*
Y360245*
X275072Y364245D02*
Y368245D01*
X269536Y363196D02*
X277536D01*
Y371196*
X269536*
Y363196*
X273536Y367196D02*
Y371196D01*
X256280Y358023D02*
X264280D01*
Y366023*
X256280*
Y358023*
X260280Y362023D02*
Y366023D01*
X256199Y362428D02*
X264199D01*
Y370428*
X256199*
Y362428*
X260199Y366428D02*
Y370428D01*
X309699Y358334D02*
X317699D01*
Y366334*
X309699*
Y358334*
X313699Y362334D02*
Y366334D01*
X306527Y348025D02*
X314527D01*
Y356025*
X306527*
Y348025*
X310527Y352025D02*
Y356025D01*
X330834Y355362D02*
X338834D01*
Y363362*
X330834*
Y355362*
X334834Y359362D02*
Y363362D01*
X352598Y345820D02*
X360598D01*
Y353820*
X352598*
Y345820*
X356598Y349820D02*
Y353820D01*
X352189Y355484D02*
X360189D01*
Y363484*
X352189*
Y355484*
X356189Y359484D02*
Y363484D01*
X352032Y359403D02*
X360032D01*
Y367403*
X352032*
Y359403*
X356032Y363403D02*
Y367403D01*
X352193Y363076D02*
X360193D01*
Y371076*
X352193*
Y363076*
X356193Y367076D02*
Y371076D01*
X351646Y350095D02*
X359646D01*
Y358095*
X351646*
Y350095*
X355646Y354095D02*
Y358095D01*
X367520Y344184D02*
X375520D01*
Y352184*
X367520*
Y344184*
X371520Y348184D02*
Y352184D01*
X365218Y349261D02*
X373218D01*
Y357261*
X365218*
Y349261*
X369218Y353261D02*
Y357261D01*
X379881Y345400D02*
X387881D01*
Y353400*
X379881*
Y345400*
X383881Y349400D02*
Y353400D01*
X413667Y349380D02*
X421667D01*
Y357380*
X413667*
Y349380*
X417667Y353380D02*
Y357380D01*
X396696Y360311D02*
X404696D01*
Y368311*
X396696*
Y360311*
X400696Y364311D02*
Y368311D01*
X400566Y344448D02*
X408566D01*
Y352448*
X400566*
Y344448*
X404566Y348448D02*
Y352448D01*
X169364Y376246D02*
X177364D01*
Y384246*
X169364*
Y376246*
X173364Y380246D02*
Y384246D01*
X169465Y372292D02*
X177465D01*
Y380292*
X169465*
Y372292*
X173465Y376292D02*
Y380292D01*
X169606Y368338D02*
X177606D01*
Y376338*
X169606*
Y368338*
X173606Y372338D02*
Y376338D01*
X169505Y364405D02*
X177505D01*
Y372405*
X169505*
Y364405*
X173505Y368405D02*
Y372405D01*
X181810Y378162D02*
X189810D01*
Y386162*
X181810*
Y378162*
X185810Y382162D02*
Y386162D01*
X185247Y376215D02*
X193247D01*
Y384215*
X185247*
Y376215*
X189247Y380215D02*
Y384215D01*
X181830Y374249D02*
X189830D01*
Y382249*
X181830*
Y374249*
X185830Y378249D02*
Y382249D01*
X185279Y372287D02*
X193279D01*
Y380287*
X185279*
Y372287*
X189279Y376287D02*
Y380287D01*
X181810Y370315D02*
X189810D01*
Y378315*
X181810*
Y370315*
X185810Y374315D02*
Y378315D01*
X185247Y368329D02*
X193247D01*
Y376329*
X185247*
Y368329*
X189247Y372329D02*
Y376329D01*
X181790Y366382D02*
X189790D01*
Y374382*
X181790*
Y366382*
X185790Y370382D02*
Y374382D01*
X185247Y364433D02*
X193247D01*
Y372433*
X185247*
Y364433*
X189247Y368433D02*
Y372433D01*
X197725Y378178D02*
X205725D01*
Y386178*
X197725*
Y378178*
X201725Y382178D02*
Y386178D01*
X197789Y374251D02*
X205789D01*
Y382251*
X197789*
Y374251*
X201789Y378251D02*
Y382251D01*
X197757Y370324D02*
X205757D01*
Y378324*
X197757*
Y370324*
X201757Y374324D02*
Y378324D01*
X197725Y366365D02*
X205725D01*
Y374365*
X197725*
Y366365*
X201725Y370365D02*
Y374365D01*
X212786Y368710D02*
X220786D01*
Y376710*
X212786*
Y368710*
X216786Y372710D02*
Y376710D01*
X295492Y367798D02*
X303492D01*
Y375798*
X295492*
Y367798*
X299492Y371798D02*
Y375798D01*
X301900Y374016D02*
X309900D01*
Y382016*
X301900*
Y374016*
X305900Y378016D02*
Y382016D01*
X331151Y382582D02*
X339151D01*
Y390582*
X331151*
Y382582*
X335151Y386582D02*
Y390582D01*
X360393Y375696D02*
X368393D01*
Y383696*
X360393*
Y375696*
X364393Y379696D02*
Y383696D01*
X356408Y379182D02*
X364408D01*
Y387182*
X356408*
Y379182*
X360408Y383182D02*
Y387182D01*
X358308Y369384D02*
X366308D01*
Y377384*
X358308*
Y369384*
X362308Y373384D02*
Y377384D01*
X382768Y378967D02*
X390768D01*
Y386967*
X382768*
Y378967*
X386768Y382967D02*
Y386967D01*
X379818Y365577D02*
X387818D01*
Y373577*
X379818*
Y365577*
X383818Y369577D02*
Y373577D01*
X173218Y389257D02*
X181218D01*
Y397257*
X173218*
Y389257*
X177218Y393257D02*
Y397257D01*
X193102Y389379D02*
X201102D01*
Y397379*
X193102*
Y389379*
X197102Y393379D02*
Y397379D01*
X185948Y389217D02*
X193948D01*
Y397217*
X185948*
Y389217*
X189948Y393217D02*
Y397217D01*
X178674Y389419D02*
X186674D01*
Y397419*
X178674*
Y389419*
X182674Y393419D02*
Y397419D01*
X230818Y396108D02*
X238818D01*
Y404108*
X230818*
Y396108*
X234818Y400108D02*
Y404108D01*
X289718Y392290D02*
X297718D01*
Y400290*
X289718*
Y392290*
X293718Y396290D02*
Y400290D01*
X309953Y386189D02*
X317953D01*
Y394189*
X309953*
Y386189*
X313953Y390189D02*
Y394189D01*
X168453Y405000D02*
Y292500D01*
X482500*
Y405000*
X168453*
X100000Y196000D02*
X358000D01*
X100000Y172000D02*
X358000D01*
X100000Y148000D02*
X358000D01*
X100000Y124000D02*
X358000D01*
X100000Y100000D02*
X358000D01*
X100000Y196000D02*
Y100000D01*
X184000Y196000D02*
Y100000D01*
X220000Y196000D02*
Y100000D01*
X256000Y196000D02*
Y100000D01*
X310000Y196000D02*
Y100000D01*
X358000Y196000D02*
Y100000D01*
X135500Y184750D02*
X134955Y185500D01*
X134136Y185875*
X133045*
X132227Y185500*
X131682Y184750*
Y184000*
X131955Y183250*
X132227Y182875*
X132773Y182500*
X134409Y181750*
X134955Y181375*
X135227Y181000*
X135500Y180250*
Y179125*
X134955Y178375*
X134136Y178000*
X133045*
X132227Y178375*
X131682Y179125*
X137955Y185875D02*
Y178000D01*
X144227Y185875D02*
X140409Y178000D01*
Y185875D02*
X144227D01*
X140409Y178000D02*
X144227D01*
X146682Y185875D02*
Y178000D01*
Y185875D02*
X150227D01*
X146682Y182125D02*
X148864D01*
X146682Y178000D02*
X150227D01*
X193864Y185875D02*
X193318Y185500D01*
X192773Y184750*
X192500Y184000*
X192227Y182875*
Y181000*
X192500Y179875*
X192773Y179125*
X193318Y178375*
X193864Y178000*
X194955*
X195500Y178375*
X196045Y179125*
X196318Y179875*
X196591Y181000*
Y182875*
X196318Y184000*
X196045Y184750*
X195500Y185500*
X194955Y185875*
X193864*
X194682Y179500D02*
X196318Y177250D01*
X200955Y185875D02*
Y178000D01*
X199045Y185875D02*
X202864D01*
X205318D02*
X207500Y182125D01*
Y178000*
X209682Y185875D02*
X207500Y182125D01*
X232045Y184750D02*
X231500Y185500D01*
X230682Y185875*
X229591*
X228773Y185500*
X228227Y184750*
Y184000*
X228500Y183250*
X228773Y182875*
X229318Y182500*
X230955Y181750*
X231500Y181375*
X231773Y181000*
X232045Y180250*
Y179125*
X231500Y178375*
X230682Y178000*
X229591*
X228773Y178375*
X228227Y179125*
X234500Y185875D02*
X236682Y182125D01*
Y178000*
X238864Y185875D02*
X236682Y182125D01*
X241318Y185875D02*
Y178000D01*
Y185875D02*
X243500Y178000D01*
X245682Y185875D02*
X243500Y178000D01*
X245682Y185875D02*
Y178000D01*
X267500Y185875D02*
Y178000D01*
Y185875D02*
X269955D01*
X270773Y185500*
X271045Y185125*
X271318Y184375*
Y183250*
X271045Y182500*
X270773Y182125*
X269955Y181750*
X267500*
X273773Y185875D02*
Y178000D01*
X277045*
X281682Y185875D02*
X279500Y178000D01*
X281682Y185875D02*
X283864Y178000D01*
X280318Y180625D02*
X283045D01*
X288227Y185875D02*
Y178000D01*
X286318Y185875D02*
X290136D01*
X292591D02*
Y178000D01*
Y185875D02*
X296136D01*
X292591Y182125D02*
X294773D01*
X292591Y178000D02*
X296136D01*
X298591Y185875D02*
Y178000D01*
Y185875D02*
X300500D01*
X301318Y185500*
X301864Y184750*
X302136Y184000*
X302409Y182875*
Y181000*
X302136Y179875*
X301864Y179125*
X301318Y178375*
X300500Y178000*
X298591*
X326682Y185875D02*
Y178000D01*
X324773Y185875D02*
X328591D01*
X332682D02*
X332136Y185500D01*
X331591Y184750*
X331318Y184000*
X331045Y182875*
Y181000*
X331318Y179875*
X331591Y179125*
X332136Y178375*
X332682Y178000*
X333773*
X334318Y178375*
X334864Y179125*
X335136Y179875*
X335409Y181000*
Y182875*
X335136Y184000*
X334864Y184750*
X334318Y185500*
X333773Y185875*
X332682*
X337864D02*
Y178000D01*
X341136*
X106545Y161875D02*
X109545D01*
X107909Y158875*
X108727*
X109273Y158500*
X109545Y158125*
X109818Y157000*
Y156250*
X109545Y155125*
X109000Y154375*
X108182Y154000*
X107364*
X106545Y154375*
X106273Y154750*
X106000Y155500*
X115818Y161875D02*
X113091D01*
X112818Y158500*
X113091Y158875*
X113909Y159250*
X114727*
X115545Y158875*
X116091Y158125*
X116364Y157000*
X116091Y156250*
X115818Y155125*
X115273Y154375*
X114455Y154000*
X113636*
X112818Y154375*
X112545Y154750*
X112273Y155500*
X197409Y160000D02*
Y160375D01*
X197682Y161125*
X197955Y161500*
X198500Y161875*
X199591*
X200136Y161500*
X200409Y161125*
X200682Y160375*
Y159625*
X200409Y158875*
X199864Y157750*
X197136Y154000*
X200955*
X203409Y160375D02*
X203955Y160750D01*
X204773Y161875*
Y154000*
X232000Y160000D02*
X244000D01*
X238000Y154000D02*
Y166000D01*
X264636Y161875D02*
X266818Y158125D01*
Y154000*
X269000Y161875D02*
X266818Y158125D01*
X271455Y161875D02*
Y154000D01*
Y161875D02*
X275000D01*
X271455Y158125D02*
X273636D01*
X271455Y154000D02*
X275000D01*
X281273Y160750D02*
X280727Y161500D01*
X279909Y161875*
X278818*
X278000Y161500*
X277455Y160750*
Y160000*
X277727Y159250*
X278000Y158875*
X278545Y158500*
X280182Y157750*
X280727Y157375*
X281000Y157000*
X281273Y156250*
Y155125*
X280727Y154375*
X279909Y154000*
X278818*
X278000Y154375*
X277455Y155125*
X317818Y160750D02*
Y154000D01*
X315364Y157375D02*
X320273D01*
X327636Y163375D02*
X322727Y151375D01*
X330091Y157375D02*
X335000D01*
X339091Y161875D02*
X338273Y161500D01*
X337727Y160375*
X337455Y158500*
Y157375*
X337727Y155500*
X338273Y154375*
X339091Y154000*
X339636*
X340455Y154375*
X341000Y155500*
X341273Y157375*
Y158500*
X341000Y160375*
X340455Y161500*
X339636Y161875*
X339091*
X344000Y154750D02*
X343727Y154375D01*
X344000Y154000*
X344273Y154375*
X344000Y154750*
X348364Y161875D02*
X347545Y161500D01*
X347000Y160375*
X346727Y158500*
Y157375*
X347000Y155500*
X347545Y154375*
X348364Y154000*
X348909*
X349727Y154375*
X350273Y155500*
X350545Y157375*
Y158500*
X350273Y160375*
X349727Y161500*
X348909Y161875*
X348364*
X108727Y137875D02*
X106000Y132625D01*
X110091*
X108727Y137875D02*
Y130000D01*
X116364Y137875D02*
X113636Y130000D01*
X112545Y137875D02*
X116364D01*
X119091Y130750D02*
X118818Y130375D01*
X119091Y130000*
X119364Y130375*
X119091Y130750*
X122091Y136000D02*
Y136375D01*
X122364Y137125*
X122636Y137500*
X123182Y137875*
X124273*
X124818Y137500*
X125091Y137125*
X125364Y136375*
Y135625*
X125091Y134875*
X124545Y133750*
X121818Y130000*
X125636*
X130818Y137875D02*
X128091Y132625D01*
X132182*
X130818Y137875D02*
Y130000D01*
X199318Y136000D02*
Y136375D01*
X199591Y137125*
X199864Y137500*
X200409Y137875*
X201500*
X202045Y137500*
X202318Y137125*
X202591Y136375*
Y135625*
X202318Y134875*
X201773Y133750*
X199045Y130000*
X202864*
X232000D02*
X244000Y142000D01*
X232000D02*
X244000Y130000D01*
X264636Y137875D02*
X266818Y134125D01*
Y130000*
X269000Y137875D02*
X266818Y134125D01*
X271455Y137875D02*
Y130000D01*
Y137875D02*
X275000D01*
X271455Y134125D02*
X273636D01*
X271455Y130000D02*
X275000D01*
X281273Y136750D02*
X280727Y137500D01*
X279909Y137875*
X278818*
X278000Y137500*
X277455Y136750*
Y136000*
X277727Y135250*
X278000Y134875*
X278545Y134500*
X280182Y133750*
X280727Y133375*
X281000Y133000*
X281273Y132250*
Y131125*
X280727Y130375*
X279909Y130000*
X278818*
X278000Y130375*
X277455Y131125*
X317818Y136750D02*
Y130000D01*
X315364Y133375D02*
X320273D01*
X327636Y139375D02*
X322727Y127375D01*
X330091Y133375D02*
X335000D01*
X339091Y137875D02*
X338273Y137500D01*
X337727Y136375*
X337455Y134500*
Y133375*
X337727Y131500*
X338273Y130375*
X339091Y130000*
X339636*
X340455Y130375*
X341000Y131500*
X341273Y133375*
Y134500*
X341000Y136375*
X340455Y137500*
X339636Y137875*
X339091*
X344000Y130750D02*
X343727Y130375D01*
X344000Y130000*
X344273Y130375*
X344000Y130750*
X348364Y137875D02*
X347545Y137500D01*
X347000Y136375*
X346727Y134500*
Y133375*
X347000Y131500*
X347545Y130375*
X348364Y130000*
X348909*
X349727Y130375*
X350273Y131500*
X350545Y133375*
Y134500*
X350273Y136375*
X349727Y137500*
X348909Y137875*
X348364*
X106000Y112375D02*
X106545Y112750D01*
X107364Y113875*
Y106000*
X109818Y112375D02*
X110364Y112750D01*
X111182Y113875*
Y106000*
X113909Y106750D02*
X113636Y106375D01*
X113909Y106000*
X114182Y106375*
X113909Y106750*
X118000Y113875D02*
X117182Y113500D01*
X116909Y112750*
Y112000*
X117182Y111250*
X117727Y110875*
X118818Y110500*
X119636Y110125*
X120182Y109375*
X120455Y108625*
Y107500*
X120182Y106750*
X119909Y106375*
X119091Y106000*
X118000*
X117182Y106375*
X116909Y106750*
X116636Y107500*
Y108625*
X116909Y109375*
X117455Y110125*
X118273Y110500*
X119364Y110875*
X119909Y111250*
X120182Y112000*
Y112750*
X119909Y113500*
X119091Y113875*
X118000*
X122909Y112375D02*
X123455Y112750D01*
X124273Y113875*
Y106000*
X193864Y112375D02*
X194409Y112750D01*
X195227Y113875*
Y106000*
X199318Y113875D02*
X198500Y113500D01*
X197955Y112375*
X197682Y110500*
Y109375*
X197955Y107500*
X198500Y106375*
X199318Y106000*
X199864*
X200682Y106375*
X201227Y107500*
X201500Y109375*
Y110500*
X201227Y112375*
X200682Y113500*
X199864Y113875*
X199318*
X206682D02*
X203955Y108625D01*
X208045*
X206682Y113875D02*
Y106000D01*
X232000D02*
X244000D01*
Y118000*
X232000*
Y106000*
X238000Y112000D02*
Y118000D01*
X264636Y113875D02*
X266818Y110125D01*
Y106000*
X269000Y113875D02*
X266818Y110125D01*
X271455Y113875D02*
Y106000D01*
Y113875D02*
X275000D01*
X271455Y110125D02*
X273636D01*
X271455Y106000D02*
X275000D01*
X281273Y112750D02*
X280727Y113500D01*
X279909Y113875*
X278818*
X278000Y113500*
X277455Y112750*
Y112000*
X277727Y111250*
X278000Y110875*
X278545Y110500*
X280182Y109750*
X280727Y109375*
X281000Y109000*
X281273Y108250*
Y107125*
X280727Y106375*
X279909Y106000*
X278818*
X278000Y106375*
X277455Y107125*
X317818Y112750D02*
Y106000D01*
X315364Y109375D02*
X320273D01*
X327636Y115375D02*
X322727Y103375D01*
X330091Y109375D02*
X335000D01*
X339091Y113875D02*
X338273Y113500D01*
X337727Y112375*
X337455Y110500*
Y109375*
X337727Y107500*
X338273Y106375*
X339091Y106000*
X339636*
X340455Y106375*
X341000Y107500*
X341273Y109375*
Y110500*
X341000Y112375*
X340455Y113500*
X339636Y113875*
X339091*
X344000Y106750D02*
X343727Y106375D01*
X344000Y106000*
X344273Y106375*
X344000Y106750*
X348364Y113875D02*
X347545Y113500D01*
X347000Y112375*
X346727Y110500*
Y109375*
X347000Y107500*
X347545Y106375*
X348364Y106000*
X348909*
X349727Y106375*
X350273Y107500*
X350545Y109375*
Y110500*
X350273Y112375*
X349727Y113500*
X348909Y113875*
X348364*
X0Y0D02*
M02*
