M48
;FILE_FORMAT=2:4
INCH,LZ
FMAT,2
ICI,OFF
;TYPE=PLATED
T1C.01181
T2C.035
T3C.04724
%
M72
G90
G93X0Y0
T1C.01181F095S3
X01732Y03448
X017323Y034085
X018579Y034676
X018589Y034281
X018591Y033889
X018893Y034085
X018899Y034481
X020188Y034674
X020195Y034281
X020207Y033888
X021202Y0342
X021527Y034489
X021739Y034225
X022754Y032009
X023877Y031574
X029457Y03454
X02993Y031983
X030611Y032551
X031002Y029731
X031471Y030777
X031497Y033188
X032913Y032531
X033515Y030663
X035146Y034502
X036561Y031901
X037052Y034476
X038972Y033766
X039759Y03185
X042034Y03402
X043337Y030789
X043413Y03468
X041767Y035338
X040457Y034845
X04007Y036431
X038388Y03494
X038382Y036958
X037152Y034818
X036922Y035326
X03566Y034982
X035619Y036708
X035619Y035948
X035603Y03634
X035565Y03541
X033483Y035936
X03137Y036233
X031053Y035203
X029949Y03718
X027507Y036425
X027354Y03672
X027337Y03615
X026028Y036202
X02602Y036643
X021362Y035592
X02132Y035194
X020185Y03507
X020179Y035462
X020176Y035855
X020176Y036251
X020173Y037037
X020166Y036644
X018925Y036447
X018925Y036843
X018922Y036055
X018912Y035659
X018896Y035266
X018896Y034873
X018583Y036245
X018581Y035856
X018581Y036643
X018579Y037038
X018579Y035069
X018579Y035465
X017351Y03684
X017346Y036449
X017344Y036054
X017338Y035662
X017334Y035267
X017326Y034876
X017336Y038025
X017346Y037629
X017361Y037234
X017722Y039326
X018267Y039342
X018581Y037432
X018581Y038216
X018583Y037825
X018925Y038021
X018925Y037233
X018928Y037629
X018995Y039322
X01971Y039338
X020173Y038218
X020176Y037432
X020179Y037825
X021679Y037271
X029372Y039629
X03059Y037802
X031395Y039019
X033515Y038658
X036041Y038318
X036231Y037338
X036439Y03797
X038677Y038297
X023482Y040011
T2C.035F197S55
X025552Y029979
X026552Y029979
X027552Y029979
X035624Y030073
X036624Y030073
X037624Y030073
X038624Y030073
X039624Y030073
X040624Y030073
X041624Y030073
X042624Y030073
X040315Y039386
X039315Y039386
X038315Y039386
X037315Y039386
X027552Y034756
X0275Y0395
X026552Y034756
X0265Y0395
X025552Y034756
X0255Y0395
T3C.04724F139S55
X046884Y034051
X046884Y037201
M30
