*
*
G04 PADS VX.2 Build Number: 5060570 generated Gerber (RS-274-X) file*
G04 PC Version=2.1*
*
%IN "board.pcb"*%
*
%MOIN*%
*
%FSLAX35Y35*%
*
*
*
*
G04 PC Standard Apertures*
*
*
G04 Thermal Relief Aperture macro.*
%AMTER*
1,1,$1,0,0*
1,0,$1-$2,0,0*
21,0,$3,$4,0,0,45*
21,0,$3,$4,0,0,135*
%
*
*
G04 Annular Aperture macro.*
%AMANN*
1,1,$1,0,0*
1,0,$2,0,0*
%
*
*
G04 Odd Aperture macro.*
%AMODD*
1,1,$1,0,0*
1,0,$1-0.005,0,0*
%
*
*
G04 PC Custom Aperture Macros*
*
*
*
*
*
*
G04 PC Aperture Table*
*
%ADD010C,0.001*%
%ADD013R,0.07874X0.00984*%
%ADD026C,0.01*%
*
*
*
*
G04 PC Circuitry*
G04 Layer Name board.pcb - circuitry*
%LPD*%
*
*
G04 PC Custom Flashes*
G04 Layer Name board.pcb - flashes*
%LPD*%
*
*
G04 PC Circuitry*
G04 Layer Name board.pcb - circuitry*
%LPD*%
*
G54D10*
G54D13*
G01X195374Y338878D03*
X179626D03*
X195374Y340846D03*
X179626D03*
X195374Y342815D03*
X179626D03*
X195374Y344783D03*
X179626D03*
X195374Y346752D03*
X179626D03*
X195374Y348720D03*
X179626D03*
X195374Y350689D03*
X179626D03*
X195374Y352657D03*
X179626D03*
X195374Y354626D03*
X179626D03*
X195374Y356594D03*
X179626D03*
X195374Y358563D03*
X179626D03*
X195374Y360531D03*
X179626D03*
X195374Y362500D03*
X179626D03*
X195374Y364469D03*
X179626D03*
X195374Y366437D03*
X179626D03*
X195374Y368406D03*
X179626D03*
X195374Y370374D03*
X179626D03*
X195374Y372343D03*
X179626D03*
X195374Y374311D03*
X179626D03*
X195374Y376280D03*
X179626D03*
X195374Y378248D03*
X179626D03*
X195374Y380217D03*
X179626D03*
X195374Y382185D03*
X179626D03*
X195374Y384154D03*
X179626D03*
X195374Y386122D03*
X179626D03*
G54D26*
X168453Y405000D02*
Y292500D01*
X482500*
Y405000*
X168453*
X0Y0D02*
M02*
