*
*
G04 PADS VX.2 Build Number: 5060570 generated Gerber (RS-274-X) file*
G04 PC Version=2.1*
*
%IN "board.pcb"*%
*
%MOIN*%
*
%FSLAX35Y35*%
*
*
*
*
G04 PC Standard Apertures*
*
*
G04 Thermal Relief Aperture macro.*
%AMTER*
1,1,$1,0,0*
1,0,$1-$2,0,0*
21,0,$3,$4,0,0,45*
21,0,$3,$4,0,0,135*
%
*
*
G04 Annular Aperture macro.*
%AMANN*
1,1,$1,0,0*
1,0,$2,0,0*
%
*
*
G04 Odd Aperture macro.*
%AMODD*
1,1,$1,0,0*
1,0,$1-0.005,0,0*
%
*
*
G04 PC Custom Aperture Macros*
*
*
*
*
*
*
G04 PC Aperture Table*
*
%ADD010C,0.001*%
%ADD011R,0.038X0.03*%
%ADD012R,0.00984X0.07874*%
%ADD013R,0.07874X0.00984*%
%ADD016O,0.024X0.074*%
%ADD017R,0.07087X0.02756*%
%ADD018R,0.05512X0.06299*%
%ADD019R,0.08661X0.04724*%
%ADD021R,0.03X0.038*%
%ADD022O,0.04331X0.02362*%
%ADD023R,0.04331X0.02362*%
%ADD024R,0.065X0.125*%
%ADD026C,0.01*%
*
*
*
*
G04 PC Circuitry*
G04 Layer Name board.pcb - circuitry*
%LPD*%
*
*
G04 PC Custom Flashes*
G04 Layer Name board.pcb - flashes*
%LPD*%
*
*
G04 PC Circuitry*
G04 Layer Name board.pcb - circuitry*
%LPD*%
*
G54D10*
G54D11*
G01X316900Y397500D03*
X323100D03*
X233100Y352500D03*
X226900D03*
X299400Y360000D03*
X305600D03*
X316900Y370000D03*
X323100D03*
X334400D03*
X340600D03*
X339400Y355000D03*
X345600D03*
X299400Y352500D03*
X305600D03*
X299400Y382500D03*
X305600D03*
X299400Y390000D03*
X305600D03*
X334400Y397500D03*
X340600D03*
X339400Y382500D03*
X345600D03*
X299400Y300000D03*
X305600D03*
X299400Y307500D03*
X305600D03*
X316900Y317500D03*
X323100D03*
X334400D03*
X340600D03*
X339400Y302500D03*
X345600D03*
X233100Y300000D03*
X226900D03*
X299400Y330000D03*
X305600D03*
X299400Y337500D03*
X305600D03*
X316900Y345000D03*
X323100D03*
X334400D03*
X340600D03*
X339400Y330000D03*
X345600D03*
X299400Y397500D03*
X305600D03*
X299400Y315000D03*
X305600D03*
X299400Y367500D03*
X305600D03*
X299400Y345000D03*
X305600D03*
G54D12*
X402264Y376713D03*
X400295D03*
X398327D03*
X396358D03*
X394390D03*
X392421D03*
X390453D03*
X388484D03*
X386516D03*
X384547D03*
X382579D03*
X380610D03*
X378642D03*
X376673D03*
X374705D03*
X372736D03*
Y328287D03*
X374705D03*
X376673D03*
X378642D03*
X380610D03*
X382579D03*
X384547D03*
X386516D03*
X388484D03*
X390453D03*
X392421D03*
X394390D03*
X396358D03*
X398327D03*
X400295D03*
X402264D03*
G54D13*
X363287Y367264D03*
Y365295D03*
Y363327D03*
Y361358D03*
Y359390D03*
Y357421D03*
Y355453D03*
Y353484D03*
Y351516D03*
Y349547D03*
Y347579D03*
Y345610D03*
Y343642D03*
Y341673D03*
Y339705D03*
Y337736D03*
X411713D03*
Y339705D03*
Y341673D03*
Y343642D03*
Y345610D03*
Y347579D03*
Y349547D03*
Y351516D03*
Y353484D03*
Y355453D03*
Y357421D03*
Y359390D03*
Y361358D03*
Y363327D03*
Y365295D03*
Y367264D03*
X195374Y338878D03*
X179626D03*
X195374Y340846D03*
X179626D03*
X195374Y342815D03*
X179626D03*
X195374Y344783D03*
X179626D03*
X195374Y346752D03*
X179626D03*
X195374Y348720D03*
X179626D03*
X195374Y350689D03*
X179626D03*
X195374Y352657D03*
X179626D03*
X195374Y354626D03*
X179626D03*
X195374Y356594D03*
X179626D03*
X195374Y358563D03*
X179626D03*
X195374Y360531D03*
X179626D03*
X195374Y362500D03*
X179626D03*
X195374Y364469D03*
X179626D03*
X195374Y366437D03*
X179626D03*
X195374Y368406D03*
X179626D03*
X195374Y370374D03*
X179626D03*
X195374Y372343D03*
X179626D03*
X195374Y374311D03*
X179626D03*
X195374Y376280D03*
X179626D03*
X195374Y378248D03*
X179626D03*
X195374Y380217D03*
X179626D03*
X195374Y382185D03*
X179626D03*
X195374Y384154D03*
X179626D03*
X195374Y386122D03*
X179626D03*
G54D16*
X212503Y313698D03*
X217503D03*
X222503D03*
X227503D03*
Y336298D03*
X222503D03*
X217503D03*
X212503D03*
X212500Y363700D03*
X217500D03*
X222500D03*
X227500D03*
Y386300D03*
X222500D03*
X217500D03*
X212500D03*
G54D17*
X427500Y368661D03*
Y364331D03*
Y360000D03*
Y355669D03*
Y351339D03*
Y347008D03*
Y342677D03*
Y338346D03*
Y334016D03*
G54D18*
X429469Y327717D03*
Y386969D03*
G54D19*
X467264Y329882D03*
Y390118D03*
G54D21*
X437500Y313100D03*
Y306900D03*
X447500Y313100D03*
Y306900D03*
X457500Y313100D03*
Y306900D03*
X467500Y313100D03*
Y306900D03*
X477500Y313100D03*
Y306900D03*
X242500Y359400D03*
Y365600D03*
Y389400D03*
Y395600D03*
Y374400D03*
Y380600D03*
Y309400D03*
Y315600D03*
Y339400D03*
Y345600D03*
Y324400D03*
Y330600D03*
G54D22*
X330000Y355000D03*
Y382500D03*
Y302500D03*
Y330000D03*
G54D23*
Y358937D03*
Y362874D03*
X318976D03*
Y358937D03*
Y355000D03*
X330000Y386437D03*
Y390374D03*
X318976D03*
Y386437D03*
Y382500D03*
X330000Y306437D03*
Y310374D03*
X318976D03*
Y306437D03*
Y302500D03*
X330000Y333937D03*
Y337874D03*
X318976D03*
Y333937D03*
Y330000D03*
G54D24*
X254750Y362500D03*
X280250D03*
X254750Y380000D03*
X280250D03*
X254750Y315000D03*
X280250D03*
X254750Y332500D03*
X280250D03*
G54D26*
X168453Y405000D02*
Y292500D01*
X482500*
Y405000*
X168453*
X0Y0D02*
M02*
